<?xml version="1.0" standalone="no"?>
<!DOCTYPE svg PUBLIC "-//W3C//DTD SVG 20010904//EN"
 "http://www.w3.org/TR/2001/REC-SVG-20010904/DTD/svg10.dtd">
<svg version="1.0" xmlns="http://www.w3.org/2000/svg"
 width="980.000000pt" height="980.000000pt" viewBox="0 0 980.000000 980.000000"
 preserveAspectRatio="xMidYMid meet">
<metadata>
Created by potrace 1.15, written by Peter Selinger 2001-2017
</metadata>
<g transform="translate(0.000000,980.000000) scale(0.100000,-0.100000)"
fill="#000000" stroke="none">
<path d="M4560 9789 c-1035 -75 -1998 -463 -2800 -1128 -150 -123 -501 -475
-622 -621 -881 -1068 -1270 -2403 -1098 -3765 119 -934 501 -1801 1124 -2545
98 -117 370 -393 496 -504 1328 -1166 3158 -1531 4825 -962 895 305 1700 879
2281 1627 735 946 1100 2126 1024 3314 -70 1094 -491 2109 -1216 2935 -112
128 -386 398 -509 501 -763 642 -1665 1026 -2665 1134 -174 19 -664 27 -840
14z m773 -654 c196 -21 408 -57 582 -100 1489 -367 2668 -1502 3092 -2975 174
-605 209 -1268 102 -1910 -26 -157 -96 -437 -150 -600 -296 -900 -885 -1679
-1668 -2208 -187 -127 -285 -184 -490 -287 -433 -216 -866 -347 -1376 -417
-151 -20 -210 -23 -530 -22 -384 0 -454 5 -765 60 -620 109 -1259 385 -1768
763 -265 196 -565 479 -760 716 -474 576 -790 1259 -917 1980 -49 283 -60 409
-59 745 0 337 10 470 60 752 267 1528 1367 2804 2845 3302 375 126 713 190
1159 220 112 8 500 -4 643 -19z"/>
<path d="M4790 6803 c-65 -23 -152 -113 -174 -181 -50 -151 19 -310 163 -375
64 -30 178 -30 242 -1 108 50 179 156 179 270 0 91 -24 150 -89 215 -38 38
-72 61 -105 72 -61 21 -156 21 -216 0z"/>
<path d="M4600 4365 l0 -1505 300 0 300 0 0 1505 0 1505 -300 0 -300 0 0
-1505z"/>
</g>
</svg>
