<?xml version="1.0" standalone="no"?>
<!DOCTYPE svg PUBLIC "-//W3C//DTD SVG 20010904//EN"
 "http://www.w3.org/TR/2001/REC-SVG-20010904/DTD/svg10.dtd">
<svg version="1.0" xmlns="http://www.w3.org/2000/svg"
 width="929.000000pt" height="350.000000pt" viewBox="0 0 929.000000 350.000000"
 preserveAspectRatio="xMidYMid meet">
<metadata>
Created by potrace 1.15, written by Peter Selinger 2001-2017
</metadata>
<g transform="translate(0.000000,350.000000) scale(0.100000,-0.100000)"
fill="#000000" stroke="none">
<path d="M1115 3490 c-212 -9 -320 -35 -480 -115 -134 -67 -215 -127 -320
-237 -206 -215 -315 -486 -315 -783 0 -567 410 -1046 967 -1130 81 -12 268
-15 1107 -15 l1008 0 37 -29 c28 -23 40 -42 50 -83 21 -80 86 -233 137 -323
234 -407 637 -685 1099 -760 116 -19 364 -19 480 0 462 75 865 353 1099 760
50 87 115 240 136 320 7 28 26 64 43 82 l30 32 1056 4 c1033 3 1058 4 1141 24
400 99 707 373 833 743 62 182 78 402 43 584 -97 502 -500 872 -1008 926 -100
10 -831 11 -1014 1 l-111 -6 413 -440 c228 -242 419 -440 425 -440 6 0 46 68
90 150 43 83 84 154 92 159 22 14 166 -21 246 -60 147 -73 261 -222 296 -389
18 -88 18 -132 0 -220 -45 -216 -222 -396 -432 -440 -94 -20 -2075 -22 -2091
-2 -5 6 -22 59 -37 117 -156 595 -643 1037 -1250 1135 -116 19 -364 19 -480 0
-574 -93 -1049 -499 -1223 -1045 -16 -52 -33 -111 -37 -130 -4 -19 -19 -47
-33 -63 l-26 -27 -1011 0 c-1113 0 -1064 -3 -1195 63 -42 20 -90 57 -135 102
-117 117 -165 235 -166 402 0 223 132 425 338 514 55 24 203 53 214 42 4 -5
43 -75 87 -158 44 -82 83 -150 88 -152 8 -3 825 869 832 888 4 10 -769 9
-1023 -1z m3700 -660 c447 -50 861 -365 1034 -785 48 -116 48 -115 9 -115 -19
0 -60 -7 -93 -15 -205 -54 -338 -239 -322 -449 7 -89 34 -162 87 -232 68 -90
202 -164 297 -164 31 0 34 -2 28 -22 -19 -62 -116 -228 -186 -317 -167 -212
-428 -383 -687 -451 -217 -57 -524 -49 -732 19 -94 31 -280 125 -352 178 -177
131 -313 287 -404 469 -31 61 -54 116 -51 121 4 6 25 13 48 16 64 8 164 63
219 119 28 28 65 81 82 117 28 57 33 80 36 163 6 135 -22 217 -107 311 -70 78
-188 137 -273 137 -45 0 -46 -3 3 115 170 413 587 734 1020 784 106 12 240 12
344 1z m-1349 -1206 c128 -61 79 -254 -64 -254 -39 0 -39 0 -46 46 -11 83 -7
212 7 217 25 11 70 7 103 -9z m2468 -7 c17 -12 18 -25 14 -121 -3 -64 -10
-112 -17 -119 -19 -19 -103 -15 -135 6 -15 10 -37 39 -47 63 -26 57 -13 109
36 153 29 25 44 31 83 31 27 0 56 -6 66 -13z"/>
<path d="M4050 1505 l0 -415 50 0 50 0 2 332 3 332 55 -150 55 -149 49 0 50 0
55 153 56 154 3 -336 2 -336 50 0 50 0 0 415 0 415 -67 0 -68 0 -64 -180 c-36
-99 -66 -178 -68 -176 -2 2 -32 81 -67 177 l-63 174 -67 3 -66 3 0 -416z"/>
<path d="M4790 1505 l0 -415 50 0 50 0 0 205 0 205 140 0 140 0 0 -205 0 -205
50 0 50 0 0 415 0 415 -50 0 -50 0 0 -165 0 -165 -140 0 -140 0 0 165 0 165
-50 0 -50 0 0 -415z"/>
</g>
</svg>
