<?xml version="1.0" standalone="no"?>
<!DOCTYPE svg PUBLIC "-//W3C//DTD SVG 20010904//EN"
 "http://www.w3.org/TR/2001/REC-SVG-20010904/DTD/svg10.dtd">
<svg version="1.0" xmlns="http://www.w3.org/2000/svg"
 width="512.000000pt" height="512.000000pt" viewBox="0 0 512.000000 512.000000"
 preserveAspectRatio="xMidYMid meet">
<metadata>
Created by potrace 1.15, written by Peter Selinger 2001-2017
</metadata>
<g transform="translate(0.000000,512.000000) scale(0.100000,-0.100000)"
fill="#000000" stroke="none">
<path d="M699 5097 c-18 -12 -44 -38 -57 -57 -20 -30 -23 -45 -20 -100 4 -79
28 -119 91 -149 39 -19 61 -21 210 -21 l167 0 0 -289 c0 -159 5 -335 10 -392
19 -187 67 -353 152 -523 142 -287 320 -484 658 -734 76 -56 113 -116 130
-210 20 -113 -22 -252 -92 -306 -18 -14 -80 -60 -138 -103 -333 -247 -580
-600 -670 -958 -39 -155 -50 -286 -50 -617 l0 -288 -167 0 c-149 0 -171 -2
-210 -21 -63 -30 -87 -70 -91 -149 -3 -55 0 -70 20 -100 13 -19 39 -45 57 -57
l34 -23 1827 0 1827 0 34 23 c18 12 44 38 57 57 20 30 23 45 20 100 -4 79 -28
119 -91 149 -39 19 -61 21 -210 21 l-167 0 0 288 c0 332 -11 462 -50 619 -90
355 -338 709 -670 956 -58 43 -120 89 -138 103 -68 53 -113 195 -94 302 21
122 46 154 203 268 367 268 617 625 709 1016 30 131 40 268 40 579 l0 289 167
0 c149 0 171 2 210 21 63 30 87 70 91 149 3 55 0 70 -20 100 -13 19 -39 45
-57 57 l-34 23 -1827 0 -1827 0 -34 -23z m2968 -684 c-3 -327 -6 -365 -25
-441 -81 -311 -282 -584 -609 -826 -79 -59 -147 -118 -171 -149 -51 -66 -112
-192 -112 -232 0 -17 -5 -36 -11 -42 -6 -6 -14 -60 -16 -120 -7 -144 13 -247
72 -368 54 -111 97 -157 250 -270 313 -231 510 -498 593 -804 25 -93 26 -106
30 -452 l3 -356 -38 -6 c-50 -9 -2111 -9 -2153 -1 l-32 7 5 361 c4 355 4 363
30 454 88 307 282 568 592 797 66 49 139 109 163 134 59 63 127 206 148 311
21 108 16 297 -10 315 -10 8 -16 27 -16 54 0 52 -51 156 -112 229 -23 28 -99
93 -168 144 -338 249 -543 541 -609 865 -19 90 -21 138 -21 427 l0 326 1111 0
1111 0 -5 -357z"/>
<path d="M2387 3254 c-4 -4 -7 -90 -7 -191 l0 -183 180 0 180 0 -2 188 -3 187
-171 3 c-93 1 -173 -1 -177 -4z"/>
<path d="M2385 2028 c-7 -37 -3 -58 17 -110 l10 -28 144 0 c138 0 144 1 158
23 20 31 29 81 21 117 l-6 29 -169 3 -169 3 -6 -37z"/>
<path d="M2380 1245 l0 -115 195 0 195 0 0 115 0 115 -195 0 -195 0 0 -115z"/>
<path d="M1960 915 l0 -135 500 0 500 0 0 135 0 135 -500 0 -500 0 0 -135z"/>
<path d="M1660 570 l0 -140 800 0 800 0 0 140 0 140 -800 0 -800 0 0 -140z"/>
</g>
</svg>
