<?xml version="1.0"?>
<svg xmlns="http://www.w3.org/2000/svg" viewBox="0 0 32 32">
    <path style="text-indent:0;text-align:start;line-height:normal;text-transform:none;block-progression:tb;-inkscape-font-specification:Bitstream Vera Sans" d="M 20 4 C 18.354991 4 17 5.3549901 17 7 C 17 8.2920182 17.844255 9.3942822 19 9.8125 L 19 21.0625 C 19 23.804938 16.804938 26 14.0625 26 L 13.9375 26 C 11.195062 26 9 23.804938 9 21.0625 C 9 19.764928 9.4975714 18.518337 10.40625 17.59375 L 12 19.1875 L 12 13.1875 L 10.3125 14.875 L 9.03125 16.15625 L 9 16.1875 C 7.7162168 17.486663 7 19.235699 7 21.0625 C 7 24.886062 10.113938 28 13.9375 28 L 14.0625 28 C 17.886062 28 21 24.886062 21 21.0625 L 21 9.8125 C 22.155745 9.3942822 23 8.2920182 23 7 C 23 5.3549901 21.645009 4 20 4 z M 20 6 C 20.564129 6 21 6.4358709 21 7 C 21 7.5641291 20.564129 8 20 8 C 19.435871 8 19 7.5641291 19 7 C 19 6.4358709 19.435871 6 20 6 z" overflow="visible" font-family="Bitstream Vera Sans"/>
</svg>
