<?xml version="1.0" encoding="UTF-8"?>
<svg width="536px" height="765px" viewBox="0 0 536 765" version="1.1" xmlns="http://www.w3.org/2000/svg" xmlns:xlink="http://www.w3.org/1999/xlink">
    <!-- Generator: Sketch 52.6 (67491) - http://www.bohemiancoding.com/sketch -->
    <title>Group 14</title>
    <desc>Created with Sketch.</desc>
    <defs>
        <polygon id="path-1" points="0 0.574574353 806.329292 0.574574353 806.329292 765 0 765"></polygon>
        <polygon id="path-3" points="7.98857143 8.07714286 23.9228571 8.07714286 23.9228571 24.0114286 7.98857143 24.0114286"></polygon>
        <polygon id="path-5" points="9 765 814 765 814 0 9 0"></polygon>
    </defs>
    <g id="Pages" stroke="none" stroke-width="1" fill="none" fill-rule="evenodd" opacity="0.165922619">
        <g id="01-SaaS-Subscription" transform="translate(0.000000, -1290.000000)">
            <g id="Content-1" transform="translate(-271.000000, 1177.000000)">
                <g id="Group-14" transform="translate(407.000000, 500.000000) scale(-1, 1) translate(-407.000000, -500.000000) translate(0.000000, 113.000000)">
                    <g id="Group-3" transform="translate(7.000000, 0.000000)">
                        <mask id="mask-2" fill="white">
                            <use xlink:href="#path-1"></use>
                        </mask>
                        <g id="Clip-2"></g>
                        <path d="M428.253495,212.428794 C426.27044,213.200389 423.807614,212.653843 422.016467,214.132733 C422.240361,213.586186 422.400284,213.03964 422.496239,212.428794 C422.496239,212.300195 422.560208,212.171596 422.560208,212.075147 C423.03998,211.785798 423.58372,211.5286 424.063492,211.271402 C424.063492,211.239252 424.095477,211.207102 424.095477,211.207102 C424.191431,211.271402 424.223416,211.400001 424.351355,211.49645 C425.118989,211.978697 425.950592,212.235895 426.87815,212.268045 C429.820748,211.882248 432.763345,211.5929 435.41808,210.435508 C433.371056,211.785798 430.684336,211.914398 428.253495,212.428794 Z M413.508522,178.993018 C412.54898,179.153767 411.589437,179.346666 410.629894,179.571714 C410.629894,178.864419 410.406001,178.221423 409.92623,177.674877 C410.310047,177.803476 410.693864,177.867776 411.077681,177.867776 C411.14165,177.835626 411.20562,177.835626 411.237605,177.835626 C411.973254,178.639371 412.932797,178.896569 414.052263,178.76797 C414.148217,178.896569 414.276156,178.960869 414.372111,179.025168 C414.084248,178.993018 413.796385,178.960869 413.508522,178.993018 Z M395.341181,10.0137511 L395.40515,10.0137511 C395.373166,9.94945151 395.373166,9.91730172 395.309196,9.85300216 C395.437135,9.88515194 395.565074,9.88515194 395.693013,9.88515194 C397.452175,8.47056142 399.467214,7.8918653 401.738132,8.21336315 C403.817141,8.50271121 405.768211,8.40626185 407.207525,6.70232328 C407.23951,8.21336315 407.175541,9.69225323 407.271495,11.1711433 C403.401339,9.66010345 399.051412,13.1322802 395.341181,10.0137511 Z M382.131477,9.82085237 C381.267888,10.2387996 380.372315,10.624597 379.476742,11.0103944 C378.293306,11.1711433 376.790022,10.3352489 376.022388,11.9748879 C373.335669,12.5214343 370.297117,10.5602974 368.090169,13.4216282 C363.868181,12.3606853 359.550239,11.8462888 355.840007,14.7076196 C352.129775,17.6011002 348.25962,18.5655937 343.845723,17.0867037 C342.790227,15.543514 342.630303,13.8395754 342.662288,12.0713373 C345.860763,11.2354429 349.219163,11.814139 352.449623,11.4283416 C354.78451,11.1711433 357.087413,10.4959978 359.454284,10.4959978 C364.827723,10.4638481 370.041239,10.1102004 374.647044,6.92737177 C374.774983,6.70232328 374.870937,6.47727478 374.934906,6.28437608 L374.934906,6.31652586 C377.653611,7.34531897 380.820102,5.22343319 383.378882,7.4739181 C382.931095,8.27766272 382.547278,9.04925754 382.131477,9.82085237 Z M353.313211,30.2681153 C352.577562,30.2359655 351.841913,30.2359655 351.074278,30.2038157 C350.8184,29.8823179 350.562522,29.56082 350.306644,29.2071724 C350.306644,28.9178244 350.21069,28.6606261 350.114736,28.4355776 C350.306644,28.5963265 350.530538,28.7249256 350.786416,28.8535248 C351.809928,29.1107231 352.801455,29.0142737 353.792983,28.7570754 C353.697028,29.2393222 353.345196,29.7858685 353.313211,30.2681153 Z M344.453434,253.548369 C344.29351,253.451919 344.133586,253.32332 343.941678,253.25902 C338.920071,252.841073 334.218312,250.847787 329.22869,250.39769 C328.301132,250.461989 327.437544,250.622738 326.669909,251.040685 C325.774336,250.912086 324.910748,250.783487 324.047159,250.687038 C322.607845,250.044042 320.912653,250.076192 319.473339,249.465346 C316.978528,249.208148 314.483717,248.983099 313.012419,251.747981 C312.980434,251.84443 312.980434,251.90873 312.980434,252.005179 C312.916464,252.069478 312.82051,252.069478 312.756541,252.101628 C311.029364,252.680324 309.430126,253.644818 309.749973,255.638105 C309.909897,256.859796 311.413181,256.956246 312.596617,256.859796 C317.330361,258.370836 322.160059,259.110281 327.085711,259.174581 C327.341589,259.23888 327.565483,259.30318 327.757391,259.36748 L328.045254,259.36748 C328.045254,259.463929 328.045254,259.528228 328.109223,259.624678 C329.868385,261.714414 332.139303,261.843013 334.602129,261.200017 C334.666098,261.103568 334.794038,261.039268 334.826022,260.974969 C334.921977,261.039268 334.985946,261.103568 335.0819,261.167867 C334.666098,262.389559 334.666098,263.675551 334.666098,264.993692 C332.331211,263.932749 329.804416,264.865093 327.405559,264.865093 C319.313416,264.865093 310.645547,266.633331 305.719894,258.081488 C305.719894,257.631391 305.719894,257.213444 305.751879,256.699047 C305.432031,254.577162 304.920275,252.551725 303.385007,250.976386 C303.416992,250.944236 303.416992,250.912086 303.416992,250.847787 C312.180815,248.179355 320.912653,247.31131 330.124263,248.468703 C334.889992,249.079548 339.207934,251.973029 344.133586,251.201434 C344.229541,251.297884 344.35748,251.362183 344.453434,251.458633 L344.453434,251.490782 C344.101602,252.165928 344.101602,252.873223 344.453434,253.548369 Z M334.058388,33.9010409 C334.282281,35.0262834 335.14587,35.6049795 336.329306,36.0229267 C336.48923,35.9907769 336.553199,35.9907769 336.681138,35.9586272 C336.713123,36.4087241 336.745108,36.8266713 336.777092,37.2767683 C336.681138,37.2767683 336.553199,37.2446185 336.457245,37.3089181 C335.977473,37.6304159 335.657626,38.0805129 335.561672,38.6913588 C335.305794,38.4341606 335.049916,38.1126627 334.666098,37.9519138 C334.570144,37.8876142 334.41022,37.8554644 334.282281,37.7911649 C334.250297,36.7945216 334.122358,35.830028 333.13083,35.2191821 L333.13083,34.2868384 C333.450678,34.190389 333.770525,34.0296401 334.058388,33.9010409 Z M340.103507,214.357781 C339.431827,214.840028 338.984041,215.547323 338.664193,216.479667 C338.536254,216.929764 338.600223,217.315561 338.792132,217.669209 C338.088467,217.186962 337.224879,217.058363 336.361291,216.801165 C335.913504,216.672566 334.730068,217.154812 335.177855,215.933121 C335.305794,215.611623 336.201367,215.611623 336.777092,215.450874 C337.896559,215.097226 338.984041,214.679279 340.103507,214.357781 Z M190.574772,670.691822 C183.921943,667.283945 177.429038,663.55457 171.991629,658.314155 C171.032086,657.446111 169.976589,656.803115 168.857123,656.449468 C169.592772,656.288719 170.392391,656.320869 171.223995,656.417318 C171.639797,656.385168 172.087583,656.353018 172.4714,656.288719 C175.286059,657.992657 178.100717,659.664446 180.883391,661.336235 C183.218278,665.09776 189.903092,663.908218 190.446833,669.727329 C190.382864,670.113126 190.702711,670.466774 190.862635,670.884721 C190.734696,670.820421 190.670727,670.756122 190.574772,670.691822 Z M801.355675,367.358606 C800.939873,363.822129 801.579568,359.835556 797.773382,357.520772 C797.773382,357.231423 797.677428,356.909926 797.517504,356.620578 C797.581473,355.045238 797.741397,353.469899 797.645443,351.894559 C795.886281,327.557172 790.800705,303.830631 784.467723,280.361289 C780.181766,264.382846 775.575961,248.533002 768.059544,233.679802 C765.404809,225.481607 761.886486,217.701359 757.152742,210.564107 C756.321138,206.931181 754.466022,203.844802 752.323044,200.919171 C751.971211,200.211876 751.683348,199.536731 751.331516,198.797286 C749.220522,195.292959 748.836705,190.66339 744.934565,188.187857 C743.62319,187.255513 744.038992,185.744473 743.751129,184.490631 C743.271358,181.79005 742.247845,179.378816 740.072882,177.546278 C739.369217,176.613934 738.633568,175.681591 737.993873,174.749247 C737.03433,171.27707 736.298681,167.611995 733.004251,165.36151 C732.588449,164.911413 732.140663,164.461316 731.724861,164.011219 C732.044708,161.085588 729.933714,159.478099 728.302492,157.613412 C727.726766,154.044786 725.519818,151.247754 723.696687,148.322124 C719.026913,139.770281 716.244239,130.125346 709.143623,123.020244 C706.488888,116.847485 701.723159,112.732312 695.933919,109.678083 C693.18323,107.781246 691.008266,105.080664 687.457958,104.405518 C680.421312,102.926628 673.832452,100.161747 667.179623,97.5254644 C665.644355,95.7572263 663.789239,94.5355345 661.454352,94.0532877 C657.264348,90.2274634 651.315184,92.1564504 646.773348,89.4237187 C642.199528,84.1190043 636.506242,80.3896293 630.397153,77.2389504 C629.661504,74.6348179 627.902342,73.5417252 625.343562,73.4774256 C624.895775,73.1880776 624.447989,72.8665797 624.000202,72.6093815 C623.616385,72.1592845 623.232568,71.7413373 622.816766,71.3233901 C617.443327,65.4078297 610.790498,61.3569569 603.785836,57.8204806 C601.706827,55.6985948 599.403925,54.1232554 596.621251,53.2230614 C590.2243,49.107889 583.827348,44.9927166 577.398413,40.8775442 C576.566809,40.2345485 575.735205,39.5272532 574.903602,38.8842575 C571.321309,35.4442306 567.419169,32.4543006 563.101227,29.9466175 C562.717409,29.6251196 562.365577,29.3036218 561.949775,28.9499741 C561.501989,28.6284763 561.086187,28.2748287 560.670385,27.9533308 C557.887711,24.4811541 554.081525,22.8093653 549.891522,21.8448718 C549.795568,22.0056207 549.699614,22.1342198 549.603659,22.2949687 C549.603659,22.262819 549.571675,22.262819 549.571675,22.262819 L549.891522,21.8448718 C548.963964,18.1154968 545.925413,17.5368006 542.790906,16.9581045 C536.202047,10.7210463 527.374254,10.2066498 519.218141,8.75990948 C514.036611,7.8918653 508.407294,5.25558297 503.033855,8.63131034 C498.651943,8.66346013 494.270031,8.69560991 489.88812,8.7277597 C489.568272,8.59916056 489.248425,8.53486099 488.928577,8.59916056 C481.476129,6.09147737 473.863757,4.86978556 466.059477,4.96623491 C460.046342,2.71575 453.617406,2.55500108 447.412364,2.13705388 C436.473577,1.33330927 425.470821,-0.531378233 414.468065,1.42975862 C408.870733,0.111617457 403.2734,1.36545905 397.676068,1.36545905 C379.476742,1.30115948 361.469324,3.16584698 343.845723,7.44176832 C340.967095,7.4739181 337.960528,6.54157435 335.401748,8.63131034 C333.066861,8.98495797 330.50808,8.14906358 328.461056,10.0137511 C325.582428,10.8174957 322.735784,11.6212403 319.889141,12.4249849 C316.72265,11.9748879 314.067916,13.2608793 311.54112,14.9005183 C307.319132,15.3184655 303.161114,15.9614612 299.546836,18.4048448 C297.243934,18.5012942 295.420803,19.722986 293.533702,20.8482284 C287.584538,22.3271185 281.923236,24.6097532 276.77369,28.0176304 C272.551702,28.9178244 269.129333,31.2004591 265.930858,33.9653405 C263.532001,35.3156315 261.03719,36.5051735 258.702303,37.9840636 C248.019394,44.7676681 235.865187,49.1721886 226.33373,57.8204806 C222.719452,59.0743222 220.896321,62.0642522 219.041205,65.0863319 C219.201129,65.2470808 219.425022,65.4078297 219.616931,65.5364289 L219.616931,65.5685787 C219.425022,65.4078297 219.201129,65.2470808 219.041205,65.0863319 C217.377998,66.4044731 215.84273,67.754764 215.426928,70.0052489 C215.10708,70.4231961 214.787233,70.8411433 214.467385,71.2590905 C211.972574,73.0594784 210.917077,75.5350119 210.853108,78.5249418 C208.166388,86.3694892 202.888903,92.6065474 197.995236,99.0686541 C197.099663,100.226046 196.172105,101.383439 195.276531,102.508681 C191.854163,105.177113 188.687672,108.102744 186.800571,112.153616 L186.864541,112.153616 C184.945455,113.15026 183.538126,114.597 183.02637,116.783185 C183.186294,116.943934 183.378202,117.072533 183.570111,117.201133 L183.538126,117.201133 C183.410187,117.040384 183.250263,116.911784 183.02637,116.783185 C182.322705,117.715529 181.555071,118.615723 180.883391,119.548067 C173.590867,129.48235 173.239034,141.699268 169.880635,152.919543 C166.810098,157.80631 163.675592,162.693078 160.509102,167.611995 C159.165742,169.79818 157.886352,171.984365 156.574977,174.2027 C149.410391,186.355319 142.469699,198.604387 137.76794,211.978697 C136.136717,215.000777 133.513967,217.604909 133.897784,221.462884 C131.91473,223.006073 130.699309,225.03151 130.411446,227.571343 C127.308925,233.776251 124.558236,240.109759 123.406784,247.021962 C115.634489,259.399629 114.7709,273.834883 112.084181,287.62714 C110.676852,294.892991 107.734254,299.715459 101.593181,303.026887 C99.993943,303.862781 98.5866137,304.923724 97.0833302,305.856068 C89.8547753,309.360394 85.6647723,316.079699 80.3553027,321.609462 C76.1652997,325.435287 71.7833881,329.036062 68.2970497,333.537032 C62.0600223,336.91276 62.6997174,344.435809 58.8615466,349.290427 C54.5436046,348.77603 53.1362753,351.444462 52.656504,355.109538 C51.2171899,355.623934 49.7139064,355.720384 48.2426076,355.045238 C48.3385619,354.72374 48.3065771,354.434392 48.1466534,354.112894 C48.850318,350.737167 43.604818,350.447819 44.4684064,346.943492 C44.8842082,346.171898 45.3000101,345.400303 45.6838271,344.628708 C47.7308515,344.114311 49.7458912,343.599915 50.6734491,341.34943 C53.6480314,338.680998 52.4965802,337.105658 49.3300893,335.980416 C44.1165741,330.707851 41.9416107,330.707851 37.1119125,336.044716 C35.2567966,337.812954 33.3377113,339.516892 31.4825954,341.34943 C24.6058729,348.325933 21.6952601,357.68152 17.4093027,366.169064 C11.6200619,377.517937 5.09517165,388.673913 4.77532409,401.983923 C4.58341555,402.305421 4.48746128,402.594769 4.51944604,402.884117 C-0.0863588415,417.512269 -2.35727652,432.172571 3.5279186,447.090071 C3.78379665,446.961472 3.94372043,446.736423 4.10364421,446.511375 L4.10364421,446.543525 C3.91173567,446.736423 3.71982713,446.929322 3.5279186,447.090071 C3.78379665,449.308406 4.10364421,451.526741 6.05471433,453.005631 C6.11868384,453.359279 6.21463811,453.680777 6.40654665,453.937975 C6.79036372,455.770513 7.2381503,457.538751 8.51754055,458.953342 C13.8270101,469.65922 17.9850284,480.783045 21.7912143,492.164069 C27.6764095,509.717851 34.297254,527.014435 43.1570314,543.346526 C44.1165741,545.532711 44.8202387,547.879645 46.0356595,549.905082 C51.7929155,559.614317 55.1832997,570.898891 64.7467418,578.100443 C66.0581168,580.543827 68.1371259,582.054866 70.6959064,583.05151 L70.6959064,582.98721 C74.7579704,587.841828 79.0439277,592.439247 84.9930924,595.075529 C88.6073698,598.708455 92.1576777,602.34138 95.8039399,605.974306 C101.209364,613.272307 106.90265,620.31311 113.747388,626.29297 C120.272278,633.558821 126.381367,641.274769 135.337098,645.71144 C136.520534,646.836682 137.70397,647.994074 138.919391,649.151467 C140.9984,651.627 142.821531,654.327582 146.115961,655.356375 C150.465888,660.403891 156.511007,663.233072 161.692538,667.187496 C162.971928,668.891434 164.315288,670.370324 166.458266,670.94902 C168.377352,673.263805 170.968117,674.485497 173.622852,675.642889 C174.646364,677.604026 176.181632,678.922167 178.420565,679.468713 C181.74698,682.201445 185.201333,684.773428 189.263397,686.445217 C190.958589,688.374204 192.397903,690.785437 195.308516,691.267684 C205.607608,699.36943 216.322501,706.699581 229.852053,708.146321 C237.016638,711.071952 243.317635,715.476472 250.098403,719.045098 C251.88955,720.716887 253.680696,722.388676 256.239477,722.710173 C257.039095,723.095971 257.80673,723.481768 258.606348,723.803266 C260.045663,726.021601 262.156656,727.146844 264.779406,727.371892 C288.256217,740.038907 312.980434,749.458794 338.792132,756.306698 C340.135492,756.981844 341.542821,757.978487 343.01412,758.203536 C357.119397,760.55047 371.000781,764.119096 385.457891,763.958347 C398.379733,763.797598 411.365544,763.4761 424.223416,764.633492 C448.563815,766.691079 470.505358,760.100373 491.135525,747.883455 C493.630336,748.172803 495.517437,746.693913 496.828812,745.086423 C502.714007,737.627673 511.573784,735.21644 519.537989,731.229866 C521.808906,730.136774 524.495626,729.783126 526.062879,727.468342 C528.269827,726.503848 530.57273,725.732253 532.619754,724.607011 C548.708086,715.926569 564.892373,707.342577 580.852766,698.372787 C588.593077,694.032566 596.14148,689.370847 601.38698,681.783498 C607.783931,674.389047 612.293781,665.515707 619.650275,658.860702 C623.456461,656.481617 625.983257,652.687943 630.077306,650.341009 C640.376397,644.586197 650.131748,637.770443 660.079007,631.404786 C667.627409,628.414856 673.320696,622.660044 679.685663,617.998325 C695.198269,606.488703 708.887745,592.953643 721.329815,578.164742 C725.775696,574.531817 729.294019,569.998697 732.780358,565.497727 C738.249751,558.328325 744.870595,551.994818 748.740751,543.603724 C752.514952,541.031741 753.634419,536.562921 755.937321,532.994295 C762.814044,522.577765 770.074583,512.289834 773.880769,500.137216 C776.311611,497.211585 777.814894,493.707259 779.222223,490.170782 C791.280477,460.528681 799.340635,429.600588 805.22583,398.190249 C807.208885,387.805869 806.857053,377.09999 801.355675,367.358606 Z" id="Fill-1" fill="#FCE0D5" mask="url(#mask-2)"></path>
                    </g>
                    <g id="Group-6" transform="translate(0.000000, 742.000000)">
                        <mask id="mask-4" fill="white">
                            <use xlink:href="#path-3"></use>
                        </mask>
                        <g id="Clip-5"></g>
                        <path d="" id="Fill-4" fill="#FCE0D5" mask="url(#mask-4)"></path>
                    </g>
                    <path d="M93.5155,439.5 L93.4845,439.5 L93.5155,439.5 Z" id="Fill-7" fill="#FCE0D5"></path>
                    <mask id="mask-6" fill="white">
                        <use xlink:href="#path-5"></use>
                    </mask>
                    <g id="Clip-10"></g>
                    <polygon id="Fill-9" fill="#F36D39" mask="url(#mask-6)" points="454.4845 229.5165 454.5155 229.5165 454.5155 229.4835 454.4845 229.4835"></polygon>
                    <path d="" id="Fill-11" fill="#F36D39" mask="url(#mask-6)"></path>
                    <path d="" id="Fill-12" fill="#F36D39" mask="url(#mask-6)"></path>
                    <path d="" id="Fill-13" fill="#F36D39" mask="url(#mask-6)"></path>
                </g>
            </g>
        </g>
    </g>
</svg>