<?xml version="1.0" encoding="UTF-8"?>
<svg width="1166px" height="224px" viewBox="0 0 1166 224" version="1.1" xmlns="http://www.w3.org/2000/svg" xmlns:xlink="http://www.w3.org/1999/xlink">
    <!-- Generator: Sketch 52.6 (67491) - http://www.bohemiancoding.com/sketch -->
    <title>Rectangle</title>
    <desc>Created with Sketch.</desc>
    <defs>
        <path d="M71.9446049,8.90837586e-14 L1112.95762,-2.84217094e-14 C1147.19927,-3.47117993e-14 1174.95762,27.7583455 1174.95762,62 C1174.95762,65.5369734 1174.65495,69.0674602 1174.05293,72.5528234 L1156.91451,171.775314 C1151.72863,201.798844 1125.49655,223.604862 1095.0309,223.217479 L91.144549,210.452669 C62.5799449,210.089459 37.9608583,190.255931 31.5261722,162.423156 L11.5379374,75.9654759 C3.82501799,42.6037947 24.6174477,9.30625184 57.979129,1.59333247 C62.5588378,0.534545166 67.2440982,1.00339452e-13 71.9446049,9.9475983e-14 Z" id="path-1"></path>
    </defs>
    <g id="Pages" stroke="none" stroke-width="1" fill="none" fill-rule="evenodd">
        <g id="01-SaaS-Subscription" transform="translate(-365.000000, -4229.000000)">
            <g id="CTA" transform="translate(310.000000, 4173.000000)">
                <g id="BG" transform="translate(48.000000, 56.000000)">
                    <mask id="mask-2" fill="white">
                        <use xlink:href="#path-1"></use>
                    </mask>
                    <use id="Rectangle" fill="#0C39F8" transform="translate(591.065470, 111.571886) scale(-1, 1) translate(-591.065470, -111.571886) " xlink:href="#path-1"></use>
                </g>
            </g>
        </g>
    </g>
</svg>