<?xml version="1.0" encoding="UTF-8"?>
<svg width="115px" height="161px" viewBox="0 0 115 161" version="1.1" xmlns="http://www.w3.org/2000/svg" xmlns:xlink="http://www.w3.org/1999/xlink">
    <!-- Generator: Sketch 52.6 (67491) - http://www.bohemiancoding.com/sketch -->
    <title>Group 33</title>
    <desc>Created with Sketch.</desc>
    <defs>
        <polygon id="path-1" points="0.000877549828 0.357 11.1414726 0.357 11.1414726 12.0483105 0.000877549828 12.0483105"></polygon>
        <polygon id="path-3" points="0.246369508 0.868973133 12.2212992 0.868973133 12.2212992 13 0.246369508 13"></polygon>
    </defs>
    <g id="Pages" stroke="none" stroke-width="1" fill="none" fill-rule="evenodd">
        <g id="01-SaaS-Subscription" transform="translate(-310.000000, -4173.000000)">
            <g id="CTA" transform="translate(310.000000, 4173.000000)">
                <g id="Group-33">
                    <path d="M44.9357953,14.9421122 C44.0321883,13.8749537 42.7224146,13.7993634 41.4080772,14.2929242 C40.632253,14.6575366 39.8062284,14.9376658 39.1810054,15.5557284 C38.2454527,17.2987539 36.7485685,18.8105618 37.0360798,21.0604877 C37.3464094,23.4704873 39.1718781,24.6087897 41.0749291,25.4358375 C42.174774,25.9293983 44.064134,26.5252285 44.7395574,25.1601549 C45.3875988,23.8484392 46.3231515,22.6523324 46.7521366,21.2339009 C47.5005788,18.7483109 46.455498,16.7384957 44.9357953,14.9421122" id="Fill-1" fill="#2A2A2A"></path>
                    <path d="M26.0014265,59.6162224 C26.6747466,58.8130425 26.0552921,58.1794228 25.7051657,57.5234926 C25.8173857,57.3985535 25.8084081,57.2870008 25.6782329,57.1799101 C25.0902001,55.9082087 24.1385744,55.0024003 22.8458,54.4490986 C22.5091399,54.0385845 22.1724799,53.6325325 21.8358199,53.2175562 C21.8043983,52.9453675 21.8762191,52.521467 21.7235999,52.4188385 C19.8472814,51.1337507 18.1729589,49.2908992 15.4662124,50.2814876 C14.4517435,50.6518428 13.3654538,50.9463421 12.2342762,50.8035545 C8.31555357,52.4366869 4.93099819,54.6766663 3.1803661,58.7550351 C0.478108354,63.8953861 2.78086288,69.5176451 6.40332467,73.319363 C9.41979843,76.4785371 13.405853,76.1394167 17.068714,75.7645995 C19.1874278,75.5459561 21.8807079,74.9658817 23.047796,72.4135546 C25.6782329,70.1512647 26.3021761,66.9117727 26.8498098,63.8061439 C27.0293618,62.8334039 27.2313578,61.2270442 26.2662657,60.1427514 C26.1809785,59.964267 26.0912025,59.7902447 26.0014265,59.6162224" id="Fill-3" fill="#2A2A2A"></path>
                    <path d="M18.4975,58.5 L18.5025,58.5 L18.4975,58.5 Z" id="Fill-5" fill="#2A2A2A"></path>
                    <path d="M27.6876054,29.3718688 C27.3820951,29.2138987 27.1917046,28.9521196 27.0633017,28.6361794 C27.1784215,28.6181257 27.2935414,28.5729914 27.3998058,28.5143167 C27.4485104,28.7715824 27.5636302,29.0017674 27.7451653,29.2048718 C27.7230269,29.259033 27.7053162,29.3131942 27.6876054,29.3718688 M33.532151,24.0008848 C32.8724258,22.457291 31.9293286,20.5751899 30.2069588,21.0852077 C28.4801612,21.6042524 26.0272232,21.6674404 25.3852087,24.1137206 C25.0929814,25.246592 25.1195475,26.4561918 25,27.6251706 C25.9076756,30.4641194 27.5724856,31.5699102 29.6800641,30.721385 C31.2651757,30.784573 31.9558947,29.3854091 33.0185394,28.6045854 C33.6339878,27.8869497 34.3335621,27.1963946 33.8243783,26.1041441 C33.6826923,25.4090755 34.2848576,24.6056846 33.532151,24.0008848" id="Fill-7" fill="#2A2A2A"></path>
                    <g id="Group-11">
                        <mask id="mask-2" fill="white">
                            <use xlink:href="#path-1"></use>
                        </mask>
                        <g id="Clip-10"></g>
                        <path d="M6.13386667,11.2929 C6.39986667,11.3064 6.64253333,11.2794 6.7172,10.9644 C8.42986667,10.9059 9.15786667,9.6684 9.9372,8.4759 L9.93253333,8.4804 C11.6405333,7.1124 11.0665333,5.2944 10.9778667,3.5664 C9.94653333,1.4469 8.4112,0.1734 5.78386667,0.3759 C3.69786667,0.5334 1.8172,0.8844 0.846533333,2.9499 C-0.343466667,4.7499 -0.110133333,6.6309 0.524533333,8.5299 C0.4872,9.1374 0.6132,9.6999 0.944533333,10.2174 C2.1532,12.1299 4.6452,12.6384 6.13386667,11.2929" id="Fill-9" fill="#2A2A2A" mask="url(#mask-2)"></path>
                    </g>
                    <path d="M92.586194,110.357407 C89.237143,109.285857 86.5350177,110.654076 85.2675713,114.054696 C84.211366,116.33506 86.4734057,118.836819 88.7090403,119.948219 C89.6728277,120.426432 94.3993465,117.4686 94.8966432,116.1668 C95.4247458,114.789726 93.8184336,110.747061 92.586194,110.357407" id="Fill-12" fill="#B9D5ED"></path>
                    <g id="Group-16" transform="translate(64.000000, 148.000000)">
                        <mask id="mask-4" fill="white">
                            <use xlink:href="#path-3"></use>
                        </mask>
                        <g id="Clip-15"></g>
                        <path d="M10.1220667,2.41553333 C8.17606667,0.2082 4.4754,0.385533333 1.93206667,2.80753333 L1.9694,2.79353333 C-0.443266667,4.72553333 0.392066667,7.39953333 0.364066667,9.87286667 C0.536733333,10.7455333 1.2974,10.6335333 1.90406667,10.7828667 C2.14206667,11.1655333 2.38473333,11.5482 2.62273333,11.9308667 C3.47206667,13.1535333 4.7554,12.9948667 5.98273333,12.9948667 C6.3234,12.8082 6.66873333,12.6262 7.0094,12.4302 C9.25873333,12.8642 10.7987333,11.6835333 11.6014,9.86353333 C12.4927333,7.84753333 12.7447333,4.1002 10.1220667,2.41553333" id="Fill-14" fill="#B9D5ED" mask="url(#mask-4)"></path>
                    </g>
                    <path d="M113.091389,58.0699511 C111.505678,57.6236591 107.649945,59.4043642 107.130813,60.8146468 C106.555049,62.3811317 107.970863,65.2641779 109.599049,65.8354316 C111.420729,66.4736291 113.973913,65.1793824 114.644064,63.2692527 C115.484114,60.8905165 114.785646,58.5519465 113.091389,58.0699511" id="Fill-17" fill="#B9D5ED"></path>
                    <path d="M73.702597,66.7100773 C70.7404604,67.8177795 70.1489719,70.1488477 72.2473476,72.4710187 C72.6886168,72.7690751 73.1251916,73.0715801 73.5664608,73.3740852 C75.9934412,75.0556572 77.4111358,72.9425706 78.664528,71.7903824 C79.8193388,70.7182689 80.8145416,68.9610706 79.0072158,67.3551248 C77.4486906,65.6379639 75.6366704,65.7046929 73.702597,66.7100773" id="Fill-19" fill="#B9D5ED"></path>
                    <path d="M100.237036,89.1037278 C98.398404,88.6207631 96.3716769,89.8565847 95.280724,92.1388299 C94.5283428,93.7108328 95.3653669,96.7696096 96.8748319,97.9486118 C97.3027488,99.1512887 98.1115586,99.2317828 99.0661424,98.6446492 C99.9831071,98.0764554 100.853048,97.4325024 101.746501,96.8169591 C101.737096,96.7648746 101.713584,96.726995 101.694775,96.6891155 C101.704179,96.6938504 101.718286,96.6938504 101.727691,96.6985854 L101.746501,96.8169591 C103.354716,97.0537065 103.801442,95.8604995 103.970728,94.7193769 C104.27168,92.583915 102.19793,89.6245722 100.237036,89.1037278" id="Fill-21" fill="#B9D5ED"></path>
                    <path d="M59.2361393,56 C59.7903288,55.8956334 60.340049,55.7869183 60.8897692,55.6825517 C62.7177005,56.1869901 62.9947953,54.2866488 62.9813875,53.7126326 C62.941164,52.2732437 63.388091,50.3815996 61.4797128,49.5640614 C60.4339037,49.1118063 59.3121169,48.550836 58.1947995,49.5858045 C56.9523424,50.7381854 55.5489917,51.7861997 56.1389353,53.7517701 C56.5858623,55.2346451 57.7523417,55.8434501 59.2361393,56" id="Fill-23" fill="#B9D5ED"></path>
                    <path d="M65.0464761,130.82005 C66.9175243,131.467463 67.5916201,129.666389 67.8292821,128.459183 C68.0755864,127.159489 68.2743583,125.21725 66.7792482,124.384862 C65.2020367,123.508664 63.4174111,124.224226 62.6093603,125.567729 C61.8445207,126.847952 61.550684,128.931357 63.2402449,130.226183 C63.7717435,130.703224 64.264352,131.306827 65.0464761,130.82005" id="Fill-25" fill="#B9D5ED"></path>
                    <path d="M87.481186,86.603433 C89.241186,87.123433 89.651186,85.493433 90.506186,84.733433 C90.796186,83.648433 90.836186,82.698433 89.656186,82.393433 C88.246186,82.023433 87.096186,82.743433 86.606186,83.953433 C86.241186,84.833433 85.976186,86.158433 87.481186,86.603433" id="Fill-27" fill="#B9D5ED"></path>
                    <path d="M88.8182712,143.028861 C88.0232712,142.788861 87.2682712,142.748861 87.0632712,143.743861 C86.8482712,144.788861 87.5432712,145.563861 88.2982712,145.973861 C89.2282712,146.478861 89.5432712,145.503861 89.8232712,144.853861 C90.2482712,143.868861 89.7482712,143.313861 88.8182712,143.028861" id="Fill-29" fill="#B9D5ED"></path>
                    <path d="M67.9905667,110.4881 C71.9986169,106.998685 72.9387768,102.015746 73.7799725,97.2364691 C74.0408781,95.747471 74.3512659,93.2763677 72.8847963,91.6018105 C72.7498451,91.3302607 72.6193923,91.0632367 72.4844411,90.7962127 C73.5055718,89.5516094 72.5609135,88.5966593 72.0346039,87.5783475 C72.2010437,87.3837368 72.1875485,87.2072294 71.9986169,87.0488253 C71.0944439,85.0891409 69.6549646,83.699711 67.6846773,82.8398032 C67.1718628,82.2152387 66.6635467,81.5816225 66.1552306,80.9525321 C66.1057485,80.527104 66.2137094,79.8753845 65.9887908,79.7215062 C63.1278257,77.7482443 60.586245,74.9105487 56.4702339,76.4312277 C54.927292,76.9969565 53.2763892,77.4585911 51.5580107,77.2413513 C45.5976667,79.7531871 40.4560266,83.1973438 37.7929899,89.4656186 C33.6859755,97.372244 37.1902079,106.030157 42.6962163,111.873004 C47.2800582,116.738271 53.3393664,116.213275 58.9038536,115.638495 C62.1201901,115.303583 66.2182078,114.407469 67.9905667,110.4881" id="Fill-31" fill="#B9D5ED"></path>
                </g>
            </g>
        </g>
    </g>
</svg>