<svg xmlns="http://www.w3.org/2000/svg" width="176" height="150" viewBox="0 0 176 150"><g><g clip-path="url(#clip-572F8D8C-EFAA-4F32-94F7-499823B9D5FC)"><path fill="#ffe030" d="M173.642.333c.636-.725 1.363.21 2.014-.11.065.09.13.185.2.28-.145.5-.49.829-.942 1.064l-.02.12-.11.05c-.13.774-1.403 1.418-.17 2.367.325.25-.115.715-.411.994-.46.43-.917.86-1.378 1.29-.716 1.063-1.057 2.272-1.322 3.501.095.66-.306 1.14-.596 1.649-.236.08-.471.154-.712.234-.105.19-.215.38-.326.565-.105.53-.285.984-.911 1.059 0 .005-.005.01-.01.01.075.065.095.16.075.3-.566.544-1.132 1.094-1.689 1.648-1.047.665-1.553 1.943-2.77 2.413-.541.23-1.157.22-1.698.5-.406.35-.887.584-1.373.779-.185.13-.376.274-.521.45-.205.414-.516.739-.902.998a5.498 5.498 0 0 0-.42.345c-.717.405-1.438.8-2.3.754h-.01a1.413 1.413 0 0 1-.13-.174c-1.038.664-2.23 1.069-3.212 1.823-.4.28-.811.53-1.257.72-1.107.324-1.894 1.198-2.901 1.698-.561.26-1.147.484-1.663.834-.546.375-1.112.73-1.613 1.169-.146.414-.521.72-.822 1.064.095-.055.195-.105.306-.14.54-.36 1.032-.79 1.703-.89.04 0 .085.006.13.01.08-.209.286-.284.526-.324.892-.185 1.458-1.049 2.405-1.129.04.015.07.03.11.055 1.218-.974 2.8-1.169 4.153-1.868.025-.005.055-.015.086-.025.015-.864.61-1.01 1.307-1.024-.436.35-.867.68-1.292 1.019.576-.175 1.102-.545 1.748-.475 1.468-.71 2.775-1.718 4.374-2.168.1-.065.205-.125.305-.195.456-.314.922-.634 1.378-.954.937-.68 1.874-1.358 2.81-2.043.05.744-1.137.954-.801 1.824l-.14.09-.136.1c-.681-.066-1.102.489-1.663.699l-.12.115-.156.075a.308.308 0 0 0-.24.02c.075-.006.155-.015.24-.02-.37.27-.746.539-1.117.804-1.508 1.194-3.016 2.393-4.519 3.582-.466.09-.786.484-1.247.594-1.107.8-2.26 1.534-3.266 2.438.851.07 1.372-.185 1.838-.585.551-.25 1.092-.494 1.638-.744.18-.16.351-.32.526-.48.256-.035.511-.075.767-.12.48-.304.957-.609 1.433-.909h.496c.08.705-.667.75-.932 1.16-.977.794-1.829 1.758-3.116 2.102-.11-.03-.186-.09-.22-.17 0 .006-.016.01-.02.015-.928.845-1.884 1.644-3.072 2.109l-.145.035-.105.104c-.902.25-1.513.975-2.295 1.434-.3.2-.486.55-.841.705-.351.16-.717.25-1.078.354-.275.14-.546.285-.806.44-.296.255-.596.504-.897.75.175-.106.35-.19.541-.266.601-.165 1.132-.504 1.714-.739.145-.055.295-.11.44-.16a.856.856 0 0 1 .566-.185c.1-.06.196-.125.291-.19.155.025.316.05.476.07.376-.27.751-.54 1.132-.804.882.045 1.228-1.149 2.144-1.019l.03-.06.557-.404c.36-.06.721-.12 1.578-.27-1.198.844-2.03 1.433-2.866 2.018-.676.285-1.127 1.009-1.954 1.009-.456.285-.917.564-1.377.854-.557.395-1.113.775-1.664 1.17-.2.329-.691.464-.656.953.822-.2 1.733-.155 2.38-.844.576-.185.901-.86 1.593-.814.48-.275.972-.555 1.443-.83.16 0 .315.006.47.016.18-.125.371-.25.562-.375.486-.335.977-.66 1.452-.99.176.026.346.04.517.066.47-.305.796-.92 1.507-.725-.465.315-.926.62-1.397.935-.461.344-.932.694-1.403 1.054-.085.08-.175.16-.26.24a1.097 1.097 0 0 1-.096-.15c-.335.524-.922.714-1.403 1.029-.225.44-.67.25-1.017.35-.255.224-.516.439-.776.664-.366.48-.792.894-1.448.919l.02.01c-.987.265-1.608 1.004-2.244 1.723-1.393.69-2.676 1.509-3.798 2.598-.135.155-.28.285-.436.414-.275.2-.556.4-.826.6.831-.31 1.428-1.164 2.4-1.174.425-.315.871-.61 1.317-.904.326-.2.641-.4 1.007-.41.04-.045.075-.09.105-.135.236-.29.496-.53.792-.739a3.3 3.3 0 0 1 .942-.485c.335-.114.671-.194 1.012-.3.962-.309 1.668-1.043 2.505-1.568.4-.275.816-.55 1.272-.724.065-.025.125-.06.19-.08.271-.55.817-.844 1.303-1.154 1.593-1.014 2.916-2.458 4.8-3.007a.497.497 0 0 1 .17-.01c-.07-.02-.11-.06-.1-.11a.15.15 0 0 1 .05-.105c.977-.49 1.393-1.714 2.58-1.903-.486 1.054-1.388 1.728-2.25 2.447-.29 1.679-1.983 1.974-2.95 2.973 0-.005.005-.01.005-.015-1.493 1.563-3.257 2.752-5.21 3.666-1.484 1.02-2.982 2.038-4.47 3.053-.22.35-.51.35-.816.234-.256.165-.516.335-.772.495-.626.265-.345.989-.716 1.379-.27.06-.536.114-.797.174-.35.235-.68.475-1.027.72-.075.305-.155.614-.225.924-.641.195-1.283.4-1.919.6a.799.799 0 0 0-.14.2c-.11.11-.23.204-.366.289-.055.03-.115.07-.18.1-.842.959-1.909 1.653-2.976 2.348-.19.13-.386.254-.581.394-.24.05-.486.095-.727.145-.47.345-.931.7-1.402 1.044-5.246 2.933-9.524 7.274-14.744 10.26-.236.066-.471.136-.707.206h.005a881.963 881.963 0 0 0-4.594 3.551c-.601.09-.967.53-1.373.935-.265.274-.566.514-.916.424-.02.025-.035.05-.05.075-.516.65-1.027 1.299-1.629 1.868.13.02.26.04.391.055.1-.02.19-.055.28-.1.948-.679 1.89-1.353 2.836-2.033l.476.06c.145 0 .21.035.21.12-.004.075-.024.12-.06.15l-3.106 2.183c-.27.205-.536.41-.806.605-.04.164-.085.33-.13.5-.792.434-1.423 1.178-2.405 1.288-.917.544-1.628 1.444-2.78 1.588-2.731 2.778-5.952 4.746-9.74 5.74-.215.06-.44.155-.596.31-3.617 3.437-7.94 5.944-11.959 8.842-5.891 4.256-11.888 8.357-17.845 12.528-.26.25-.496.55-.901.565-2 2.433-4.394 4.46-7.03 6.14-.59.379-.826 1.513-1.883 1.118-.095.2-.005.495-.316.57-2.82 2.403-5.556 4.855-9.253 6.024-2.735.854-4.599 3.107-6.528 5.146a9.167 9.167 0 0 1-3.206 2.572 3.2 3.2 0 0 1-1.067.445c-2.024 1.279-4.103 2.468-5.832 4.141l-3.14 2.643c-5.306 5.764-11.173 10.915-17.375 15.695-.45.355-.857.77-1.283 1.154-.776 1.918-2.615 2.833-4.143 3.892-2.535 1.748-4.729 3.931-7.35 5.535l-.054-.025c-.005.005-.01.005-.01.01l.065.015c-.742 1.139-2.09 1.438-3.071 2.223a2263.322 2263.322 0 0 0-6.453 5.265c-2.775 2.188-5.536 4.386-8.321 6.564-1.032.8-2.14 1.463-3.387 1.878-.065.025-.13.05-.195.065-1.233.764-2.56 1.054-3.988.78-.947.184-1.824-.12-2.72-.335h-.006c-.345.154-.676.11-.957-.14-1.067-.27-2.144-.54-3.03-1.25-1.238-.379-2.365-.998-3.402-1.772-1.388-.76-2.435-1.884-3.417-3.093-.656-.145-.862-.774-1.272-1.179-.511-.4-.972-.829-1.408-1.288-.32.2-.546-.285-.777-.75-.506.415-.065 1.359-.891 1.599.035.394.225 1.029-.341.984-.772-.075-.737-.714-.421-1.309-.045-.76.155-1.424.731-1.958-.08-.15-.105-.31-.08-.47.05-.02.106-.04.146-.055-.692-.924-1.333-1.888-1.994-2.837-.551-.79-.992-1.654-1.478-2.483-.31-.46-.606-.929-.907-1.389-.01.075-.02.15-.025.23-.852-.32-1.022-.394-.681-1.239a.975.975 0 0 0-.086-.114c-.445-.575-.34-1.01.106-1.464.6-1.379 1.598-2.328 2.81-3.047.837-2.433 3.031-3.972 4.183-6.185.291-.24.521-.524.732-.824.125-.435.255-.864.39-1.299.512-.45.872-1.084 1.619-1.239.957-1.254 1.924-2.502 2.875-3.751 1.038-1.499 2.014-3.057 3.698-3.942 0-.105.01-.2.045-.3a78.751 78.751 0 0 0 5.23-5.344c2.164-2.413 4.845-4.371 7.294-6.53.426-.374.827-.784 1.238-1.183 1.007-.22 1.187-1.364 2.024-1.769.24-.16.48-.31.726-.464.005-.145.01-.29.03-.435.291-.2.577-.405.867-.614.436-.425.887-.835 1.258-1.32a34.185 34.185 0 0 1 4.278-3.646c.17-.185.36-.36.551-.524-.356.164-.746.214-1.242.045-.491-1.244.876-1.41 1.267-2.144 1.017-1.558 2.786-2.138 4.193-3.202.426-.224.862-.444 1.288-.669.28-.26.556-.52.827-.764.46-.96.987-.73 1.533-.1-.386.175-.772.345-1.153.52.03.084.055.17.07.264-.33 1.134-1.102 1.414-2.099 1.289.025.195.01.385-.055.574-.205.405-.506.75-.846 1.044-.647.48-1.293.955-2.065 1.22-.015 0-.025 0-.04.004-.01.28-.115.53-.285.765.29-.235.566-.47.836-.74.622-.64 1.488-.984 2.1-1.653.466-.295 1.107-.24 1.483-.735.997-1.563 3.166-1.648 4.118-3.267.265-.14.526-.28.786-.42.431-.03.782-.184.902-.644.711-.37 1.413-.724 2.124-1.089.17-.084.336-.174.501-.27a1.01 1.01 0 0 0-.5.27c.12-.23.25-.464.37-.699.756-.999 1.588-1.908 2.785-2.398.647-.32 1.423-.37 1.92-.989.395-.095.766-.205.756-.72.926-.429 1.959-.729 2.53-1.698.726-.15 1.337-.48 1.698-1.164.912-.849 1.969-1.523 2.976-2.253l.02.02c1.879-.834 3.722-1.738 5.275-3.107a.742.742 0 0 1 .266-.604c.325-.195.656-.24 1.007-.085.295-.115.586-.225.882-.34.596-1.039 1.778-1.074 2.685-1.583.315-.12.631-.245.942-.355 1.187-1.648 3.016-2.403 4.684-3.372.771-.454 1.503-.969 1.949-1.778.761-.37 1.523-.73 2.284-1.094.23-.285.466-.565.702-.845.2-1.613 1.568-2.437 2.434-3.596 1.649-.265 1.213-1.764 1.649-2.753.706-.47 1.142-1.319 2.084-1.448V69.6c-.01-.145-.01-.3.015-.45.721-.3 1.443-.604 2.159-.904.802-.31.987-1.484 2.034-1.444.897-1.109 2.08-1.813 3.357-2.363-.16-.224-.116-.394.14-.51.15.026.24-.03.27-.174 2.225-1.239 4.444-2.483 6.664-3.722 1.528-.46 2.36-1.908 3.712-2.622.035-.15.07-.29.1-.43.511-.26 1.012-.524 1.508-.774 1.117-1.234 2.745-1.669 4.033-2.633 1.242-.135 1.854-1.793 3.327-1.374.375-.294.756-.594 1.132-.904.26-1.348 1.578-1.443 2.47-2.048-.015-.15-.02-.3-.015-.45 1.377-.254 2.154-1.528 3.416-1.968.401-.36.797-.714 1.203-1.069.185-.02.36-.04.546-.065.806-.599 1.408-1.608 2.665-1.333.01-.45.356-.595.696-.745.02-.474.316-.694.727-.804.977-1.099 2.284-1.708 3.527-2.398a1.407 1.407 0 0 1-.015-.434c.416-.205.821-.4 1.232-.6.867-.13 1.553-.914 2.555-.734.095.919-.621 1.059-1.192 1.334-.536 1.039-2 .944-2.51 2.018.356.36.771.225 1.182.12.747-.445 1.488-.885 2.23-1.33.6-.274 1.192-.544 1.798-.813.787-1.27 2.11-1.804 3.367-2.423.09.045.17.065.26.07-.09-.025-.17-.055-.26-.07.11-.1.235-.17.38-.2-.01-.14-.004-.275.006-.415.085-1.104.966-1.533 1.738-2.068.907-.544 1.728-1.323 2.93-1.014.677-.829 1.724-1.049 2.576-1.598.436-.44.857-.485 1.272.025l-.015.175c.136.044.206.124.206.24 0 .134-.02.21-.07.23.065.169.135.339.2.509.26-.18.526-.35.817-.485.63-.245 1.222-.56 1.793-.904.21-.155.436-.29.661-.42.541-.344 1.068-.714 1.614-1.049.12-.1.24-.185.37-.275 0-.025-.005-.05 0-.08.436-.24.872-.479 1.303-.719.626-.44 1.207-.944 1.743-1.498 1.233-1.05 2.71-1.739 4.043-2.648.21-.16.421-.3.657-.42.07-.035.145-.07.22-.105.857-1.049 1.763-2.038 3.296-2.063.046-.045.1-.08.146-.125.285-.22.59-.41.917-.564.22-.115.445-.2.68-.26.181-.04.372-.07.557-.075.967-.914 2.355-1.329 3.206-2.398-.01-.005-.015-.005-.025-.005-.39-.824.08-.979.757-.969.466-.184.922-.37 1.388-.56.6-.659 1.232-1.243 2.229-.933a.761.761 0 0 1-.15-.405c.25-.604.746-.85 1.362-.914.451-.24.887-.48 1.338-.72.25-.32.586-.444.992-.429.821.674.466 1.284-.115 1.878-.29.415-.822.495-1.183.815-.42.19-.846.38-1.267.569.145-.355.165-.53.115-.614-.04.204-.075.404-.115.614-.16.055-.336.115-.496.175-.33.42-.521 1.004-1.192 1.034-.917.894-1.83 1.783-2.75 2.672-.236.54-.632.89-1.198 1.035-1.95.749-3.507 2.103-5.19 3.267a8.882 8.882 0 0 1-.226-.14c-.581.384-1.358.504-1.688 1.224-.27.14-.531.26-.797.39a.29.29 0 0 0-.165-.07c.055.024.11.044.165.07-.706.424-1.413.843-2.114 1.268a4.47 4.47 0 0 1-.41.664c-.251.265-.537.475-.847.66-.501.295-.992.6-1.478.909-1.173.88-2.35 1.758-3.522 2.638 0 .005-.005.005-.005.005-.216.184-.426.354-.637.544-.185.16-.39.305-.596.435-1.087.55-2.084 1.204-2.73 2.288-1.152 1.343-2.73 2.093-4.153 3.057.3.065.61.135.911.2-1.713 1.169-3.11 2.777-5.075 3.591-1.287.845-2.565 1.694-3.852 2.543-2.64 1.978-5.3 3.961-7.946 5.945-2.154 1.648-4.153 3.511-6.508 4.9-.115.065-.23.12-.34.18-.12.285-.35.465-.687.534-.16.03-.305.08-.45.145-.952.61-1.834 1.314-2.61 2.168-.236.31-.497.585-.777.845-1.052.814-2.074 1.683-3.482 1.828-.035-.005-.06-.015-.09-.02-.316.38-.621.764-.932 1.144-.47.225-.937.44-1.408.66-.105.214-.245.234-.42.084l-.04.015c.415 1.25-.892 1.579-1.373 2.343-1.679 1.289-3.322 2.623-5.045 3.857-2.285 1.463-4.063 3.616-6.513 4.855-1.603 2.213-3.938 3.567-6.087 5.135-.35 1.02-1.498 1.1-2.124 1.804-.857.534-1.714 1.084-2.575 1.618-.336.964-1.318 1.014-2.03 1.439-.44.35-.886.644-1.317-.015.611-1.429 1.703-2.298 3.201-2.673.09.035.166.07.226.11.16-.324.426-.46.791-.404.01 0 .015-.005.03-.005a.07.07 0 0 1-.02-.015c.086-1.2.637-1.963 1.824-2.168a.866.866 0 0 1 .18-.45c.797-.754 1.839-1.219 2.54-2.093.797-.674 1.608-1.339 2.425-1.998.19-.135.406-.235.631-.3.24-.025.451.02.652.155.486-1.918 2.149-2.872 3.486-4.091.772-.44 1.508-.894 2.12-1.499a8.94 8.94 0 0 1-1.533.714c-.216.04-.431.055-.632.04-.13.125-.255.255-.385.38-1.208.944-2.32 2.053-3.878 2.438-.24.305-.476.604-.711.899-.326.11-.652.225-.977.335-.571.4-1.148.804-1.714 1.204-.295.25-.781.364-.706.904-.28.095-.571.19-.842.29 0 .06.005.114.005.18-1.202.414-2.22 1.078-2.93 2.142l-1.458.555c-.311.43-.536.949-1.153 1.034-.661.954-1.683 1.254-2.73 1.489-.882.909-1.809 1.748-3.236 1.448.085-.25.17-.494.26-.734a3.35 3.35 0 0 1 .747-.774c-.557.33-1.143.604-1.559 1.134-.145.18-.305.334-.465.49.25.02.546.139.876.399-.26 1.109-1.423 1.254-2.099 1.923-.25.295-.5.585-.761.874-1.223-.095-1.103 2.213-2.676 1.504-1.518.85-2.5 2.652-4.554 2.533-.115.224-.225.444-.34.659-.226.664-.827.834-1.378 1.074-.822 1.024-1.979 1.594-3.056 2.263l-.22.03-.206.09c-.49 1.124-1.974.989-2.555 1.993-1.102.03-1.373 2.078-2.86 1.164h.18c-.286-.12-.571-.225-.867-.345.07-.05.14-.1.21-.155a.915.915 0 0 0-.21.155c-.576.38-1.157.755-1.743 1.134.54-.145 1.072-.25 1.628 0-.07.21-.155.42-.236.635-1.107 1.099-2.555 1.708-3.787 2.617-.536.435-1.067.86-1.608 1.294-.145.94-1.443.644-1.638 1.529-.26.729-.887.794-1.498.894.005.08.02.155.02.235-.246.889-1.448.58-1.759 1.388-.28.12-.56.245-.831.375-.286.245-.582.47-.897.68-1.258.964-2.52 1.918-3.783 2.887-.035.01-.07.015-.1.025-.055.065-.11.135-.16.21-.596 1.538-1.804 2.233-3.367 2.447-.095-.05-.175-.1-.255-.15-.857 1.894-3.026 2.208-4.344 3.552-.611.62-1.528.92-1.733 1.888-.075.44-.356.73-.747.935-.165.085-.335.184-.51.284-.462.395-1.013.58-1.584.71a4.324 4.324 0 0 1-.917.185c-.095.02-.18.035-.27.06-1.668 1.608-3.337 3.217-5.005 4.835-.296.11-.601.22-.912.33-.005.055-.025.1-.04.15a1.884 1.884 0 0 1-.556.534c.386.105.736.28 1.072.495-.06-1.1.707-1.114 1.553-1.03a.668.668 0 0 1-.14-.21c-.01-.254.035-.494.16-.714 1.007-1.079 1.869-2.422 3.657-2.168-.02-.035-.05-.06-.07-.1.276-1.833 2.094-2.098 3.192-3.092.64-.684 1.783-.184 2.37-.994.135-.08.28-.165.42-.234.155-.18.37-.32.546-.115.326.354.13.689-.155.974-1.117.844-2.22 1.678-3.332 2.512-.42.895-1.177 1.324-2.099 1.549-.07-.01-.13-.025-.19-.04-.496.51-.972 1.024-1.458 1.534-.717.46-1.423.914-2.134 1.368-.481.77-1.233 1.18-2.034 1.519-.06.495-.411.674-.842.75-2.21 1.498-3.667 3.886-6.122 5.09l-2.5 2.088c-.42 1.633-2.039 1.948-3.131 2.837-.436.515-.807 1.1-1.523 1.264-.426.495-.852.99-1.278 1.479 1.318-.865 2.666-1.689 4.068-2.413.28-.215.567-.405.937-.47 1.99-1.284 3.983-2.562 5.972-3.846 1.698-1.664 3.717-2.863 5.751-4.051.376-.255.747-.515 1.118-.775 1.543-1.398 3.266-2.552 5.004-3.671.19-.255.406-.49.782-.505.04-.025.08-.055.125-.085.34-1.039 1.338-1.104 2.164-1.429.14-.094.281-.184.416-.284 2.014-1.414 3.748-3.187 5.882-4.406.38-.215.646-.71 1.202-.485.26-.59.817-.82 1.328-1.099a1.39 1.39 0 0 1-.19-.355c.105-.104.225-.184.36-.24.155.03.356-.044.546-.12 1.082-1.153 2.565-1.798 3.828-2.732l.01-.005c.115-.42.496-.754.621-1.169 1.212-.574 1.588-.754 1.839-.494 1.017-.65 2.044-1.274 3.046-1.923.43-.72 1.012-1.21 1.863-1.33 0-.004-.005-.004-.005-.01.812-1.168 2.12-1.728 3.182-2.582a1.464 1.464 0 0 0-.116-.215c.196-.604.596-.904 1.052-1.104.09-.564.837-.749 1.303-1.069.666-.24 1.338-.47 2.004-.699.04.135.065.25.08.365 1.197-.85 2.435-1.644 3.677-2.438-.23.045-.47.04-.716-.06.741-.33 1.272-1.144 2.23-1.004a.72.72 0 0 0-.056.13c.326-.215.651-.425.982-.645-.16.09-.326.175-.506.245-.1-.27-.205-.54-.305-.804.125-.395.395-.55.801-.445.476-.17.952-.344 1.428-.504a3.19 3.19 0 0 1-.937 1.174 36.913 36.913 0 0 0 3.111-2.318c.2-.165.526-.18.797-.27.892-1.094 2.119-1.439 3.457-1.514.275-.164.55-.33.816-.494.17.76-.681 1.573.115 2.303l.727-.15c.581-.385 1.162-.764 1.743-1.134.216-.714.707-.844 1.313-.86 1.027-.684 2.044-1.378 3.02-2.137a2.419 2.419 0 0 1-.104-.225c.225-.07.45-.155.66-.215.056-.045.111-.08.166-.125 1.223-1.314 2.806-2.148 4.234-3.182 2.885-2.083 5.811-4.091 8.702-6.16.265-.19.5-.424.866-.394a.462.462 0 0 1-.015-.12c.146-.514.556-.81.952-1.114-.175.02-.34.02-.49-.03l-1.383 1.11v-.06c-.256.164-.511.639-.807.234-.26-.36.145-.594.456-.754l-.065-.02c.285-.475.721-.75 1.207-.944a.904.904 0 0 1-.045-.445c.306-.53.817-.904 1.142-1.409.276-.374.546-.75.827-1.119-.03-.63.165-1.119.822-1.324.956-1.278 2.219-2.203 3.557-3.037 3.056-2.467 5.951-5.145 9.749-6.509.37-.13.681-.414 1.022-.634a.29.29 0 0 1 .195.08c.25-.165.531-.24.827-.285.486-.27.952-.575 1.418-.88.05-.08.12-.15.21-.204.14-.105.29-.195.45-.245 1.524-1.064 2.997-2.213 4.635-3.092v.055c.195-.125.39-.25.581-.38.396-.03.787-.06 1.182-.08-.741.52-1.487 1.05-2.229 1.569.035-.08.065-.16.095-.24-.06.065-.11.14-.095.24-1.753 1.129-2.99 2.897-4.87 3.871-.085.22-.17.445-.26.67-.05.909-1.268.924-1.363 1.788.075.06.126.15.146.255l-.657.504a.644.644 0 0 0-.085.08c1.498-.025 2.39-1.383 3.727-1.773.266-.085.536-.165.807-.25 2.45-2.263 5.295-3.996 8.07-5.81 1.63-1.063 3.042-2.447 4.84-3.251a14.735 14.735 0 0 1 3.127-2.154c1.493-.959 2.785-2.237 4.463-2.902.04-.02.066-.04.106-.06h.045c.035-.01.075-.02.1-.03.03-.07.095-.095.22-.075.416-.045.396-.694.882-.65.842-.569 1.683-1.143 2.525-1.718.11.035.22.065.33.095l.05-.105.121.005c1.478-.959 2.87-2.053 4.439-2.857.21-.105.42-.2.626-.3.035-.105.105-.15.21-.13 5.416-3.926 10.982-7.618 16.643-11.17 1.293-.814 2.34-2.003 3.798-2.552.11-.05.225-.095.35-.115.356-.225.722-.46 1.082-.69.401-.324.812-.614 1.358-.619.641-.44 1.288-.874 1.929-1.314a.258.258 0 0 0 .26-.114c.351-.04.617-.29.952-.375.967-.754 1.984-1.399 3.041-1.998.531-.365 1.062-.72 1.593-1.09 1.153-.359 2.034-1.158 2.981-1.863.06-.14.126-.274.186-.42-.25.11-.526.17-.827.106-1.142.844-2.52 1.204-3.782 1.813-.286.19-.566.39-.857.585-.782.38-1.568.769-2.36 1.153.18-1.009 1.138-1.004 1.694-1.503 1.407-1 2.82-2.003 4.233-3.017.105 0 .175.05.2.14.762-.51 1.403-1.14 1.849-1.964.877.05 1.242-.64 1.718-1.169.321-.015.627.08.937.12.827-.444 1.643-.889 2.47-1.334.847-.41 1.338-1.558 2.54-1.238.35-.33.15.06.06.32.025-.046.05-.086.075-.13.481-.485.967-.98 1.453-1.46.19-.11.386-.21.576-.314-.24-1.638 1.383-1.579 2.13-2.333.465.36-.036.754.05 1.13.375-.22.756-.44 1.137-.66.115.15.23.31.346.46-.23.18-.466.369-.702.544.481.37 1.092.065 1.633.13.807-.43 1.624-.86 2.435-1.29 2.255-1.193 4.229-2.757 6.077-4.49a.803.803 0 0 0 .28-.305c-.74-.155-1.051 1.014-1.748.99.005.064.015.134.025.194-1.097.305-.29-.704-.636-.914h-.005c-.586.23-.962.904-1.839.84.15-.74.747-.92 1.233-1.195.556-.4 1.122-.794 1.673-1.194.596-.709 1.683-.779 2.17-1.638a.426.426 0 0 1-.16-.19l-.01-.015c-.647.46-1.293.914-2.11 1.489-.025-1.18.641-1.674 1.267-2.193.466-.33.937-.66 1.403-.994 1.769-1.704 4.033-2.688 6.002-4.117.741-.534 1.498-1.024 2.084-1.728.145-1.099.927-1.459 1.739-1.768.2-.135.43-.235.686-.27zM29.106 127.195a1.085 1.085 0 0 1-.098-.023c.002.001.004.003.004.01zM4.328 104.877c.066-.075.126-.154.176-.234.195-.135.38-.29.57-.435-.3.155-.655.215-1.111.105a.84.84 0 0 1 .12.145c.05.12.04.235.015.344l.23.075zm2.39-1.26c.155-.528.39-1.017.621-1.515-.445.25-.886.508-1.337.753.025.05.045.104.07.17-.185.353-.4.667-.656.916.38-.249.786-.403 1.312-.279 0-.015-.01-.025-.01-.045zm11.378-8.576c0-.175.035-.33.105-.464-.22.125-.446.24-.652.37.176.004.361.04.547.094zm5.866-4.266c.36-.404.747-.754 1.162-1.074-.355.235-.726.465-1.127.635-.16.05-.33.09-.5.13.175.064.325.164.465.31zm1.724-1.463a6.617 6.617 0 0 1 2.029-.865h.065a.651.651 0 0 1 .04-.384c.145-.29.325-.535.53-.74-.245.08-.525.09-.836.005-.085.645-.601 1-1.027 1.41-.27.179-.53.379-.801.574zm3.807-2.648c.135-.045.276-.075.41-.105.106-.005.201-.015.296-.03.06-.125.14-.23.226-.33-.336.075-.631.26-.932.465zM60.89 66.987l.125-.095c.456-.35.902-.704 1.378-1.039.04-.44.245-.86.366-1.284-.862.65-1.809 1.17-2.67 1.819.135.12.28.244.42.374.125.075.25.15.38.225zm1.793-10.026c-.115.11-.255.2-.395.275.075-.005.16-.005.235-.01.236-.065.461-.15.676-.25a.985.985 0 0 1-.48-.05c-.016.01-.026.025-.036.035zM45.86 69.331c-.01.05-.015.095-.035.144-.25.27-.54.39-.892.255.13.164.12.389.03.638.411-.32.757-.718 1.158-1.037a3.778 3.778 0 0 1-.226-.02c-.01.01-.02.02-.035.02zm1.037 1.617c-1.743.69-2.885 2.248-4.373 3.297.546-.194 1.097-.334 1.688-.11.04-.06.075-.12.115-.18.887-.874 1.974-1.513 2.88-2.357.592-.45 1.238-.84 1.814-1.314.411-.3.857-.54 1.318-.74.21-.639.867-.983 1.318-1.463l.345-.285c-.235.07-.49.065-.756-.03-.13.31-.37.52-.661.69-1.153.274-1.924 1.139-2.831 1.808-.366.12-.777.195-.857.684zm24.894-19.577a.77.77 0 0 1 .08-.44c-.28.09-.556.215-.841.315.265-.005.52.025.761.125zm-36.13 31.146c.42-.225.906-.31 1.452-.235 0-.005 0-.01-.005-.015-.04-.24 0-.463.11-.678.125-.114.246-.234.356-.364a28.35 28.35 0 0 0-1.663 1.112c-.076.065-.16.12-.25.18zM39 80.36c.066 0 .121-.01.191 0 .095.1.175.214.266.329.01-.04.01-.065.02-.105.09-.34.245-.598.45-.793-.31.19-.616.38-.926.569zm1.388-.85c.16-.065.336-.105.532-.124.01-.09.035-.18.065-.26-.196.13-.396.255-.597.384zm18.572-11.33c.376-.179.742-.389 1.097-.624-.416.13-.826.26-1.237.38 0 0-.015.01-.03.025.005.005.01.005.015.01.085.07.13.14.155.21zm8.241-6.514c.27-.17.546-.245.847-.17.17-.628.51-1.072.937-1.44-.957.657-1.954 1.266-2.82 2.048.175-.04.365-.06.56-.034l.146-.015c.105-.13.22-.255.33-.39zm3.823-2.998c.681-.334 1.247-.838 1.894-1.212.636-.324 1.207-.743 1.753-1.196a.843.843 0 0 1-.28-.27c-.642.42-1.288.843-1.934 1.262-.09.025-.186.055-.28.085-.176.17-.347.339-.497.533-.44.404-.902.788-1.368 1.167-.175.16-.37.314-.56.468.425-.279.876-.533 1.272-.837zm6.112-11.753c-.566 1.784-2.285 2.008-3.657 2.723-.126.015-.25.02-.376.02-.01.165-.06.32-.135.47 1.262.32 2.104-.905 3.211-1.14.065-.14.14-.28.21-.424.246-.41.597-.67 1.032-.83.11-.02.21-.04.311-.06.38-.614.942-1.028 1.623-1.313a1.086 1.086 0 0 1-.17-.74c-.36.345-.792.5-1.353.325.04.06.07.12.095.21-.12.53-.39.814-.961.604.055.04.11.09.17.155zM57.864 60.193c-.33.105-.666.11-.987-.06-.015.005-.03.01-.04.015.05.03.095.08.135.145-.01.51-.235.84-.54 1.104.305-.075.615-.09.95.04l.016.015c.175-.405.346-.814.516-1.219.025-.035.055-.06.075-.095-.04.02-.08.04-.125.055zM38.65 74.525c-.24.105-.466.25-.746.175.23.29.596-.05.871.075.06-.155.15-.29.256-.42-.125.055-.25.115-.38.17zm-17.555 17.51a.84.84 0 0 1-.49.703c.105.01.205.025.31.05h.02c.27-.26.556-.494.877-.658-.23.05-.456.064-.681-.04a.335.335 0 0 1-.036-.055zm-59.11 49.328c.164-.165.33-.32.55-.374.04 0 .07.01.105.01-.035-.304.055-.588.266-.848.045-.045.09-.074.13-.114-.325.18-.686.314-1.112.364-.01.005-.02.015-.03.02.1.094.175.224.22.368-.005.22-.055.404-.13.574zm1.527-1.647c.296-.145.611-.21.952-.15-.025-.445.09-.8.3-1.1-.405.435-.791.895-1.252 1.25zm2.555-2.388c.125-.06.25-.115.38-.145.056-.01.111-.015.161-.025 0-.125.015-.24.05-.345-.195.17-.39.345-.59.515zm2.746-2.393c.295-.08.62-.085.976.02a.332.332 0 0 1-.06-.1 1.55 1.55 0 0 1 .176-.794c-.371.29-.732.574-1.092.874zm48.335-28.959c.085-.095.195-.204.35-.329-.185.04-.35.11-.506.18.05.044.096.094.156.15zm63.87-36.896a.75.75 0 0 1 .17-.325c-.12.03-.245.045-.39.06-.125-.045-.255-.09-.376-.13-.13.185-.32.265-.56.265-.552-.08-1.053-.025-1.404.49-.08.12-.18.24-.27.354-.06.08-.115.15-.17.22.23.38.01.775-.22 1.164-.291.32-.752.395-1.063.685-.42.284-.827.594-1.232.849.36-.165.66-.48 1.037-.7.195-.14.385-.28.6-.4.176-.03.311.03.412.176 0 .015.005.025.005.04.57-.535 1.127-1.084 1.933-1.27 0-.13.036-.24.176-.334.47-.345.972-.654 1.413-1.034-.025-.04-.035-.075-.055-.11zm3.036-3.475c.276-.26.577-.513.872-.758-.03-.005-.065 0-.1-.005-1.378 1.117-3.096 1.815-4.203 3.276 0 .005 0 .01-.005.015.21-.165.41-.33.62-.494.186-.01.372-.015.552-.025.075.22.1.394.08.544.125-.165.19-.354.105-.649.496-.329.992-.653 1.493-.987.196-.304.391-.603.586-.917zm14.64-10.257c.09-.07.18-.135.27-.2-.175.06-.355.115-.55.145-.015 0-.025-.01-.04-.01-.065.035-.12.065-.18.105-.13.564-.63.844-1.056 1.178-.81.435-1.59.94-2.445 1.27-.005.29-.255.429-.505.524-.15.06-.345.15-.505.14-.03.344-.215.634-.415.914.3-.14.605-.28.905-.425 1.11-.794 2.22-1.588 3.34-2.383.356-.454.786-.844 1.18-1.258zm1.998-1.45c.561-.399 1.132-.798 1.704-1.193a2.165 2.165 0 0 0-.772.145c-.175.115-.35.245-.531.365-.14.16-.26.36-.34.619-.02.025-.04.04-.06.065zm6.062.695c.456-.314.917-.623 1.373-.918-.696.25-1.298.654-1.739 1.287-.015.015-.035.025-.045.04.146-.12.28-.255.411-.41zm15.616-8.832l-.065-.045a.66.66 0 0 1 0-.49c-.11-.034-.22-.07-.32-.11-.211.11-.422.23-.632.34-.742.41-1.368 1.02-2.2 1.29a3.835 3.835 0 0 0-.52-.04c-.12.12-.246.23-.366.344-.226-.125-.426-.18-.591-.18-.617.235-1.102.725-1.463 1.444-.366.38-.862.535-1.293.8-.6.339-1.127.819-1.783 1.078a.912.912 0 0 1-.516.03l-.166.08c.076.05.16.1.236.17-.01.13-.035.245-.08.355.285-.18.58-.36.871-.53.291-.11.582-.13.867-.01.06.04.115.09.16.135 1.248-.86 2.49-1.718 3.733-2.578.215-.224.41-.46.606-.714 1.057-.744 2.084-1.583 3.522-1.364zm4.865-6.024c.836-.7 1.773-1.264 2.65-1.903.62-.39 1.262-.75 1.718-1.274-.646.524-1.433.934-2.26 1.269a5.123 5.123 0 0 0-.505.214c-.055.125-.11.25-.17.375-.216.145-.442.195-.672.185-.13.1-.26.19-.386.28a6.313 6.313 0 0 1-1.217.679.687.687 0 0 1-.256.375c-.57.34-1.117.714-1.648 1.119-.852.22-1.237 1.698-2.39 1.104-.09.035-.19.065-.28.1-.216.424-.722.619-.967 1.049.436-.11.776-.415 1.217-.41.06.015.116.04.166.065.085-.035.18-.065.27-.1.1-.025.19-.055.28-.08.727-1.259 2.1-1.753 3.187-2.583.35-.14.691-.344 1.092-.29.055-.06.105-.12.17-.174zm5.42 3.837c-.691.38-1.383.758-2.059 1.147.446-.2.902-.399 1.363-.583.115-.04.225-.095.34-.15.096-.16.216-.289.356-.414zm3.973 2.868c.266-.374.641-.648 1.032-.902-.105.01-.205.01-.32-.01-.04.065-.096.12-.14.19-.467.333-1.003.543-1.529.762-.997.394-1.924.908-2.815 1.47-.01 0-.015 0-.02.006a.12.12 0 0 0-.04.03c-.406.264-.812.523-1.208.802-.074.051-.074.053-.061.046l-.054.034c.03.015.04-.02.08-.035.481-.2.832-.568 1.242-.847.02-.015.04-.025.06-.035.281-.095.547-.24.837-.304.541-.14.962-.489 1.433-.758a2.61 2.61 0 0 1 .691-.28c.246-.064.511-.104.767-.154.015 0 .03-.01.045-.015zm9.283-23.148c.07-.065.13-.12.2-.17-.044.015-.084.04-.13.06-1.332.589-2.43 1.52-3.597 2.348.12-.054.236-.114.351-.174.28-.185.566-.374.842-.573.42-.285.816-.644 1.312-.768.146-.11.286-.22.421-.34.2-.129.4-.258.601-.383zm1.994-1.416c.13-.13.145-.25.025-.37-.11.235-.28.345-.546.29.015.04.035.08.05.125-.095.34-.315.58-.586.784.12-.06.25-.115.376-.17.09.01.175.016.265.026.01 0 .02-.005.03-.01l-.01.01c0 .015.005.025.015.034.015-.3.18-.514.381-.719z"/></g></g></svg>