<svg xmlns="http://www.w3.org/2000/svg" width="413" height="325" viewBox="0 0 413 325"><g><g clip-path="url(#clip-1515012B-46ED-4916-B4FA-06C9B2E948D8)"><path fill="#b9d5ed" d="M410.887 28.33c2.665 1.548 2.805 3.354.441 5.28-.35.286-.671.63-1 .944.014 2.745-.916 4.859-3.82 5.643-1.118.987-2.217 1.96-3.322 2.94-.175.603-.622.932-1.182 1.149-.469.476-.951.93-1.427 1.4a1.257 1.257 0 0 1-.587.616c-.007 0-.014 0-.028.02-4.24 4.411-8.709 8.577-13.521 12.378-.728.603-1.462 1.198-2.26 1.73h-.014a32.748 32.748 0 0 1-5.148 4.543c-1.497 1.428-2.959 2.885-4.847 3.795l-.021-.203c-.014.014-.014.02-.028.028l.049.175a22565.336 22565.336 0 0 1-24.132 21.044c-6.652 5.993-13.318 11.972-19.97 17.965-3.323 3.808-7.226 6.973-11.045 10.214-.707.595-1.434 1.141-2.154 1.708-.182 1.582-1.616 2.128-2.582 3.032a1566.78 1566.78 0 0 1-13.283 12.28c-.58.545-1.336.895-2 1.33-7.722 7-15.57 13.854-23.069 21.065-2.959 2.835-6.267 5.307-8.911 8.471-.602.714-1.168 1.687-2.337 1.73-.02-.078-.034-.148-.055-.218-.007 0-.014.007-.014.014l.07.203c-1.253 2.093-3.246 3.452-5.023 5.02-.273.259-.545.518-.818.763-3 2.723-6.002 5.426-9.016 8.135-.539.497-1.092 1.001-1.63 1.498-3.75 3.578-7.254 7.407-11.416 10.522-.258.21-.524.42-.79.638-.161.847-.993.945-1.532 1.386-1.7 2.016-3.532 3.885-5.715 5.362-.049.05-.105.098-.147.154-.23.266-.545.476-.93.525-.245.238-.49.47-.734.715l-.042.147h-.161c-.595 1.253-1.392 2.282-2.84 2.59-.308.28-.616.553-.916.833h-.007c-.224 1.295-1.148 1.827-2.316 2.072-.16.168-.328.322-.49.476-.097.154-.195.315-.314.448-1.273 1.849-3.029 3.165-4.833 4.404-.28.315-.644.504-1.015.686l.042.147-.147.084a9.962 9.962 0 0 0-.202-.378c.042.133.104.259.202.378-.832 1.38-1.783 2.604-3.469 3.003-.007.147-.084.217-.238.203-.846 1.59-2.014 2.836-3.798 3.396-.196.203-.392.392-.602.595-2.37 3.157-5.588 5.412-8.45 8.065-4.126 3.843-8.33 7.624-12.506 11.425-.532.483-1.021 1.044-1.819 1.086 0 .007 0 .014.007.014-1.531 2.744-3.917 4.557-6.645 5.971-.335.294-.664.595-1.007.89-.35 1.21-1.266 2.149-2.175 2.716-4.4 2.793-7.736 6.854-11.94 9.871-.553.497-1.106.994-1.651 1.491-2.161 2.282-4.407 4.467-6.96 6.287-.455.61-.902 1.211-1.35 1.82-2.49 1.918-4.721 4.166-7.12 6.189-.504.42-.868 1.372-1.707 1.12-.714.672-1.658 1.036-2.302 1.778-.769.35-1.357.945-2.007 1.443-.007.014-.014.02-.028.02-.818.708-1.609 1.457-2.147 2.43.007.028.014.042.02.07.05.42-.153.77-.328 1.12-.77.462-1.54.917-2.316 1.386-.678.623-1.357 1.24-2.042 1.862-.497.813-1.014 1.604-2.014 1.884-.413.665-.798 1.33-1.651 1.49-1.602 1.233-3.204 2.458-4.799 3.697-1.14 1.989-2.784 3.34-4.91 4.285-1 .448-1.72 1.519-2.567 2.31-1.336 1.281-2.21 3.053-4.064 3.774-2.057 1.792-4.113 3.591-6.176 5.383a5.41 5.41 0 0 0-1.35.714c-.497.448-.987.903-1.49 1.352-.875.798-1.658 1.7-2.644 2.373-.7.406-1.231 1.071-2.015 1.358-1.077 1.358-2.497 2.317-3.826 3.395a3.766 3.766 0 0 1-.413-.126c-.035.063-.077.12-.105.182-.02.504-.3.75-.804.75-1.182.098-1.287 1.358-2.042 1.904-.686.602-1.371 1.21-2.043 1.813-.126-.14-.252-.273-.378-.406.7-.882 1.4-1.757 2.092-2.632-.238-1.422 1.16-2.01 1.539-3.067 1.566-4.522 5.784-7.456 7.071-12.118.05-.182.26-.35.231-.497-.804-4.34 1.826-7.897 2.658-11.86.084-.238.203-.44.322-.58.86-1.611 1.595-3.27 1.602-5.147.007-2.093 2.252-2.037 3.084-3.325h.007c1-2.38 2.484-4.369 4.645-5.818.84-1.218 1.693-2.436 2.54-3.647-.21-1.505.139-2.394 1.902-1.722l.049-.14.147-.007c.363-1.219.58-2.5 1.447-3.5-.188-.736.91-1.198.406-1.996-.336-.546-.315-1.141.308-1.337.692-.21.364.812.664.854 1.238.154 1.532-1.288 2.519-1.596.454-.483.916-.973 1.37-1.443.483-1.897 3.071-2.61 2.672-4.942-.608.063-1.042 1.022-1.888.588-1.735 1.225-2.798 3.332-5.043 3.913.014.112-.014.196-.084.26-.539.875-1.021 1.904-2.33 1.015.196-.939.392-1.87.602-2.8.147-.883.797-1.38 1.44-1.884.232-.133.477-.21.728-.287.126-.413.238-.833.357-1.26-.028-.056-.063-.091-.084-.154-.468.574-1.021.987-1.846.889l-.7-.147c-1.042.315-2.084.63-3.12.952 1.364-1.582 2.148-3.71 4.393-4.278 1.007-.637.714-2.296 2.099-2.632.895-.735.706-1.708.601-2.681-.287-.798.63-.98.798-1.54.307-1.233 1.797-1.506 2.175-2.682.671-.427 1.497-.735 1.287-1.799.112-1.148 1.266-1.428 1.84-2.191.084-.07.153-.126.23-.182-.07-.091-.063-.21.035-.35.672-.854 1.343-1.709 2.008-2.563.329-1.428 1.091-2.576 2.252-3.451.462-.231.938-.266.917-1.078-.05-1.87.02-2.507.993-2.654a3.137 3.137 0 0 1-.58-.084c.111-.364.335-.623.594-.84-.091.028-.182.056-.294.063l-.706-.063c.391-.357.461-.735.321-1.148a.858.858 0 0 1-.538.112c-.147-.259-.294-.51-.434-.756-.154-.014-.308 0-.462.021-.237.098-.475.203-.713.301l-.238-.07-.252-.063c-.37.434-.755.868-1.14 1.295a3.656 3.656 0 0 1-.392 0c-.538.553-1.056 1.1-1.105 1.926-.056-.113-.119-.218-.182-.33a.575.575 0 0 0 .182.33c.077.203.161.427.252.65-.056.183-.105.365-.154.554-.154.406-.266.882-.853.896.07.399.14.812.203 1.225.7.336 1.189-.091 1.748-.42.847-.49.56.224.588.602-.937.833-1.434 2.324-3.057 2.22.035-.092.063-.183.084-.28-.357-.106-.706-.225-1.05-.337-1.055-.119-.419-1.82-1.664-1.75-.028-1.435 1.091-1.736 2.099-2.156-.525-.147-1.036-.021-1.54.182-.14.07-.286.14-.433.203-.07.056-.14.119-.203.182.273.854-.14 1.47-.727 2.009l-.07-.077c-.93.448-1.616.028-2.267-.476-.3.315-.601.623-.902.938-.895.812-1.763 1.68-2.623 2.527-.147.084-.28.14-.434.19-.042.44-.084.881-.125 1.344.014.252-.035.497-.154.735-.98.826-1.63 2.24-3.106 2.205-.014.02-.028.035-.035.049-.329.42-.706.784-1.133 1.1.357.517.503 1.12.601 1.75.028.671-.105 1.294-.56 1.827-.02.028-.034.056-.055.09.608-.42 1.224-.588 1.811-.104a.631.631 0 0 1 .35-.47.462.462 0 0 1 .301.077c.021-.049.028-.09.056-.147.483-.329.937-.427 1.301.175.119.231.252.456.378.68-.469 1.036-.658 2.394-2.337 2.03h-.608c-.182.084-.357.175-.532.252-.273 1.519-1.504 2.156-2.65 2.87-.336.511-.197 1.33-1.015 1.505-.874.231-.825 1.443-1.742 1.604-.23.112-.468.21-.7.329-.237.315-.482.63-.72.945-.237 1.127-1.035 1.799-1.93 2.387-.916.721-1.427 1.967-2.756 2.135-.266.721-.58 1.407-1.33 1.786-1.048.903-1.496 2.485-3.133 2.702-.37-.392-.454-.875-.475-1.386.02-.063.042-.12.063-.175-.371-.077-.728-.035-1.029.287-.657.952-1.664 1.687-1.853 2.94.517-.084 1.042-.16 1.56-.245h.007c.265-.084.538-.168.81-.238-.202.707-.405 1.442-.608 2.15.042.678-.35.804-.902.762a2.232 2.232 0 0 1-.413-.105c-.51-.252-.776-.637-.63-1.239.022-.056.05-.105.078-.154a35.545 35.545 0 0 1-.154-.469c-.343-.035-.679-.07-1.014-.098-.063.14-.12.287-.147.434-.294.273-.58.567-.868.854a6.55 6.55 0 0 1-.14.56l-.42.861c-.293.161-.58.302-.874.463-.321.672-.622 1.337-.944 2.009-.238.196-.469.406-.692.602.007.098.007.189.007.294-.042.413-.035.861-.588.987-.504.154-.608.581-.678 1.022l-.112-.112c-.378.89-.455 1.932-1.287 2.59a.653.653 0 0 1-.175.435c-.602-.021-.644.532-.903.868-.412.86-.818 1.722-1.217 2.583a2.442 2.442 0 0 0-.272.343c-.707-.322-.539-1.127-.847-1.66.021.07.05.134.056.218-.21 1.449-1.042 2.415-2.343 3.003.056.084.105.154.147.252.182.882.336 1.757-.35 2.52a2.265 2.265 0 0 1-.203.239l.042.238c-.336.532-.37 1.26-1.112 1.484-.671.742-1.357 1.484-2.021 2.226-.651.924-1.295 1.848-1.938 2.765-.273-.049-.553-.112-.832-.168-.126.07-.26.105-.392.126-.392.406-.567 1.12-1.364.988-.574.098-.72.525-.805 1.022a.859.859 0 0 1 .434.322c1.308.02 1.567.672 1.063 1.785a1.426 1.426 0 0 0-.42-.042c-.251.203-.419.14-.482-.19-.07-.433-.126-.888-.189-1.322-.944-.476-1.23.665-1.923.79-.203.967-.987 1.31-1.77 1.639l-.28-.021-.238-.098c-.713.462-1.378.98-1.594 1.855a10.295 10.295 0 0 1-.686-.042.621.621 0 0 0-.35-.217c-.189.546-.384 1.085-.566 1.624-.455.77-.91 1.548-1.364 2.325-.777.51-1.532 1.029-2.302 1.54-.125-.007-.244 0-.363.014l-.105-.168-.05.07.155.098c-.777 1.155-1.54 2.317-2.309 3.465a6.087 6.087 0 0 1-.496-.077c-1.126-.58-.294-1.253-.105-1.904.525-.525.168-1.344.28-2.002-.105.14-.231.224-.434.21-.175.343-.44.637-.734.917.286.154.44.434.524.777-.322.82-.643 1.631-.972 2.443-.168-.287-.35-.58-.532-.868-.147.21-.3.413-.447.616l-.812-.77a.88.88 0 0 1-.468.056c-.063-.02-.112-.049-.168-.077-.336.378-.686.742-1.022 1.127.042.035.091.07.147.126.07.434-.02.792-.461.98-.462.463-.93.91-1.385 1.366-.273.098-.539.203-.805.3-.063.134-.14.246-.21.365-.72 0-1.58-.378-1.874.72l-.252-.034-.252-.105c-.196-.336-.224-.644-.133-.931-.286.238-.594.476-.972.588-.322-.112-.636-.231-.944-.343.028-1.4 1.189-1.974 2.021-2.787-.28-1.33.427-1.834 1.602-1.932.23-.847.958-1.26 1.504-1.813.77-2.275 2.238-4.18 3.385-6.252.385-.343.756-.364 1.106-.182a8.845 8.845 0 0 1 1.133-1.519c.329-.364.678-.7 1-1.057.28-.26.546-.54.783-.826.084-.175.21-.322.33-.47.188-.3.363-.608.489-.951.133-.336.315-.652.517-.939.287-.392.623-.735.98-1.07.37-.33.762-.645 1.09-1.03.14-.217.274-.44.407-.672.028.007.042.007.07.014.083-.098.16-.196.244-.294-.175-.707.154-1.267.763-1.736.259-.336.252-.924.881-.931.357-.455.777-.847 1.301-1.113-.182-.056-.35-.14-.468-.308 1.196-3.207 3.812-5.3 6.022-7.708.154-.161.637 0 .98.007 1.167-1.548 1.846-3.438 3.364-4.74.28-.301.552-.61.818-.917.93-1.057 1.868-2.114 2.798-3.172 1.357-1.68 2.54-3.577 5.022-3.766 1.266-1.52 2.54-3.031 3.805-4.544 1.336-1.239 2.672-2.464 3.673-4.032.503-.777 1.189-1.52 2.26-1.61.489-1.141 1.097-2.192 2.132-2.934 1.812-2.401 3.722-4.704 5.883-6.805 1.161-1.386 2.33-2.765 3.49-4.158 1.176-1.89 3.456-2.597 4.701-4.41.63-.757 1.252-1.506 1.875-2.262-.854-1.008.685-1.246.63-2.002.405.364.398.714.286 1.05.406-.812 1.035-1.4 2.077-1.61 2.658-2.843 5.316-5.664 7.967-8.513 1.33-1.554 2.505-3.277 4.491-4.13-.643-.96.224-1.296.72-1.8.182-.763.742-1.155 1.42-1.456.147.273.287.553.441.833.448-.294.895-.581 1.343-.875.266-.448.539-.91.812-1.365-.357.049-.686.028-.875-.427-.147-.371.05-.638.399-.778 1.259-.847 1.686-2.555 3.196-3.17.448-.008.616.251.707.573.399-.217.615-.637.91-.973-.169-.098-.33-.217-.434-.399.174-.33.35-.651.524-.98.993-.14 1.007-1.722 2.21-1.54.029-.098.043-.196.078-.301.713-1.345 1.42-2.717 2.832-3.515a.874.874 0 0 0 .203-.455c.986-1.029 2.176-1.841 3.232-2.814 1.084-.385 1.476-1.568 2.364-2.185 1.077-.812 1.854-1.904 2.707-2.919.469-.448 1-.763 1.63-.91a.845.845 0 0 1 .126-.035c.119-1.05 1.553-1.141 1.783-2.114h-.007c-.272-.266-.552-.525-.825-.791.273-.301.553-.602.832-.89 0-1.106.063-2.163 1.665-1.764.616-.77 1.238-1.54 1.868-2.324.384-.224.776-.224 1.175-.056.056.035.112.077.154.112.566-.434 1.343-.68 1.44-1.568.022-.007.036-.007.057-.014-.014 0-.035.007-.056.014-.014.014-.028.014-.042.02l.042-.02c-.308-.273-.623-.546-.938-.82.084-1.21 1.217-1.588 1.889-2.338.65-.86.846-2.478 2.581-1.568.448-.616.902-1.218 1.35-1.827a91.81 91.81 0 0 1 1.595.61c.545-.155 1.14-.232 1.322-.918.189-1.666 1.819-2.15 2.672-3.276 1.05-1.26 2.07-2.57 3.833-2.892.294-.287.595-.567.881-.854-.566-1.631.952-1.8 1.742-2.471-.049-.196.014-.322.224-.364.259-.287.504-.588.762-.875.26-.098.525-.203.784-.301v-.014c.147-1.037.993-1.674 1.497-2.5-.014-.203-.021-.413-.028-.609.237-.147.49-.294.727-.434.35.112.707.231 1.063.343.084-.16.168-.329.245-.51.595-.519.812-1.667 2-1.184a.223.223 0 0 1-.07-.147c-.062-.042-.125-.07-.174-.12-.406-.531-.378-1.021.16-1.455 1.015-.82 2.043-1.631 3.057-2.437 1.616-1.47 2.693-3.507 4.77-4.501.707-.98 1.414-1.96 2.47-2.597.315-.295.623-.582.937-.862 3.54-4.151 7.534-7.84 11.633-11.418 1.531-1.274 3.063-2.534 4.588-3.801.308-1.1.546-2.297 2.176-1.779a.48.48 0 0 1 .524.056c.035.05.05.098.07.147.21-.105.406-.21.609-.322.007.014.014.014.014.028 0-.014 0-.014.007-.028h-.021c.049-.112.098-.224.133-.336-.014-.007-.021-.007-.028-.014a1.494 1.494 0 0 1-.35-.308c-.007.007-.014.021-.021.014-.189-.07-.364-.14-.546-.217a.534.534 0 0 1 .182-.427c.462-.623 1.105-.147 1.644-.245l.028.245.594-.105c.26.357.33.637-.251.68a.99.99 0 0 1-.231.44l-.259.196c-.049-.07-.098-.14-.14-.21.021.084.05.175.077.266-.02.05-.063.084-.09.126.139-.028.251.042.342.217-.238.14-.483.28-.72.42-.112.084-.196.12-.266.098 0 0 0 .007-.007.014a.907.907 0 0 1-.455.371 4.09 4.09 0 0 0-.287-.049c-.028.12-.056.231-.077.343-.007.105-.02.196-.035.287a.753.753 0 0 1 .245.028c.035-.07.056-.14.077-.21.273-.168.42-.098.434.224a.482.482 0 0 1-.126.218.936.936 0 0 1 .16.175.946.946 0 0 1-.076.616c-.196.252-.469.392-.777.483a.985.985 0 0 1-.552-.056c-.035.112-.12.189-.252.23l-.098-.013a3.83 3.83 0 0 1-.322.238c-1.58.672-2.686 1.918-3.749 3.206-.378.28-.776.441-1.217.33a1.952 1.952 0 0 1-.168.37c-.469.532-1.07.924-1.539 1.45-.322.35-.657.7-1.014 1.015-1.224.826-1.966 2.156-3.07 3.108-1.63 1.141-2.659 2.898-4.19 4.158.23.07.468.14.692.21.133 1.205-.826 1.75-1.462 2.493-.595.483-1.161.98-1.93 1.176a.53.53 0 0 1-.49-.266h-.007c.028.042.049.09.077.14.154.385.063.721-.168 1.036-.336.287-.7.455-1.091.35a2.054 2.054 0 0 1-.238.77 3.743 3.743 0 0 1-.427.553c-.07.777-.727 1.512-.315 2.339-.119.448-.356.798-.811.966-.14-.26-.287-.532-.42-.791.21-.54.58-1.065.056-1.61-.028 0-.049 0-.077.006 0 .917-.468 1.394-1.252 1.576l-.02.098c-.043.238-.113.469-.204.7-.272.56-.657 1.015-1.196 1.33-.245.07-.475.063-.706-.035a.63.63 0 0 0-.07-.063c-.161.42-.413.72-.853.77.048.399.048.805-.063 1.204-.406.75-1.169 1.162-1.756 1.743-.329.175-.686.224-1.05.231a2.96 2.96 0 0 1-.356-.02c-.245.783-.154 1.84-1.063 2.1a5.385 5.385 0 0 1-.182.238 2.848 2.848 0 0 1-.623.434v.02c-.314.77-.874 1.002-1.525 1.016.42.273.756.616.952 1.099.224-.42.531-.61.951-.385.273-.364.147-.938.546-1.24.538-.35 1.098-.384 1.657-.16.084-.14.252-.245.434-.343.133-.056.28-.084.427-.105-.014-.021-.021-.028-.028-.042l-.042-.028c.007-.098.02-.182.028-.28a1.577 1.577 0 0 1-.287-.175c-.364-.483-.35-1.009-.203-1.54.161-.407.406-.736.798-.925 1.084-.16 1.42.7 1.881 1.386a3.912 3.912 0 0 0-.028.49c-.112.176-.224.344-.343.512v.56c.063.23-.02.392-.23.483l-.26-.05-.258-.104c-.105.49-.364.826-.86.938l-.231-.098s-.07-.007-.126-.028v.014c.154.896-.336 1.435-.881 1.946.181.105.384.217.608.238.168.042.35.098.518.161-.224.68-.441 1.351-.665 2.03-.461-.02-.972-.679-1.413-.413a3.701 3.701 0 0 1-.133.77c-.874.855-1.706 1.75-2.714 2.444-2.231-.763-2.035 2.135-3.602 2.387-.51.63-.692 1.337-.56 2.142-.321.49-.839.315-1.287.357a1.41 1.41 0 0 1-.566.014c-.21.742-1.05 1.288-.812 2.17.007 0 .014-.006.021-.006.168 0 .308.056.455.126-.189-.763.322-1.107 1.098-1.275.161.266.315.54.476.799.049 1.477-.783 2.506-1.749 3.465-.853.637-2.392-.084-2.777 1.442l-.265-.049-.252-.09c-.315-.498-.203-1.009.02-1.513.49-.938 1.28-1.603 2.078-2.29-.811.288-1.525.673-1.867 1.54-.035.022-.07.043-.098.057-.063.16-.12.308-.19.462-.272.749-.783 1.19-1.615 1.197-.734.133-1.231.546-1.532 1.232-.154-.02-.3-.035-.455-.063-.342.434-.699.882-1.049 1.323-.636.21-1.028.967-1.811.834-.763.35-1.085 1.015-1.273 1.77.195.064.391.134.587.19-.378.658-.77 1.316-1.147 1.974l-.175-.105c-.035.483-.252.847-.692 1.064-.532.371-1.064.756-1.588 1.141a58.4 58.4 0 0 0-1.28.868c-.182.098-.371.203-.56.301 0 .014.007.028.007.035-.105.546-.455.89-.902 1.19a3.024 3.024 0 0 1-.798.288c0 .574-.42.924-.832 1.28a1.662 1.662 0 0 1-.44.197c.307.448.153.826-.77 1.12-.735-.161-1.917 1.323-2.231-.315a2.743 2.743 0 0 1-1.008-.14c-.112.245-.461.3-.776.378-.294.028-.58.049-.867.07a.665.665 0 0 1-.063.147c-.35.49-.847.798-1.26 1.204-.692.567-1.14 1.295-1.482 2.114.412.161.685.448.776.917-.126.904-.608 1.688-.846 2.556-.182.504-.406.973-.749 1.393a2.943 2.943 0 0 1-1.713.924h-.021c.07.455-.238.707-.581.945.154.161.259.35.322.567.056 1.575-1 1.435-2.029 1.33-.545.154-.972.519-1.455.806-.286.147-.587.182-.881.063-.44.37-.874.742-1.315 1.106-.014.133-.021.266-.028.385a2.616 2.616 0 0 1-.245.714 4.512 4.512 0 0 1-1.755 1.351c-.364 0-.553-.168-.679-.399a1.639 1.639 0 0 1-.189.385c-.727.287-.259.98-.482 1.442-.245.42-.581.693-1.036.791.168.455-.105.777-.468 1.092-.665.35-1.266.813-1.994 1.086a1.13 1.13 0 0 1-.713-.168c-.399.707-.714 1.463-1.064 2.198-.042.084-.104.147-.16.23l.58.064c.315.105.476.315.567.602.28-.133.566-.098.867.028.077-.497.385-.875.665-1.267.398-.462.888-.68 1.496-.574.112.042.217.084.308.14.483.448.21.875.028 1.295.007 0 .014 0 .014.007.28-.21.58-.4.784-.623.433-.434.888-.84 1.35-1.24-.357-.097-.686-.076-.987.246-.272.098-.49.035-.657-.203-.161-.735.245-1.247.664-1.765.588-.574 1.078-1.302 1.959-1.4.007-.035 0-.063.007-.098.056-.238.16-.448.294-.65.391-.456.811-.862 1.217-1.31.363-.343.783-.546 1.3-.476.176.035.35.112.49.196.056-.238.12-.462.168-.693a.84.84 0 0 1 .19-.476c.174.007.349.028.517.063.07-.168.168-.287.294-.315-.014-.105-.021-.224-.014-.343.083-.427.28-.805.573-1.12.951-.483 1.798-1.758 2.938-.735.02-.028.056-.05.077-.07-.007-.029-.021-.05-.028-.078-.042-1.344.846-2.289 1.476-3.339.182-.224.405-.385.685-.504a1.626 1.626 0 0 1 1.52.404c-.19-.368-.155-.736-.002-1.118.392-.68 1.063-1.106 1.546-1.708.196-.182.427-.301.671-.385.385.056.644.28.84.595.168-.154.336-.315.497-.47a.686.686 0 0 0-.301-.132c-.154-.413-.098-.82.105-1.212.307-.469.7-.847 1.245-1.022.196-.966.755-1.477 1.685-1.526 0-.02.007-.042.007-.056.238-.714.637-1.232 1.483-1.232.33.049.805-.343 1.154-.266a27.764 27.764 0 0 1 1.826-1.554c-.413.133-.832.182-1.266-.035.021-1.603.7-1.967 2.036-1.085.153.07.321.14.482.189-.056.056-.112.098-.154.147.294-.196.58-.392.882-.581a.494.494 0 0 1 .126-.084c-.182.049-.385.035-.637-.056.119-.308.245-.623.357-.939.084-.469.336-.826.811-1 .35.37.308.811.217 1.26a2.586 2.586 0 0 1-.287.448c1.553-1.093 2.875-2.59 4.323-3.865 1.147-2.87 4.225-3.843 6.009-6.126.818-1.057 2.049-1.785 3.091-2.667.427-.35.854-.707 1.28-1.057 1.54-1.603 2.75-3.564 4.869-4.537 1.916-1.708 3.833-3.423 5.742-5.138.93-.868 1.86-1.723 2.798-2.59.007.013.014.013.021.013 1.693-2.436 4.141-3.948 6.701-5.313.203-.182.42-.364.623-.553 3.371-4.096 7.386-7.512 11.702-10.558.476-.756.553-1.925 1.875-1.792.692-.315 1.119-1.148 2-1.092.993-.784 1.987-1.568 2.973-2.352.322-.736.902-1.205 1.595-1.548 3.203-4.361 7.05-8.023 11.765-10.711 2.79-3.381 5.77-6.497 9.352-9.087 2.462-1.785 4.54-4.096 6.792-6.168 3.078-3.584 7.31-5.629 11.15-8.163 2.35-1.554 3.952-4.081 6.75-4.999 1.23-1.099 2.476-2.19 3.707-3.283.273-.259.552-.497.832-.742.679-.623 1.357-1.24 2.036-1.862.818-.735 1.643-1.47 2.476-2.213 3.602-4.102 8.722-6.321 12.625-10.116 1.07-1.036 1.378-2.59 2.735-3.27 1.924-2.534 4.225-4.69 6.778-6.601 1.819-1.246 3.435-2.758 4.967-4.362.363-.93 1.21-1.407 1.986-1.939 2.994-2.45 6.002-4.893 9.002-7.337 2.477-1.834 4.834-3.843 7.205-5.818-.434-.105-.86-.21-1.294-.322-.168.098-.336.182-.504.273.014.126.035.252.056.379-.154 1.113-1.09 1.624-1.804 2.317-.714.518-1.371 1.169-2.337 1.239-.049-.014-.105-.021-.16-.035a1 1 0 0 1-.056.154c-.273.56-.79.672-1.35.714-.322.168-.644.336-.973.497-.014.091-.035.161-.049.252-.077.245-.21.448-.398.602-.26.133-.518.26-.77.4a.74.74 0 0 1-.706-.155c-.224.224-.448.441-.672.665-.259.301-.608.441-1.007.47h-.021c-.119.994-.888 1.42-1.938 1.596a47.876 47.876 0 0 0-.93-.112h-.007c-.531.952-1.05 1.918-1.588 2.877-.783.917-1.671 1.715-2.889 2.03-.132.308-.265.623-.398.931-.378.322-.707.19-1.05-.063-.216-.357-.23-.735-.14-1.12.07-.238.176-.462.301-.672.42-.462.693-.987.777-1.596a1.36 1.36 0 0 1-.238.329c-.413.385-.923.644-1.392.938-.196.133-.434.168-.664.26.384.405.363.811-.161 1.231-.175.532-.33 1.05-.497 1.575l-.259-.028-.252-.09a1.097 1.097 0 0 0-.195.307c-.35-.035-.7-.063-1.043-.098-.517-.308-1.084-.56-1.378-1.099-.014.042-.035.077-.042.126l-.007-.063c-.112.35-.216.7-.321 1.057.328.287.664.589 1.014.883-.322.343-.644.672-.951 1.022-.308-.364-.616-.714-.917-1.078-.175 0-.342-.014-.524-.021l-.021-.091c-.014-.007-.021-.007-.028-.007.014.035.035.07.049.098-.588.714-1.714 1.379-.19 2.26-.195.169-.398.344-.594.526-.79-.112-1.58-.21-2.364-.322-.399-.721-.154-1.393.105-2.065.084-.182.203-.343.329-.497-.182-.161-.35-.309-.525-.47.056-.252.112-.518.154-.777-.343.14-.713.217-1.098.203-.014 0-.021-.014-.035-.014.09.735-.406 1.212-.86 1.716a.917.917 0 0 1-.714.14c-.44-.203-.65-.553-.755-.96a7.08 7.08 0 0 1-.854.862 1.303 1.303 0 0 1-.741.259c.014.077.042.147.042.238-.343 1.4-1.315 1.827-2.651 1.736a1.797 1.797 0 0 0-.469-.133c-.238.728.588 1.337.413 2.058l.224-.063c.251.68 1.007.882 1.37 1.463.266.427.413.861.14 1.358-.384.477-.874.344-1.35.183-.538-.855-1.3-1.639-.937-2.745-.063.007-.133.028-.21.035-.552-.028-1.042-.182-1.455-.525-.237.357-.51.637-1.084.322.434-1.12.14-1.568-.671-1.547-.133.091-.266.189-.406.28-.3.196-.63.336-.986.371a1.562 1.562 0 0 1-.469-.133c.126.336.014.63-.21.903-.042.035-.077.056-.105.084.028.063.07.133.112.19.084 1.077-.475 1.721-1.343 2.162.497.147.994.287 1.49.427.084 1.219-.196 2.08-1.588 1.807.028.063.05.14.05.224 0 .259-.05.504-.162.742-.272.287-.538.58-.818.854.518-.322 1.063-.616 1.539-.987.203-.161.427-.301.63-.462.81-.546 1.384-1.54 2.427-1.617a.332.332 0 0 1 0-.26c.084-.111.14-.167.188-.153.47.679 2.931-2.003 1.917 1.14-1.056.498-1.028 1.59-1.336 2.493l-.266-.07-.252-.126-.007.028c.4.777.847 1.554-.23 2.205a.558.558 0 0 0-.413.042c-.357.056-.714.112-1.056.168h-.007c-.26.476-.518.96-.777 1.428 0 .659-.468 1.03-.874 1.436a2.082 2.082 0 0 1-.504-.105c-.405.112-.804.217-1.21.322-.308 1.463-1.7 1.785-2.686 2.548l.238.07c-.84.714-1.665 1.421-2.49 2.128-.37.05-.728.091-1.084.14-.518-1.456.79-1.974 1.448-2.814.412-.33.881-.518 1.42-.434a.879.879 0 0 1 .21.126c-.008-.021-.015-.035-.022-.05.091-1.77 1.294-2.596 2.742-3.199.21.014.385.091.532.238-.189-.483-.091-.854.119-1.19-.273.154-.567.26-.93.19-.126.202-.245.426-.371.636-1.126-.294-1.434 1.19-2.462 1.114-.91-.287-.812-.722-.161-1.226.3-.273.615-.539.93-.812.37-.245.742-.483 1.12-.728a.751.751 0 0 1-.043-.119c.105-.434.287-.777.51-1.064-.615.4-1.314.68-2.195.68-.525-.463-.483-.904.056-1.317.846-.378.81-1.302 1.21-1.946.503-.392.993-.791 1.49-1.183.195.07.384.133.573.203.714-.224.832-.833.923-1.443-.664.091-1.028-.196-1.23-.679-.183.147-.357.28-.532.434-.707.623-1.553 1.072-2.246 1.723-.958.77-1.706 1.77-2.798 2.38-.391.273-.79.539-1.182.791-.14.084-.258.175-.398.266-.26.427-.79.686-.987 1.155-.14.168-.28.245-.412.266-.042.063-.091.126-.133.19-.336.636-.714 1.238-1.224 1.75-.994.875-2.148 1.533-3.141 2.408-.574.427-1.056.938-1.56 1.442-.531.511-1.16.903-1.762 1.323-.665.434-1.322.89-2.127.791a.92.92 0 0 1-.189.91c-1.287.47-1.951 2.045-3.504 2.052-.05-.021-.077-.05-.119-.07.147.37.035.679-.28.938a1.011 1.011 0 0 1-.35.42c-.965 1.092-2.126 1.932-3.462 2.555-.86.924-1.399 2.29-3.008 2.163-.16.392-.308.784-.461 1.177-.826.182-1.532.945-2.484.518.742-.974 1.651-1.653 2.924-1.737.245-1.547 1.574-2.114 2.644-2.933.609-.875 1.238-1.75 2.239-2.247.608-.574 1.217-1.155 1.818-1.723 1.098-1.218 2.288-2.324 3.742-3.108 2.302-2.205 4.274-4.774 7.191-6.273.546-1.015 1.294-1.834 2.4-2.247 2.825-3.031 6.113-5.53 9.428-8.002.539-.742 1.175-1.38 2.029-1.778 2-1.267 3.602-3.13 5.917-3.935.336-.812.903-1.42 1.61-1.932.503-.861 1.405-.798 2.217-.931.237-.784.398-1.68 1.587-1.232.413-2.135 2.553-2.388 3.854-3.55.266-.574.77-.777 1.364-.833.79-.72 1.588-1.428 2.393-2.149.608-.707 1.23-1.414 2.238-1.582.539-.644 1.273-.924 2.077-1.078-.531-.952.476-1.317.763-1.96.329.49.21 1.344 1.098 1.386.042-.182.077-.357.119-.547.098-.413.315-.546.685-.294a1.743 1.743 0 0 0-.097-.287c.216-.749.74-1.218 1.42-1.575.405-.049.81-.105 1.217-.154-.056-.049-.12-.09-.175-.154-.056-.44.014-.798.517-.93.693-.288.574-2.031 1.945-1.1.329-.14.671-.28 1-.427.79-1.582 1.413-3.354 3.637-3.41a.465.465 0 0 1 .455-.07c.308-.462.79-.63 1.322-.693.16-.308.336-.609.497-.903-.315-1.407.657-1.701 1.678-1.953a165.14 165.14 0 0 0 1.525-1.113l.889-.826c1.958.952-.497 1.379-.252 2.135.133.224.266.448.406.672 1.07-.798 2.14-1.61 3.224-2.415.986-.7 1.98-1.4 2.973-2.093.154-.302.357-.596.65-.876.665-.434.847-1.253 1.392-1.77.728-.56 1.56-.988 2.092-1.779a5.048 5.048 0 0 1 1.168-1.988c-.832.469-1.595 1.148-2.658 1.057-.168.189-.336.37-.504.546-1.28.945-2.623 1.792-4.162 2.261-1.189 1.19-2.602 2.01-4.162 2.584-2.706 1.918-5.302 4.025-8.414 5.264l.028-.252c-.07.063-.147.12-.224.182.063.028.126.05.196.07v.98c-.623.378-1.147.96-1.966.931.077-.105.147-.196.217-.3a.5.5 0 0 0-.217.3c-1.378.883-2.518 2.157-4.183 2.57a.733.733 0 0 1-.112.399c-1.79 1.589-3.588 3.185-5.987 3.83h-.105c.147.384.294.783.44 1.168-.986 1.107-1.937 2.276-3.44 2.745-1.302.245-.952-1.015-1.4-1.568-.503.378-1.014.763-1.518 1.14-.07.225-.167.4-.286.568a7.146 7.146 0 0 1 1.049-.371c.622.007 1.23.007 1.154.903-.37.385-.734.756-1.098 1.134-.525.238-1.05.476-1.574.721-.672.77-1.623.7-2.511.826-.777 2.332-2.357 3.774-4.743 4.334l-1.566 2.156a5.819 5.819 0 0 1-1.931 1.897c-.16.035-.308.05-.462.042-.237.238-.475.476-.706.714-1.798.96-3.113 2.66-5.057 3.389a.789.789 0 0 0-.05.399c-3.189 3.178-6.693 5.93-10.813 7.84-2.665 1.646-4.876 3.963-7.757 5.286-4.484 3.585-8.954 7.162-13.423 10.733-1.14 1.316-2.512 2.352-4.036 3.185h-.007v.004l-.014.003c-3.659 3.43-7.967 5.958-12.045 8.814-3.987 3.683-8.968 5.84-13.458 8.751-.14.161-.294.322-.434.498-1.364 1.246-2.742 2.492-4.113 3.745-.504.826-1.147 1.505-2.063 1.883 0 .14-.042.26-.12.364-.503.12-.993.224-1.496.343-.378.511-.93.56-1.49.63.098.525-.196.855-.623 1.107a370.63 370.63 0 0 1-3.07 2.548c-.56 1.12-1.644 1.701-2.567 2.45-1.043.47-2.372.385-3.127 1.491-.154.196-.322.392-.483.602-.468.33-.951.54-1.546.42a1.344 1.344 0 0 1-.272-.119l-1.308 1.142c-.364.644-.833 1.148-1.63 1.218-.19.343-.392.686-.58 1.036-1.12.02-1.777.812-2.498 1.491-.539 1.218-1.37 1.96-2.784 1.862.329-.44.756-.833.951-1.337.4-1.036.063-1.414-1-.854-1.014-.448-.203-1.008-.098-1.54.182-.413.539-.49.938-.455-.133-.462.244-.714.545-.987-.266-.05-.51-.147-.713-.35-.014-.007-.021-.028-.021-.042-.301.217-.609.427-.917.637-.007.16 0 .322.021.483-.664.469-1.329.952-1.986 1.42h-.007c-.504.834-.993 1.681-2.085 1.87-.035-.364-.07-.742-.112-1.113.378-.483.756-.98 1.483-.75a1.15 1.15 0 0 1-.126-.63c.133-.258.287-.503.455-.727-.224.182-.44.37-.636.588-.441.406-.784.896-1.148 1.365-.657.791-1.503 1.148-2.51 1.197.013.042.02.091 0 .133-.05.112-.106.168-.155.168-.503.294-1 .581-1.503.875-.756.861-1.266 1.989-2.49 2.353-.553.588-1.12 1.162-1.672 1.75a29.19 29.19 0 0 1-.987.252c-1.105 1.519-2.804 2.352-4.147 3.591-.455.035-.91.07-1.364.112.014.105.014.217.007.33-1.05 1.4-2.672 2.114-3.91 3.29-.266.21-.54.42-.798.644.497.721 1.021 1.442.098 2.373-.888.581-1.77 1.19-2.651 1.778-.525.441-1.042.868-1.567 1.31-.65.826-1.44 1.526-2.378 2.009-1.21 1.05-2.973 1.421-3.784 2.982-.343.07-.693.154-1.036.217-1.587 1.141-3.05 2.416-4.126 4.082-.847.518-1.7 1.036-2.54 1.56-.671.638-1.343 1.29-2.014 1.933-.853.168-1.126 1.33-2.133 1.197-.294.287-.588.567-.868.854h-.007c.168 1.093-.615 1.87-.958 2.78-.853.385-1.455 1.659-2.686.784-.63.973-1.266 1.96-1.91 2.947-.552 1.582-2.042 2.38-3.091 3.543l-.26.056-.272-.014-.035.028c-.7.833-1.469 1.547-2.539 1.869-.672.777-1.35 1.561-2.022 2.331-.468.714-1.084 1.281-1.706 1.855-.868.673-1.7 1.359-2.525 2.073-.882.826-1.826 1.582-2.75 2.345-.153.196-.314.371-.475.56-.595.623-1.308 1.085-2.035 1.554-.014.007-.035.014-.05.021.133.56.203 1.148.686 1.561-.532.61-1.05 1.205-1.58 1.8-.567-.147-.924-1.148-1.693-.4.02.197.035.4.048.596-.72.238-1.44.469-2.168.707a310.72 310.72 0 0 1-2.637 1.904c-.147.21-.287.42-.434.63-.342.245-.678.483-1.014.728-.461 1.526-1.777 2.29-2.854 3.27-.986.854-2.105 1.554-2.952 2.569-.461.497-.944.966-1.468 1.407.51-.252.93-.994 1.524-.553.161-.469.273-.952.525-1.38.434-.496.958-.79 1.623-.77.09.036.147.078.224.12.307-.224.615-.434.923-.658 0-.154.014-.301.035-.455.595-.42 1.19-.861 1.784-1.288a5.5 5.5 0 0 0-.007-.589c.307-.819.734-1.498 1.72-1.575 1.791.553 1.036 1.848.868 2.976-.455.637-.336 1.694-1.371 1.932-.357.364-.714.728-1.077 1.085-.882.637-1.75 1.281-2.624 1.918-.678.616-1.363 1.232-2.056 1.841-.853.358-1.05-.35-1.357-.86v-.015c-.497.343-1 .7-1.49 1.05-.133.218-.266.435-.406.659-.258.21-.51.427-.769.644a.485.485 0 0 1 .049.16c-.672 2.584-3.309 3.424-4.7 5.377-1.82 1.373-3.036 3.403-5.093 4.488-.16 1.876-2.028 1.967-3.05 2.947.015 1.45-1.853 1.148-2.154 2.304-1.497.427-2.056 2.05-3.385 2.688a1464.99 1464.99 0 0 0-3.225 3.486c-1.133.714-1.469 2.346-2.98 2.626-.182.21-.363.413-.538.609-.098.532-.19 1.05-.287 1.575.147-.049.3-.084.462-.077.035.007.056.028.084.035.657-2.037 2.273-3.13 4.036-4.096.49-.406.979-.812 1.468-1.197.301-.294.609-.588.91-.875.482-.567.846-1.708 1.727-1.211.93.54-.398 1.134-.37 1.792-.203.007-.406.007-.609.014-.51.441-.993.903-1.497 1.351-.133.995-1.56 1.128-1.483 2.255-.37 1.512-1.797 1.82-2.86 2.548a.616.616 0 0 1-.567.098c.007.014.028.028.028.049.3 2.1-1.028 3.423-2.26 4.81-1.517.65-2.09 2.59-3.867 2.884-1.246.658-1.546 2.1-2.484 3.003-.188.616-.412 1.219-1.049 1.52-.322.112-.636.112-.937-.028v.007c.147.847-.392 1.379-.916 1.904-.504.406-.98.86-1.42 1.337.433-.154.86-.259 1.014.63-.273.728-.707 1.246-1.546 1.24.196 2.001-1.168 3.122-2.47 4.29-.405.477-1.076.596-1.489 1.086-.818.651-1.644 1.302-2.462 1.953-.308 1.68-1.014 3.116-2.497 4.075-.63 1.498-2.099 2.31-3.03 3.563-.608.756-1.14.364-1.678-.09-.343.643-.56 1.406-1.44 1.581-.295.658-1.316.476-1.477 1.295-.21.175-.405.365-.615.54-.539.994-1.79.812-2.483 1.547-.091-.056-.168-.126-.26-.182-.489.056-.992.112-1.489.175l-.084-.847c-1.014.574-1.553 1.687-2.56 2.268-.175.189-.35.385-.525.567-.105.686-.196 1.38-.902 1.743-.203-.728-.273-1.435.028-2.135-.028-.035-.042-.084-.07-.133.007-.54-.16-1.113.245-1.603.154-.203.294-.406.455-.61.748-.916 1.58-1.77 2.378-2.667.391-.273.671-.763 1.245-.72.049.013.07.034.112.048.657-.714.923-1.554.734-2.541.336-.252.679-.49 1.014-.742l-.077-.084c.714-1.1 1.427-2.198 2.547-2.955.49-.595.972-1.21 1.454-1.82l.462-1.127c.434-.518.504-1.59 1.546-1.197-.007-.028-.007-.056-.007-.091.3-.581.602-1.176.916-1.757.21-.378.406-.742.616-1.12.294-.232.587-.47.874-.7.889-.869 1.763-1.737 2.644-2.605a2.019 2.019 0 0 1 0-.616c.252-.553.427-1.218 1.175-1.022-.098-1.904 2.029-2.513 2.525-4.068.126-.217.273-.406.427-.602.84-1.07 1.882-1.932 2.896-2.814.189-.161.378-.308.567-.441.95-.7 1.91-1.386 2.434-2.506.433-.729 1.007-1.359 1.497-2.038.818-.924 1.063-2.296 2.3-2.863a.875.875 0 0 1 .484.105c-.343-.714.35-1.03.594-1.526.504-.686.916-1.477 1.707-1.904.084-.035.168-.084.259-.12a417.48 417.48 0 0 1 2.637-2.324c.147-.224.28-.462.398-.707.182-.329.406-.63.65-.91l.064-.063a1.634 1.634 0 0 0-.916-.616c-.091.084-.182.154-.26.238a5.09 5.09 0 0 1-1.237.875c-.042.014-.077.028-.112.042-.021 1.008-1.126 1.38-1.63 2.093-.126.112-.252.21-.378.322l.063.588c-.454-.112-.86.449-1.322.344-.028.014-.049.028-.077.042a2.397 2.397 0 0 1-1.021.3c.042.078.098.155.126.246.098.707-.014 1.4-.217 2.079-.168.189-.336.357-.518.546-2.217-.707-.517 1.582-1.426 1.883 0 .168.02.322.048.476-.363.217-.713.427-1.084.63-.503.448-1.007.903-1.518 1.358-.664.63-1.329 1.26-1.993 1.905l-.028-.091h-.007c.014.028.02.056.035.09 0 .155 0 .295.007.449-.336.049-.665.105-1 .168.056.09.105.175.133.273-.133 1.169-.86 1.911-1.763 2.527-1.182.26-2.078 1.638-3.47 1.071-.251.707-.867 1.092-1.412 1.54a1.09 1.09 0 0 1-.14.112c.188.512.573.533 1.238.197.566-.28 1.049-1.198 1.895-.477.021 1.254-1 1.849-1.644 2.696-.56.413-1.07.924-1.797 1.064-1.07-.728.427-2.198-.714-2.926-.517.854-1.16 1.617-1.818 2.373.594.7.566 1.61.594 2.5-.077.881-.426 1.644-1.09 2.246a1.623 1.623 0 0 1-.686.294c-.763-.308-1.553.07-2.323-.035-.042-.014-.084-.014-.119-.014.007.007.021.014.035.028.28 1.037-.531 1.45-1.126 1.996-.294.224-.594.399-.965.434-.637.714-1.126-.056-1.679-.252-.014.049-.028.098-.049.147-.175.434-.433.84-.741 1.21.154.274.16.575.028.911-.658 2.38-2.854 3.697-4.022 5.727-.336.266-.672.532-1.007.79-.343.064-.693.12-1.036.183-.049.09-.112.182-.16.287-.217.413-.476.805-.917 1.043-.035.007-.07.007-.098.014-.245.714-.832 1.134-1.399 1.582.154 1.59-1.797 2.045-1.895 3.5a.9.9 0 0 1-.483.12c-1.65 2.009-3.302 4.004-4.952 6.013-1.952 3.802-4.778 6.882-8.002 9.613-.147.217-.28.434-.427.65-.553 1.128-1.196 2.164-2.56 2.458-.686 1.757-2.33 2.317-4.148 2.835a939.385 939.385 0 0 0 3.35-4.522c2.085-2.969 3.61-6.343 6.254-8.912.28-.931.783-1.673 1.63-2.164.174-.245.35-.51.531-.763-.147-.392.07-.539.406-.609.65-.833 1.308-1.659 1.965-2.478.434-.427.875-.833 1.301-1.253.483-1.057 1.225-1.904 2.155-2.612.448-.546.902-1.099 1.343-1.645.503-1.015 1.091-1.946 2.126-2.485.084-.315.196-.588.602-.497.09-.14.203-.161.343-.084-.105-1.057.678-1.652 1.273-2.331 2.525-2.899 4.812-6.021 7.84-8.45.595-1.184 1.302-2.262 2.379-3.067.567-.784 1.12-1.596 2.056-1.988.35-.54.693-1.071 1.029-1.603.384-.672.937-1.197 1.504-1.688.007-.007.007-.007.014-.007-.12-.763.643-1.225.95-1.84 1.036-.673 2.057-1.338 3.1-2.003a1.21 1.21 0 0 1 .007-.476c.496-.798 1.154-1.47 1.748-2.198.056-.056.112-.098.175-.147a23.479 23.479 0 0 1-.119-.742l1.021-1.17c.336.154.679.301 1.008.455.426-.399.86-.798 1.273-1.183.468-.616.923-1.225 1.385-1.84.664-.631 1.343-1.261 2.014-1.884.812-1.582 2.162-2.646 3.505-3.725.16-.35.321-.707.49-1.07-.008-.337-.029-.68-.036-1.009.959-.588.84-2.01 1.91-2.5.664-.636 1.322-1.26 1.972-1.882.945-1.807 2.532-3.004 4.001-4.32.364-.371.72-.763 1.078-1.155.81-.833 1.63-1.666 2.427-2.506.552-1.163 1.727-1.709 2.546-2.605 2.903-3.157 5.806-6.329 9.149-9.052l.553-.994c.56-.742 1.189-1.428 1.902-2.03 1.483-1.162 2.623-2.794 4.554-3.34.014-1.526 1.532-1.827 2.238-2.78.476-1.063 1.679-1.273 2.4-2.043 2.399-2.066 4.798-4.145 7.204-6.217.602-.266 1 0 1.315.476.965-.847 1.945-1.701 2.924-2.548.168-.028.322-.084.475-.168.35-.518.7-1.037 1.043-1.555.748-1.183 1.874-1.939 3.077-2.583.72-.588 1.602-.987 1.994-1.918.238-.217.42-.511.601-.805a3.212 3.212 0 0 1-.63.287c-1.041.168-.936-.448-.748-1.106 1-.854 2.008-1.723 3.015-2.577.336-.378.679-.749 1.028-1.127 1.392-1.232 2.784-2.457 4.176-3.69 1.064-1.574 2.651-2.583 4.078-3.759.406-.924 1.21-1.393 2.057-1.82.51-.427 1.028-.833 1.546-1.26l1.93-1.911c.553-.406 1.105-.812 1.644-1.212.028-.133.035-.259.02-.392.931-1.008 1.624-2.324 3.156-2.506-.056-.056-.126-.119-.168-.182.874-.889 1.797-1.694 3.063-1.988.042.028.084.049.126.084 0-.035-.007-.063-.007-.098l-.119.014c.581-1.148 1.567-1.827 2.637-2.436.693-.61 1.392-1.233 2.085-1.842 1.147-1.35 2.469-2.499 4.036-3.332 1.028-.987 2.007-2.037 3.406-2.506h.007a7.341 7.341 0 0 1 2.791-2.402c1.532-1.267 3.07-2.548 4.603-3.822l4.54-3.85c.454-.239.713.013.937.363a1.44 1.44 0 0 1-.014.77c-.266.455-.693.75-1.112 1.037-1.301.469-1.994 1.967-3.442 2.184.05.245.05.49.028.728 1.028-1.176 2.378-2.002 3.61-2.968.552-.414 1.203-.722 1.622-1.324.574-.364 1.07-.854 1.756-1.057.154-.035.322-.077.49-.119.076-.105.153-.21.237-.315-.853-.175-1.91-.16-1.427-1.638.462-.273.93-.56 1.392-.847.56-.4 1.12-.812 1.68-1.211-.106.735-.21 1.484-.316 2.219-.056-.042-.112-.091-.168-.126a.382.382 0 0 0 .168.126l.007.112c1.182-.238 1.707-1.302 2.532-1.981a1570.09 1570.09 0 0 1 5.715-4.418c.826-.86 1.658-1.708 2.49-2.555.12-.343.343-.581.595-.77-.392.077-.79.056-1.224-.196l-.259-.014-.252.035c1.322-1.106 2.12-2.87 4.022-3.242 1.098-1.42 2.82-2.016 4.19-3.101.91-1.267 2.462-1.638 3.63-2.57.553-1.47 1.896-1.288 3.071-1.456.07.084.154.161.23.239l.127-.106a3.108 3.108 0 0 0-.357-.133c.755-.595.28-2.1 1.637-2.233.475-.469.958-.93 1.44-1.393 1.176-.896 2.071-2.618 3.876-1.75.23-.238.455-.47.678-.707.525-.68 1.35-1.036 1.777-1.814 1.973-1.673 4.008-3.276 6.218-4.648 4.043-3.094 8.065-6.203 12.122-9.29.86-.658 1.805-1.204 2.721-1.8 5.316-4.277 10.339-8.926 16.018-12.762.65-.448 1.175-1.197 2.113-1.106.468-.42.937-.84 1.399-1.26.713-.89 1.58-1.576 2.665-1.947.356-.644.874-1.078 1.616-1.19 1.16-1.225 2.595-2.058 4.126-2.751 6.646-5.636 13.738-10.683 20.908-15.598a1.123 1.123 0 0 1-.147-.343c.392-.77.867-1.995 1.784-1.428.21.119.314.266.356.392 9.849-6.735 19.614-13.603 29.26-20.646.587-.42 1.217-1.015 1.881-1.113 6.645-.896 11.737-5.475 17.914-7.477.343-.112.706-.196 1.063-.28 1.273-1.085 2.742-1.722 4.393-2.01.342-.223.951-.076 1-.713-.343-1.443.595-2.115 1.623-2.738 1.007-.616 1.154.343 1.567.812 4.4-2.758 9.19-4.886 13.08-8.408 1.67-1.959 4.151-2.149 6.367-2.903 0 0-.002.002-.002.005l.007-.007c.217-.35.539-.546.916-.637.231-.028.462-.084.679-.133.853-.707 2.063-.791 2.973-1.407a.559.559 0 0 1 .133-.54c3.35-1.26 6.03-3.829 9.505-4.837.756-.595 1.385-1.421 2.498-1.4.923-.455 1.846-.903 2.763-1.358l-.028.007c1.79-1.884 4.161-2.514 6.56-2.983.847-.16 1.973-.812 2.7.378v-.007c2.449.861 4.463-.133 6.373-1.533.664-.133 1.182-.476 1.532-1.057.02-.455.077-.952.566-1.092.63-.168.679.385.72.798.07.693.42.91 1.071.75.014.097.056.195.09.3.036-.014.064-.02.099-.035a3.11 3.11 0 0 1-.189-.266c2.819-1.372 5.4-3.248 8.457-4.151.314-.28.727-.68 1.07-.652.175-.91.259-1.946 1.937-.819a4.13 4.13 0 0 1-.272 1.373c.16-.063.3-.12.468-.126a.717.717 0 0 1-.007-.589l.05-.049c-.106-.315.146-.735-.148-.987.462-.805.938-1.575 1.924-.574l.007-.07c.014.021.014.028.028.042 1.833-1.624 2.805-1.806 3.602-.65-.706.923-.154 2.716-1.986 2.856l.028.077c-.427.245-.952.448-.455 1.078-.147.847-.308 1.68-.462 2.52.497 1.323-1.42.441-1.308 1.421-.007.434-.272.917.224 1.274-.503.581-1.084.091-1.623.133.483 2.227-1.434 2.997-2.574 4.243-.454.3-.909.609-1.343.91-.203.455-.391.903-.587 1.351-.26.49-.616.672-1.147.525-.147.581-.693.812-1.106 1.17-.056.398-.118.79-.174 1.183-.56.497-1.197.72-1.931.462v.105c-.119.37-.238.735-.35 1.113.329-.035.658-.07.945.14.286-.728.713-1.113 1.51-.644.175.056.357.119.539.182-.525.427-1.042.86-1.56 1.288l.007-.238c-1.497.392-1.525 2.002-2.399 2.912 2.567-.658 5.085-.959 7.743-.707.252.042.49.098.735.14 3.441-.952 6.449.714 9.596 1.61 1.28-.329 2.057.4 2.75 1.317 1.538-.288 2.811.455 4.063 1.169zm-65.212-5.285l-.005.002.005-.002zm-113.238 89.422v-.003c.001 0 .002.001 0 .003zm-85.213 101.744l.037.035a1.148 1.148 0 0 1-.02.077c.034-.035.076-.07.111-.105a.773.773 0 0 0-.128-.007zm7.983-15.619c.21.056.406.161.574.301-.014-.51.28-.763.804-.805.05.014.091.021.14.035.098-.434.196-.882.3-1.316l-.699-.308c-.056.028-.105.063-.16.084a.93.93 0 0 1-.54-.12l.008.204-.182.07c.112.105.196.266.23.532.015.539-.118.994-.475 1.323zm11.926-16.44c.266 1.913-.958 3.104-2.217 4.281-.308.4-.672.75-1.07 1.044-.028.021-.056.035-.07.05.524.539 1.23.336 1.902.308.084-.077.154-.154.245-.225-.119-.154-.203-.308-.126-.42 1.47-2.375 3.134-4.568 5.848-5.64 1.944-1.906 3.875-3.79 5.813-5.703-.05-.463-.35-.582-.679-.666-.112.098-.217.203-.329.308a70.36 70.36 0 0 1-2.56 2.838c-.587.63-1.21 1.198-2.07.385-.007-.014-.007-.028-.014-.035-.05.063-.105.14-.154.21-1.084.61-1.847 1.542-2.602 2.509-.567.47-1.175.799-1.917.756zm-8.245 6.239c.206-.006.374.092.516.288-.02-.287 0-.553.077-.77-.202.16-.405.307-.593.482zm-.023 0h.023a.64.64 0 0 0-.023 0zm-53.691 63.856a4.49 4.49 0 0 1-1.295.616c-.062.035-.111.084-.174.119-.294 1.043-.938 1.876-1.644 2.66-.105.21-.217.406-.364.595.091.49.259.952.707 1.253v-.007l.02.014c.133-.406.238-.833.77-.875.147.084.245.21.308.336.217-.217.454-.308.776-.126 0-.007 0-.014.007-.014a3.28 3.28 0 0 0 .028-.448c.273-.112.546-.238.812-.343-.084.343-.19.7-.273 1.057.16.084.336.126.51.154.126-.294.315-.413.532-.455.014-.042.042-.077.056-.119.014-.09.035-.182.056-.273a.513.513 0 0 1-.357-.196c.203-.714.413-1.414.609-2.135.014-.798.713-.938 1.23-1.253.253-.105.497-.161.75-.147-.4-.7-.413-1.365.279-1.967.224-.217.455-.441.679-.644-.056-.105-.105-.196-.14-.301-.063-.344-.14-.68-.098-1.002-.056.056-.105.112-.161.161-.693.82-1.462 1.576-2.176 2.388a2.297 2.297 0 0 1-.573.434.631.631 0 0 1-.343 0 2.491 2.491 0 0 1-.531.518zm-35.292 45.33c0-.272.098-.483.329-.616-.042-.035-.084-.056-.126-.098a1.28 1.28 0 0 1-.217-.98c.07-.098.147-.182.217-.266.476.21.938.14 1.38-.014-.014-.063-.035-.119-.035-.175.028-.896.51-1.582.98-2.268a1.122 1.122 0 0 1-.315-.133c-.28 1.141-1.695 1.428-1.996 2.555-.161.133-.33.168-.512.091.014.028.028.056.042.077.12.651.042 1.218-.413 1.639.224-.007.448.063.666.189zm4.58-7.168c.561-.21 1.15-.231 1.731-.19a.696.696 0 0 1 .056-.328l.154-.238c-.007-.063-.014-.133-.028-.196.028-.21.063-.42.105-.624a.57.57 0 0 1 .26-.308c-.022-.056-.029-.105-.05-.16.014-.106.035-.204.063-.288a.942.942 0 0 1-.581-.07c-.028-.02-.049-.049-.084-.077a3.72 3.72 0 0 1-.245.224c-.315-.098-.63-.203-.946-.3.105.377.035.748-.133 1.098-.126.175-.245.364-.371.554l.063.903zm5.304-7.19c.378-.224.791-.343 1.26-.14-.175-.252-.3-.511-.266-.777-.343.287-.714.567-.994.917zm6.926-8.205c.595-.497 1.184-1.008 1.779-1.512-.07-.26-.147-.526-.21-.785-.589.26-1.177.47-1.828.287l-.112-.133v.028c-.007 0-.007.007-.007.007a.365.365 0 0 1 .02.035c.288.897-.21 1.485-.84 2.01-.182.119-.357.238-.54.364 0 .014-.006.028-.006.042-.253.63-.253 1.358-.645 1.939a.746.746 0 0 1 .455.168l.442-.126c-.021-.147-.042-.294-.07-.448.098-.903.273-1.743 1.387-1.925.056.02.112.035.175.049zm39.928-43.546c.3-.224.734-.294 1.133-.42.007 0 .02 0 .028.007-.021-.105-.035-.224-.056-.336.182-.336.454-.546.79-.637l-.02-.126c-.267.126-.553.21-.82.336-.272.14-.524.343-.832.392.007.126 0 .26-.014.385-.063.147-.14.266-.21.4zm13.344-10.543a1.334 1.334 0 0 1-.463-.098c-.119.294-.23.588-.357.882l.063.084a7.418 7.418 0 0 1-.042.182.751.751 0 0 1 .19-.168.824.824 0 0 1 .616.091.905.905 0 0 1 .112-.126c0-.308.098-.588.28-.847.035-.056.07-.105.098-.154a.754.754 0 0 1-.308-.273 1.026 1.026 0 0 1-.19.427zm-3.992 4.18c-.42.286-.833.56-.966 1.057.19-.084.357-.154.539-.19l.881-.798a.636.636 0 0 1-.454-.07zm.062 7.245c.014-.105.035-.203.056-.294-.077-.357-.224-.679-.581-.917-.315.12-.644.245-.967.378-.217.77-.546 1.372-1.204 1.52.406-.015.917.006 1.59.055.35.021.693-.308 1.106-.315a1.74 1.74 0 0 1 0-.427zm.698-4.151c.168-.231.336-.47.525-.7-.12.056-.245.105-.357.14-.161.133-.231.308-.168.56zm18.37 28.647a8.316 8.316 0 0 1 1.945-.51c-.637-.106-1.47-.043-1.945.51zm51.846-49.125c.063-.294.146-.623.251-1.008-.251.133-.391.33-.328.672.02.12.049.224.077.336zM308.97 77.498c1.044.392.827-.42.827-.798v-.007c-.386.238-.778.462-1.184.679.119.035.238.07.357.126zm-22.794-2.464c-.482.763-1.322 1.155-2.014 1.7.182-.027.364-.062.56-.09.363-.658 1.357-.756 1.545-1.575-.028-.021-.063-.021-.09-.035zm.705 4.557c.168.75-.175 1.232-.638 1.666.28-.119.554-.23.834-.336v-.028c.07-.343.231-.616.504-.805-.014-.007-.02-.007-.035-.014a1.901 1.901 0 0 1-.518-.567.488.488 0 0 1-.322.056c-.007 0-.007 0-.014.014.063 0 .112.007.189.014zm4.028-4.894a.972.972 0 0 1-.301.26c.665.203 1.31.399 1.961.58a4.634 4.634 0 0 1 0-.44c-.336-.582-.07-1.107.091-1.66-.02.021-.035.042-.056.063-.49.392-1.002.476-1.52.203.07.343.021.672-.175.994zm4.67-.056c.106-.63.491-1.106.94-1.526.693-.448 1.246-1.253 2.248-.924.014.014.028.028.05.042l.083-.224c.098-.098.19-.196.301-.294.183-.294.358-.581.54-.875-.687-.35-1.471.707-2.137-.007a1.906 1.906 0 0 1-.175.112c-.154.896-1.008 1.421-1.31 2.233-.308-.049-.63-.119-.952-.182-.084.266-.161.54-.238.82.217.272.434.545.651.825zm4.921-3.661a2.7 2.7 0 0 1 .091-.784c-.217.168-.448.308-.742.329-.028.105-.063.203-.091.301.245.056.49.112.742.182zm45.265-38.367c-.37.126-.727.26-1.084.385.175.105.364.204.545.309.224-.14.448-.28.679-.42a1.449 1.449 0 0 1-.14-.274zm38.017-11.81c.028.315-.063.574-.301.735.3-.056.357-.385.448-.7-.056.006-.105 0-.147-.036zm1.79-11.55c.308-.203.637-.378.966-.553a13.037 13.037 0 0 1-.539-.035 2.623 2.623 0 0 0-.427.588zM187.304 139.701c.19-.315.462-.581.743-.833-.21-.582.077-1.198.105-1.786a.352.352 0 0 0-.084.014c-.127.75-.54 1.218-1.29 1.373.35.329.47.77.526 1.232zM398.367 1.657c-.056-.056-.112-.105-.168-.16a.7.7 0 0 1 .07.328c.273-.042.552-.042.825.007.014-.02.028-.035.042-.049a2.809 2.809 0 0 0-.77-.126zm-10.339 6.147c-.111.133-.223.266-.356.378 1.322-.553 2.665-1.043 3.777-1.953.182-.098.322-.084.42.042.202-.917 1.09-1.176 1.692-1.715.056-.021.12-.035.168-.056 0-.035.014-.063.014-.098a18.65 18.65 0 0 1-.531.119c-1.735 1.085-3.456 2.184-5.184 3.283zM146.77 162.272c-.378.336-.77.588-1.232.455.196.224.329.483.406.777.147-.434.49-.714.798-1.022.014-.021.035-.028.05-.042-.015-.056-.015-.112-.022-.168zm-24.426 20.526a1.89 1.89 0 0 1-.651-.126c.014.042.042.07.05.112-.029.385-.218.665-.435.917.343-.3.658-.658 1.036-.903zm-1.817 1.561c-.259.182-.518.35-.832.245 0 .014.007.021.014.035-.028.33-.21.602-.406.875.364-.427.818-.77 1.224-1.155zm-1.52 1.59c-.168.245-.3.518-.28.84.042-.322.14-.602.28-.84zm-66.896 68.118c.175.357.252.784.672.96.042.027.077.055.112.083.146-.182.293-.357.44-.525-.3-.294-.58-.595-.755-.959-.14.154-.294.308-.469.441zm7.893 2.086c.897-.924 1.78-1.876 2.683-2.8-.84.196-1.303 1.071-2.101 1.351.007.014.007.021.014.035a5.057 5.057 0 0 1-.596 1.414zm29.046-31.02c.21-.722 1.023-1.19.96-2.038-.953.763-1.45 2.275-3.117 1.904-.014.273-.035.553-.056.827-.525.28-1.016.616-1.338 1.12a.75.75 0 0 1 .4.224c.35-.336.679-.68 1.12-.91.224-.077.455-.091.694-.063.147-.645.679-.918 1.337-1.065zm86.79-77.738c.35-.33.707-.658 1.057-.98-.007-.014-.014-.042-.035-.056a8.247 8.247 0 0 1-.35-.35c-.35.272-.721.51-1.142.637a.68.68 0 0 1 0 .266 2.56 2.56 0 0 1-.434.637 2.27 2.27 0 0 1 .862-.273zm9.053-2.038c.385-2.198 2.651-2.485 3.868-3.85.14.028.287.028.434.028.133-.413.357-.763.63-1.078-.378.189-.826.28-1.379.196a2.522 2.522 0 0 0-.461-.021c-.44 1.26-1.581 1.771-2.623 2.38-.525.77-1.05 1.54-1.574 2.317.385.574.755.238 1.133.056-.014 0-.014-.014-.028-.028zm6.631-4.172c.44-.077.825-.364 1.266-.364-.07-.168-.084-.371-.112-.574-.28.44-.7.7-1.154.938zm123.983-85.173c-.413.4-.924.665-1.392.987-.49.308-.917.75-1.532.651.007.147-.028.301-.084.434.098.175.154.357.175.525.335-.392.664-.805 1.09-1.12.288-.175.595-.266.924-.16-.056-.435.294-.708.546-1.023l.273-.294zm-26.644 17.74c-.468.098-.93.154-1.322-.147.105.28.098.56 0 .847h1.232a.792.792 0 0 1-.098-.315.992.992 0 0 1 .188-.385zm35.16-2.744c.246.161.715-.056.701-.308v-.07c-.238.161-.47.28-.7.378zm47.851-11.152c.736.518 1.261.133 1.765-.315-.51.147-1.1.245-1.765.315z"/></g></g></svg>