<svg xmlns="http://www.w3.org/2000/svg" width="163" height="77" viewBox="0 0 163 77"><g><g><path fill="#fca08b" d="M51.727 35.224l-2.504 10.638c-1.84 1.86-4.14 1.695-5.513-.913-1.194-2.271-2.053-4.712-3.114-7.055-.973-2.148-2.016-4.264-3.175-6.705-1.693 1.618-2.64 2.89-2.813 4.81-.2 2.183-.845 4.323-1.178 6.5-.358 2.32-1.39 3.985-4.434 4.646-.922-.842-2.463-1.736-3.26-3.072-1.715-2.88-3.059-5.982-4.53-9.006-.533-1.096-.997-2.23-1.541-3.458-1.6.751-1.89 1.978-2.072 3.325-.405 2.982-.722 5.984-1.343 8.923-.512 2.41-1.885 4.312-4.373 5.143-4.097-1.445-6.225-4.435-7.23-8.33-.952-3.68-1.706-7.413-2.703-11.08C1.488 27.911.659 26.335 0 24.714c1.85-1.131 3.103-.993 4.012.94.894 1.898 1.45 3.987 1.907 6.048.589 2.683.9 5.425 1.397 8.13.434 2.358 1.634 4.226 3.937 5.701.563-.95 1.264-1.698 1.477-2.566.8-3.245 1.336-6.554 2.192-9.783.376-1.421 1.274-2.704 1.898-3.971 3.96-1.922 6.519-.605 7.348 3.69.552 2.845 2.605 7.21 4.252 8.989 1.762-3.985 3.511-7.946 5.354-12.112 1.16-.517 2.436-1.084 3.545-1.576 3.285.948 4.471 3.42 5.533 5.997.882 2.148 1.748 4.305 2.836 6.98 1.664-3.383 2.837-6.248 4.437-8.848 1.037-1.685 2.564-3.15 4.119-4.406 1.247-1.009 3.855-.405 4.953 1.326 1.397 2.204 2.405 4.68 3.386 7.115.55 1.371.707 2.896 1.197 5.036L71.498 27c3.834-.825 5.588.088 6.753 3.33.387 1.076.56 2.225.848 3.336.283 1.088.59 2.169 1.048 3.846 1.482-2.422 2.64-4.342 3.828-6.242.8-1.275 1.65-2.516 2.461-3.78 1.315-2.05 3.14-2.766 5.538-2.14 4.401 2.5 3.681 7.44 5.22 11.39 2.175-2.686 4.233-5.34 6.412-7.89 1.842-2.156 4.25-2.694 6.977-2.055 2.135.5 3.434 2.236 3.41 3.684l3.164 6.338c3.557-3.056 5.89-7.248 9.96-9.665l-.055-.064c1.463 1.278 2.114-.535 3.401-.884 5.666.772 7.292 5.707 9.644 10.302 1.962-2.074 3.796-4.006 5.937-6.266l4.33-1.853c3.116.833 5.308 2.633 7.049 5.124 1.54 2.202 2.69 2.715 5.577 2.731-.259 2.164-1.405 3.589-3.02 4.645-2.333-.615-3.832-1.922-5.058-3.625-.933-1.3-1.808-2.66-2.89-3.823-1.813-1.948-3.962-1.703-5.21.647-.62 1.171-.725 2.609-1.162 3.89-.936 2.736-1.645 5.637-4.57 7.072-3.223-1.395-3.964-4.36-5.02-7.251-1.109-3.035-2.269-6.226-6.214-7.432-1.827 1.046-3.77 2.156-5.711 3.266-1.85 4.216-.87 9.719-5.86 12.777-2.117-.974-3.57-2.515-4.276-4.882a100.382 100.382 0 0 0-2.672-7.802c-.464-1.187-1.306-2.23-1.895-3.205-2.637.205-3.949 1.802-4.751 3.495-1.312 2.76-2.317 5.694-3.178 8.636-.667 2.284-1.37 4.376-4.085 5.547-1.09-1.222-2.226-2.491-3.07-3.44-1.611-5.467-1.849-10.85-4.075-15.91-2.428 1.345-3.263 3.53-4.137 5.57-1.107 2.576-1.795 5.334-2.91 7.908-.548 1.27-1.647 2.3-2.604 3.575l-3.49-3.07c-.935-4.08-1.898-8.283-2.983-13.006-4.562 4.584-4.71 10.475-7.06 15.472-.85.487-1.765 1.006-2.652 1.512-2.323-.81-3.41-2.58-4.008-4.712-.647-2.308-1.117-4.666-1.828-6.953-.563-1.797-.915-3.815-3.333-5.023-1.237 1.765-2.423 3.463-3.613 5.161.035-.21.067-.42.027-.17-.074-.258-.021-.072.035.114"/></g><g><path fill="#fca08b" d="M92.734 59.219l.043-.048.031.058zm-.427-.944c-.242.059-.485.12-.728.181-.365 1.308-.727 2.615-1.09 3.923-1.864 4.297-3.015 9.269-8.025 11.618-1.812-1.079-3.388-2.434-3.956-4.648-.53-2.054-.984-4.124-1.525-6.176-.416-1.581-.912-3.141-1.482-5.084-3.314 1.762-3.949 4.465-4.396 7.404-.278-.34-.507-.62-1.075-1.307v6.51c-1.266 1.664-1.322 4.34-3.415 5.703-3.607-1.206-4.487-4.193-5.42-7.023-.914-2.772-1.453-5.669-2.343-8.448-.462-1.44-1.325-2.75-2.005-4.114-3.4 1.671-6.484 7.587-6.614 11.477-.339 1.178-.675 2.358-1.014 3.535l.331.127L46.16 77c-2.725-.983-3.828-2.623-4.316-5.15-.917-4.752-1.328-9.69-3.954-13.957-.565-.917-1.424-1.653-2.071-2.387-2.861.928-3.885 2.801-4.143 5.13-.254 2.263-.115 4.583-.49 6.821-.377 2.238-1.07 4.443-1.854 6.577-.256.694-1.24 1.119-1.829 1.613-4.041-1.113-5.108-4.49-6.443-7.5-.995-2.247-1.496-4.708-2.312-7.041-.482-1.377-1.149-2.692-1.914-4.454-2.183 2.65-2.909 5.378-3.676 8.02-.486 1.669-.446 3.495-.587 5.254-.205 2.559-1.36 4.387-2.927 4.539-1.57.151-3.36-1.332-3.938-3.747-.925-3.87-1.586-7.805-2.389-11.704-.338-1.65-.594-3.343-1.189-4.9-.413-1.09-1.34-1.985-2.127-3.09.786-1.361 2.077-1.061 3.367-.8 2.517 2.314 2.885 5.418 3.215 8.509.294 2.723.432 5.466.707 8.193.096.948.394 1.878.733 3.425 2.397-5.998 2.642-12.336 7.329-16.864l4.29 1.076c3.185 4.576 2.65 10.635 6.19 15.41 1.575-4.036 3.036-7.794 4.51-11.543.289-.734.534-1.51.963-2.156 2.773-4.156 6.86-4.042 9.094.428 1.735 3.47 3.044 7.151 4.54 10.742.197.473.381.951.794 1.993 1.253-2.53 2.224-4.643 3.333-6.678 1.184-2.169 2.535-4.247 3.748-6.397 1.043-1.85 2.677-2.447 4.676-2.45 2.981 1.422 4.538 3.866 5.148 6.992.451 2.298.806 4.616 1.317 6.901.179.797.702 1.52 1.312 2.788 1.624-3.74 3.053-6.976 4.439-10.231.91-2.137 1.866-4.213 4.43-5.347 2.987-.391 5.17.792 6.242 3.925.71 2.07 1.045 4.268 1.562 6.404.163.665.37 1.316.747 2.64l9.701-13.692c.75-.516 1.882-1.292 3.055-2.094 3.757.398 5.562 1.212 6.705 6.42.432 1.977.91 3.944 1.39 6.011 2.745-1.206 3.438-3.818 4.51-6.152 1.296-2.814 1.664-3.157 4.391-4.11 2.14.14 3.458 1.357 4.164 3.239.92 2.455 1.747 4.948 2.605 7.427.192.556.357 1.12.701 2.217 3.162-4.94 5.481-9.945 10.086-13.221 4.468-.234 5.915 1.565 6.926 5.222 1.986-.577 3.967-1.151 5.945-1.728l.096-.635c1.317.768 2.637 1.534 4.039 2.352-.72 2.312.03 4.898-2.282 6.902l-1.41-4.428c-2.308 1.306-1.842 3.645-2.665 5.366l.028.016c-.685 1.477-1.533 2.798-3.394 3.356-2.703-1.076-4.697-2.63-4.503-6.102.088-1.557-.384-3.162-.738-4.711-.179-.779-.67-1.483-1.112-2.413-2.21 1.318-3.554 2.82-4.252 4.9-1.099 3.263-2.224 6.516-3.33 9.761l-2.647 2.06c-.768-.226-1.605-.468-2.408-.702-1.565-2.668-3.164-5.068-3.356-8.32-.13-2.188-1.56-4.298-2.525-6.737a29989.18 29989.18 0 0 1-2.911 3.795c-.699 4.047-1.448 8.376-2.17 12.572-2.92 1.48-4.213-.646-5.727-2.107-2.13-5.39-2.202-11.382-5.201-17.234a4524.438 4524.438 0 0 1-3.62 3.957c-.157-.297-.315-.596-.47-.896zm-20.93 3.226l.373-.002c-.059-.12-.12-.239-.182-.358l-.191.36z"/></g><g clip-path="url(#clip-9D3CC649-A2E0-4CC6-A1F0-D7F4BCE16A82)"><path fill="#fca08b" d="M80.63 17.038c2.532-4.99 5.066-9.98 7.714-15.201C89.477 1.468 90.698.76 91.94.723c3.252-.102 4.56 2.456 5.501 4.969.939 2.496 1.383 5.178 2.117 7.758.516 1.81 1.263 3.502 3.377 4.454 3.491-5.732 6.927-11.376 10.197-16.753l3.281-.861c2.862.637 4.25 2.738 5.06 5.326.772 2.47 1.293 5.023 2.157 7.457.481 1.356 1.439 2.54 2.37 4.127.699-.928 1.092-1.372 1.395-1.87 2.13-3.484 3.93-7.239 6.47-10.38 1.63-2.018 3.31-4.585 6.541-4.74 1.91-.092 3.611.486 4.4 2.264 1.304 2.93 2.423 5.94 3.617 8.918.825 2.055 1.64 4.113 2.55 6.391l-.805.918c-2.59-.439-3.87-2.26-4.776-4.342-1.14-2.618-2.042-5.343-3.135-7.984-.426-1.022-1.096-1.942-1.686-2.967-2.244.936-3.69 2.109-4.435 4.258-.782 2.265-2.276 4.331-2.768 6.634-.694 3.25-2.237 5.517-5.308 6.892-3.427.296-5.672-1.391-6.839-4.719-.947-2.692-1.872-5.393-2.864-8.07-.569-1.533-1.255-3.026-1.888-4.535-.274-.03-.547-.06-.821-.092-1.037 1.485-2.276 2.868-3.064 4.476-1.523 3.116-2.57 6.484-4.246 9.502-.981 1.773-2.792 3.075-3.957 4.301-4.023-.153-5.906-2.354-7.028-5.219-1.108-2.821-1.802-5.807-2.794-8.68-.51-1.477-1.269-2.865-1.987-4.452-2.31 1.253-3.095 3.16-3.887 5.003-1.298 3.021-2.383 6.139-3.755 9.125-.633 1.38-1.73 2.542-2.396 3.489-2.693.274-4.113-.686-5.211-2.44-1.742-2.776-2.702-5.8-3.33-9.004-.438-2.235-1.223-4.4-1.855-6.596a72.774 72.774 0 0 0-.742-.156c-.593.775-1.343 1.474-1.745 2.34a64.59 64.59 0 0 0-2.417 5.946c-1.06 3.026-2.201 5.926-4.204 8.538-1.824 2.383-4.329 3.064-6.068.602-1.396-1.974-2.138-4.457-2.967-6.79-.596-1.675-.822-3.486-1.285-5.213-.223-.834-.614-1.619-.928-2.423a48.429 48.429 0 0 0-.62-.068c-.664 1.945-1.342 3.885-1.988 5.835-.864 2.62-1.654 5.267-2.569 7.869-1.074 3.05-5.265 3.2-6.227.045-1.04-3.405-2.122-6.8-3.143-10.214-.407-1.353-.702-2.741-1.154-4.538-1.867 1.993-2.444 4.084-2.861 6.206-.766 3.898-2.792 7.118-5.151 10.171-.207.266-.57.412-.819.587-2.622.118-4.04-1.515-4.816-3.594-.965-2.583-1.614-5.29-2.305-7.968-.399-1.536-.612-3.12-1.008-5.214-.577.872-.96 1.23-1.077 1.663-.906 3.373-1.69 6.781-2.653 10.136-.79 2.746-2.176 5.055-5.178 5.808-2.67-.926-3.696-3.14-4.398-5.464-.672-2.222-1.015-4.543-1.529-6.816-.385-1.722-.81-3.436-1.276-5.397l1.824-.785c1.654 1.42 2.239 3.182 2.532 5.054.303 1.948.42 3.925.765 5.865.258 1.442.753 2.84 1.141 4.258l.816.113c.673-1.372 1.505-2.69 1.99-4.13 1.345-3.978 2.467-8.032 3.828-12.005.838-2.45 1.965-3.005 5.212-2.76.415 1.593.952 3.344 1.32 5.13.595 2.895 1.007 5.827 1.645 8.71.277 1.238.92 2.395 1.399 3.586.231.011.462.022.694.035.97-1.861 1.989-3.698 2.903-5.587 1.362-2.808 2.564-5.695 3.992-8.466 1.297-2.52 1.856-2.663 4.985-1.872 3.032 4.482 2.654 10.26 5.077 15.425.797-1.816 1.643-3.613 2.38-5.453.794-1.985 1.355-4.078 2.276-5.996.595-1.245 1.489-2.475 2.55-3.33 1.518-1.221 3.8-.172 4.778 2.316.944 2.405 1.518 4.958 2.223 7.454.244.858.298 1.78.6 2.615.352.974.884 1.88 1.564 3.29.867-1.195 1.593-1.953 2.042-2.852 1.702-3.416 3.226-6.921 4.992-10.3C67.72 3.222 68.883.79 71.999.237c2.598.19 3.41 2.356 4.047 4.505.71 2.4 1.059 4.907 1.771 7.306.519 1.751 1.367 3.403 2.072 5.098.247-.038.494-.073.742-.108z"/></g></g></svg>