<svg xmlns="http://www.w3.org/2000/svg" width="1232" height="711" viewBox="0 0 1232 711"><g><g clip-path="url(#clip-1515012B-46ED-4916-B4FA-06C9B2E948D8)"><path fill="#b9d5ed" d="M1229.887 28.33c2.665 1.548 2.805 3.354.441 5.28-.35.286-.671.63-1 .944.014 2.745-.916 4.859-3.82 5.643-1.118.987-2.217 1.96-3.322 2.94-.175.603-.622.932-1.182 1.149-.469.476-.951.93-1.427 1.4a1.257 1.257 0 0 1-.587.616c-.007 0-.014 0-.028.02-4.24 4.411-8.709 8.577-13.521 12.378-.728.603-1.462 1.198-2.26 1.73h-.014a32.748 32.748 0 0 1-5.148 4.543c-1.497 1.428-2.959 2.885-4.847 3.795l-.021-.203c-.014.014-.014.02-.028.028l.049.175a22565.336 22565.336 0 0 1-24.132 21.044c-6.652 5.993-13.318 11.972-19.97 17.965-3.323 3.808-7.226 6.973-11.045 10.214-.707.595-1.434 1.141-2.154 1.708-.182 1.582-1.616 2.128-2.582 3.032a1566.78 1566.78 0 0 1-13.283 12.28c-.58.545-1.336.895-2 1.33-7.722 7-15.57 13.854-23.069 21.065-2.959 2.835-6.267 5.307-8.911 8.471-.602.714-1.168 1.687-2.336 1.73-.021-.078-.035-.148-.056-.218-.007 0-.014.007-.014.014l.07.203c-1.253 2.093-3.246 3.452-5.023 5.02-.273.259-.545.518-.818.763-3 2.723-6.002 5.426-9.016 8.135-.539.497-1.092 1.001-1.63 1.498-3.75 3.578-7.254 7.407-11.416 10.522-.258.21-.524.42-.79.638-.161.847-.993.945-1.532 1.386-1.7 2.016-3.532 3.885-5.715 5.362-.049.05-.105.098-.147.154-.23.266-.545.476-.93.525-.245.238-.49.47-.734.715l-.042.147h-.161c-.595 1.253-1.392 2.282-2.84 2.59-.308.28-.616.553-.916.833h-.007c-.224 1.295-1.148 1.827-2.316 2.072-.16.168-.328.322-.49.476-.097.154-.195.315-.314.448-1.273 1.849-3.029 3.165-4.833 4.404-.28.315-.644.504-1.015.686l.042.147-.147.084a9.962 9.962 0 0 0-.202-.378c.042.133.104.259.202.378-.832 1.38-1.783 2.604-3.469 3.003-.007.147-.084.217-.238.203-.846 1.59-2.014 2.836-3.798 3.396-.196.203-.392.392-.602.595-2.37 3.157-5.588 5.412-8.45 8.065-4.126 3.843-8.33 7.624-12.506 11.425-.532.483-1.021 1.044-1.819 1.086 0 .007 0 .014.007.014-1.531 2.744-3.917 4.557-6.645 5.971-.335.294-.664.595-1.007.89-.35 1.21-1.266 2.149-2.175 2.716-4.4 2.793-7.736 6.854-11.94 9.871-.553.497-1.105.994-1.651 1.491-2.161 2.282-4.407 4.467-6.96 6.287-.455.61-.902 1.211-1.35 1.82-2.49 1.918-4.721 4.166-7.12 6.189-.504.42-.868 1.372-1.707 1.12-.714.672-1.658 1.036-2.302 1.778-.769.35-1.357.945-2.007 1.443-.007.014-.014.02-.028.02-.818.708-1.609 1.457-2.147 2.43.007.028.014.042.02.07.05.42-.153.77-.328 1.12-.77.462-1.54.917-2.316 1.386-.678.623-1.356 1.24-2.042 1.862-.497.813-1.014 1.604-2.014 1.884-.413.665-.798 1.33-1.651 1.49-1.602 1.233-3.204 2.458-4.799 3.697-1.14 1.989-2.784 3.34-4.91 4.285-1 .448-1.72 1.519-2.567 2.31-1.336 1.281-2.21 3.053-4.064 3.774-2.057 1.792-4.113 3.591-6.176 5.383a5.41 5.41 0 0 0-1.35.714c-.497.448-.987.903-1.49 1.352-.875.798-1.658 1.7-2.644 2.373-.7.406-1.231 1.071-2.015 1.358-1.077 1.358-2.497 2.317-3.826 3.395a3.766 3.766 0 0 1-.413-.126c-.035.063-.077.12-.105.182-.02.504-.3.75-.804.75-1.182.098-1.287 1.358-2.042 1.904-.686.602-1.371 1.21-2.043 1.813-.126-.14-.252-.273-.378-.406.7-.882 1.4-1.757 2.092-2.632-.238-1.422 1.16-2.01 1.539-3.067 1.566-4.522 5.784-7.456 7.071-12.118.05-.182.26-.35.231-.497-.804-4.34 1.826-7.897 2.658-11.86.084-.238.203-.44.322-.58.86-1.611 1.595-3.27 1.602-5.147.007-2.093 2.252-2.037 3.084-3.325h.007c1-2.38 2.484-4.369 4.645-5.818.84-1.218 1.693-2.436 2.54-3.647-.21-1.505.139-2.394 1.902-1.722l.049-.14.147-.007c.363-1.219.58-2.5 1.447-3.5-.188-.736.91-1.198.406-1.996-.336-.546-.315-1.141.308-1.337.692-.21.364.812.664.854 1.238.154 1.532-1.288 2.519-1.596.454-.483.916-.973 1.37-1.443.483-1.897 3.071-2.61 2.673-4.942-.609.063-1.043 1.022-1.89.588-1.734 1.225-2.797 3.332-5.042 3.913.014.112-.014.196-.084.26-.539.875-1.021 1.904-2.33 1.015.196-.939.392-1.87.602-2.8.147-.883.797-1.38 1.441-1.884.23-.133.476-.21.727-.287.126-.413.238-.833.357-1.26-.028-.056-.063-.091-.084-.154-.468.574-1.021.987-1.846.889l-.7-.147c-1.042.315-2.084.63-3.12.952 1.364-1.582 2.148-3.71 4.393-4.278 1.007-.637.714-2.296 2.099-2.632.895-.735.706-1.708.601-2.681-.287-.798.63-.98.798-1.54.307-1.233 1.797-1.506 2.175-2.682.671-.427 1.497-.735 1.287-1.799.112-1.148 1.266-1.428 1.84-2.191.084-.07.153-.126.23-.182-.07-.091-.063-.21.035-.35.672-.854 1.343-1.709 2.008-2.563.329-1.428 1.091-2.576 2.252-3.451.462-.231.938-.266.917-1.078-.05-1.87.02-2.507.993-2.654a3.137 3.137 0 0 1-.58-.084c.111-.364.335-.623.594-.84-.091.028-.182.056-.294.063l-.706-.063c.391-.357.461-.735.321-1.148a.858.858 0 0 1-.538.112c-.147-.259-.294-.51-.434-.756-.154-.014-.308 0-.462.021-.237.098-.475.203-.713.301l-.238-.07-.252-.063c-.37.434-.755.868-1.14 1.295a3.656 3.656 0 0 1-.392 0c-.538.553-1.056 1.1-1.105 1.926-.056-.113-.119-.218-.182-.33a.575.575 0 0 0 .182.33c.077.203.161.427.252.65-.056.183-.105.365-.154.554-.154.406-.266.882-.853.896.07.399.14.812.203 1.225.7.336 1.189-.091 1.748-.42.847-.49.56.224.588.602-.937.833-1.434 2.324-3.057 2.22.035-.092.063-.183.084-.28-.357-.106-.706-.225-1.05-.337-1.055-.119-.419-1.82-1.664-1.75-.028-1.435 1.091-1.736 2.099-2.156-.525-.147-1.036-.021-1.54.182-.14.07-.286.14-.433.203-.07.056-.14.119-.203.182.273.854-.14 1.47-.727 2.009l-.07-.077c-.93.448-1.616.028-2.267-.476-.3.315-.601.623-.902.938-.895.812-1.763 1.68-2.623 2.527-.147.084-.28.14-.434.19-.042.44-.084.881-.125 1.344.014.252-.035.497-.154.735-.98.826-1.63 2.24-3.106 2.205-.014.02-.028.035-.035.049-.329.42-.706.784-1.133 1.1.357.517.503 1.12.601 1.75.028.671-.105 1.294-.56 1.827-.02.028-.034.056-.055.09.608-.42 1.224-.588 1.811-.104a.631.631 0 0 1 .35-.47.462.462 0 0 1 .301.077c.021-.049.028-.09.056-.147.483-.329.937-.427 1.301.175.119.231.252.456.378.68-.469 1.036-.658 2.394-2.337 2.03h-.608c-.182.084-.357.175-.532.252-.272 1.519-1.504 2.156-2.65 2.87-.336.511-.197 1.33-1.015 1.505-.874.231-.825 1.443-1.742 1.604-.23.112-.468.21-.7.329-.237.315-.482.63-.72.945-.237 1.127-1.035 1.799-1.93 2.387-.916.721-1.427 1.967-2.756 2.135-.266.721-.58 1.407-1.33 1.786-1.048.903-1.496 2.485-3.133 2.702-.37-.392-.454-.875-.475-1.386.02-.063.042-.12.063-.175-.371-.077-.728-.035-1.029.287-.657.952-1.664 1.687-1.853 2.94.517-.084 1.042-.16 1.56-.245h.007c.265-.084.538-.168.81-.238-.202.707-.405 1.442-.608 2.15.042.678-.35.804-.902.762a2.232 2.232 0 0 1-.413-.105c-.51-.252-.776-.637-.63-1.239.022-.056.05-.105.078-.154a35.545 35.545 0 0 1-.154-.469c-.343-.035-.679-.07-1.014-.098-.063.14-.12.287-.147.434-.294.273-.58.567-.868.854a6.55 6.55 0 0 1-.14.56l-.42.861c-.293.161-.58.302-.874.463-.321.672-.622 1.337-.944 2.009-.238.196-.468.406-.692.602.007.098.007.189.007.294-.042.413-.035.861-.588.987-.504.154-.608.581-.678 1.022l-.112-.112c-.378.89-.455 1.932-1.287 2.59a.653.653 0 0 1-.175.435c-.602-.021-.644.532-.903.868-.412.86-.818 1.722-1.217 2.583a2.442 2.442 0 0 0-.272.343c-.707-.322-.539-1.127-.847-1.66.021.07.05.134.056.218-.21 1.449-1.042 2.415-2.343 3.003.056.084.105.154.147.252.182.882.336 1.757-.35 2.52a2.265 2.265 0 0 1-.203.239l.042.238c-.336.532-.37 1.26-1.112 1.484-.671.742-1.357 1.484-2.021 2.226-.651.924-1.295 1.848-1.938 2.765-.273-.049-.553-.112-.832-.168-.126.07-.26.105-.392.126-.392.406-.567 1.12-1.364.988-.574.098-.72.525-.805 1.022a.859.859 0 0 1 .434.322c1.308.02 1.567.672 1.063 1.785a1.426 1.426 0 0 0-.42-.042c-.251.203-.419.14-.482-.19-.07-.433-.126-.888-.189-1.322-.944-.476-1.23.665-1.923.79-.203.967-.987 1.31-1.77 1.639l-.28-.021-.238-.098c-.713.462-1.378.98-1.594 1.855a10.295 10.295 0 0 1-.686-.042.621.621 0 0 0-.35-.217c-.189.546-.384 1.085-.566 1.624-.455.77-.91 1.548-1.364 2.325-.777.51-1.532 1.029-2.302 1.54-.125-.007-.244 0-.363.014l-.105-.168-.05.07.155.098c-.777 1.155-1.54 2.317-2.309 3.465a6.087 6.087 0 0 1-.496-.077c-1.126-.58-.294-1.253-.105-1.904.525-.525.168-1.344.28-2.002-.105.14-.231.224-.434.21-.175.343-.44.637-.734.917.286.154.44.434.524.777-.322.82-.643 1.631-.972 2.443-.168-.287-.35-.58-.532-.868-.147.21-.3.413-.447.616l-.812-.77a.88.88 0 0 1-.468.056c-.063-.02-.112-.049-.168-.077-.336.378-.686.742-1.022 1.127.042.035.091.07.147.126.07.434-.02.792-.461.98-.462.463-.93.91-1.385 1.366-.273.098-.539.203-.805.3-.063.134-.14.246-.21.365-.72 0-1.58-.378-1.874.72l-.252-.034-.252-.105c-.196-.336-.224-.644-.133-.931-.286.238-.594.476-.972.588-.322-.112-.636-.231-.944-.343.028-1.4 1.189-1.974 2.021-2.787-.28-1.33.427-1.834 1.602-1.932.23-.847.958-1.26 1.504-1.813.77-2.275 2.238-4.18 3.385-6.252.385-.343.756-.364 1.106-.182a8.845 8.845 0 0 1 1.133-1.519c.329-.364.678-.7 1-1.057.28-.26.546-.54.783-.826.084-.175.21-.322.33-.47.188-.3.363-.608.489-.951.133-.336.315-.652.517-.939.287-.392.623-.735.98-1.07.37-.33.762-.645 1.09-1.03.14-.217.274-.44.407-.672.028.007.042.007.07.014.083-.098.16-.196.244-.294-.175-.707.154-1.267.763-1.736.259-.336.252-.924.881-.931.357-.455.777-.847 1.301-1.113-.182-.056-.35-.14-.468-.308 1.196-3.207 3.812-5.3 6.022-7.708.154-.161.637 0 .98.007 1.167-1.548 1.846-3.438 3.364-4.74.28-.301.552-.61.818-.917.93-1.057 1.868-2.114 2.798-3.172 1.357-1.68 2.54-3.577 5.022-3.766 1.266-1.52 2.54-3.031 3.806-4.544 1.336-1.239 2.672-2.464 3.672-4.032.503-.777 1.189-1.52 2.26-1.61.489-1.141 1.097-2.192 2.132-2.934 1.812-2.401 3.722-4.704 5.883-6.805 1.161-1.386 2.33-2.765 3.49-4.158 1.176-1.89 3.456-2.597 4.701-4.41.63-.757 1.252-1.506 1.875-2.262-.854-1.008.685-1.246.63-2.002.405.364.398.714.286 1.05.406-.812 1.035-1.4 2.077-1.61 2.658-2.843 5.316-5.664 7.967-8.513 1.33-1.554 2.505-3.277 4.491-4.13-.643-.96.224-1.296.72-1.8.182-.763.742-1.155 1.42-1.456.147.273.287.553.441.833.448-.294.895-.581 1.343-.875.266-.448.539-.91.812-1.365-.357.049-.686.028-.875-.427-.147-.371.05-.638.399-.778 1.259-.847 1.686-2.555 3.196-3.17.448-.008.616.251.707.573.399-.217.616-.637.91-.973-.169-.098-.33-.217-.434-.399.174-.33.35-.651.524-.98.993-.14 1.007-1.722 2.21-1.54.029-.098.043-.196.078-.301.713-1.345 1.42-2.717 2.832-3.515a.874.874 0 0 0 .203-.455c.987-1.029 2.176-1.841 3.232-2.814 1.084-.385 1.476-1.568 2.364-2.185 1.077-.812 1.854-1.904 2.707-2.919.469-.448 1-.763 1.63-.91a.845.845 0 0 1 .126-.035c.119-1.05 1.553-1.141 1.783-2.114h-.007c-.272-.266-.552-.525-.825-.791.273-.301.553-.602.832-.89 0-1.106.063-2.163 1.665-1.764.616-.77 1.238-1.54 1.868-2.324.384-.224.776-.224 1.175-.056.056.035.112.077.154.112.566-.434 1.343-.68 1.44-1.568.022-.007.036-.007.057-.014-.014 0-.035.007-.056.014-.014.014-.028.014-.042.02l.042-.02c-.308-.273-.623-.546-.938-.82.084-1.21 1.217-1.588 1.889-2.338.65-.86.846-2.478 2.581-1.568.448-.616.902-1.218 1.35-1.827a91.81 91.81 0 0 1 1.595.61c.545-.155 1.14-.232 1.322-.918.189-1.666 1.819-2.15 2.672-3.276 1.05-1.26 2.07-2.57 3.833-2.892.294-.287.595-.567.881-.854-.566-1.631.952-1.8 1.742-2.471-.049-.196.014-.322.224-.364.259-.287.504-.588.762-.875.26-.098.525-.203.784-.301v-.014c.147-1.037.993-1.674 1.497-2.5-.014-.203-.021-.413-.028-.609.237-.147.49-.294.727-.434.35.112.707.231 1.063.343.084-.16.168-.329.245-.51.595-.519.812-1.667 2-1.184a.223.223 0 0 1-.07-.147c-.062-.042-.125-.07-.174-.12-.406-.531-.378-1.021.16-1.455 1.015-.82 2.043-1.631 3.057-2.437 1.616-1.47 2.693-3.507 4.77-4.501.707-.98 1.414-1.96 2.47-2.597.315-.295.623-.582.937-.862 3.54-4.151 7.534-7.84 11.633-11.418 1.532-1.274 3.063-2.534 4.588-3.801.308-1.1.546-2.297 2.176-1.779a.48.48 0 0 1 .524.056c.035.05.05.098.07.147.21-.105.406-.21.609-.322.007.014.014.014.014.028 0-.014 0-.014.007-.028h-.021c.049-.112.098-.224.133-.336-.014-.007-.021-.007-.028-.014a1.494 1.494 0 0 1-.35-.308c-.007.007-.014.021-.021.014-.189-.07-.364-.14-.546-.217a.534.534 0 0 1 .182-.427c.462-.623 1.105-.147 1.644-.245l.028.245.594-.105c.26.357.33.637-.251.68a.99.99 0 0 1-.231.44l-.259.196c-.049-.07-.098-.14-.14-.21.021.084.05.175.077.266-.02.05-.063.084-.09.126.139-.028.251.042.342.217-.238.14-.483.28-.72.42-.112.084-.196.12-.266.098 0 0 0 .007-.007.014a.907.907 0 0 1-.455.371 4.09 4.09 0 0 0-.287-.049c-.028.12-.056.231-.077.343-.007.105-.02.196-.035.287a.753.753 0 0 1 .245.028c.035-.07.056-.14.077-.21.273-.168.42-.098.434.224a.482.482 0 0 1-.126.218.936.936 0 0 1 .16.175.946.946 0 0 1-.076.616c-.196.252-.469.392-.777.483a.985.985 0 0 1-.552-.056c-.035.112-.12.189-.252.23l-.098-.013a3.83 3.83 0 0 1-.322.238c-1.58.672-2.686 1.918-3.749 3.206-.378.28-.776.441-1.217.33a1.952 1.952 0 0 1-.168.37c-.469.532-1.07.924-1.539 1.45-.322.35-.657.7-1.014 1.015-1.224.826-1.966 2.156-3.07 3.108-1.63 1.141-2.659 2.898-4.19 4.158.23.07.468.14.692.21.133 1.205-.826 1.75-1.462 2.493-.595.483-1.161.98-1.93 1.176a.53.53 0 0 1-.49-.266h-.007c.028.042.049.09.077.14.154.385.063.721-.168 1.036-.336.287-.7.455-1.091.35a2.054 2.054 0 0 1-.238.77 3.743 3.743 0 0 1-.427.553c-.07.777-.727 1.512-.315 2.339-.119.448-.356.798-.811.966-.14-.26-.287-.532-.42-.791.21-.54.58-1.065.056-1.61-.028 0-.049 0-.077.006 0 .917-.468 1.394-1.252 1.576l-.02.098c-.043.238-.113.469-.204.7-.272.56-.657 1.015-1.196 1.33-.245.07-.475.063-.706-.035a.63.63 0 0 0-.07-.063c-.161.42-.413.72-.853.77.048.399.048.805-.063 1.204-.406.75-1.169 1.162-1.756 1.743-.329.175-.686.224-1.05.231a2.96 2.96 0 0 1-.356-.02c-.245.783-.154 1.84-1.063 2.1a5.385 5.385 0 0 1-.182.238 2.848 2.848 0 0 1-.623.434v.02c-.314.77-.874 1.002-1.525 1.016.42.273.756.616.952 1.099.224-.42.531-.61.951-.385.273-.364.147-.938.546-1.24.538-.35 1.098-.384 1.657-.16.084-.14.252-.245.434-.343.133-.056.28-.084.427-.105-.014-.021-.021-.028-.028-.042l-.042-.028c.007-.098.02-.182.028-.28a1.577 1.577 0 0 1-.287-.175c-.364-.483-.35-1.009-.203-1.54.161-.407.406-.736.798-.925 1.084-.16 1.42.7 1.881 1.386a3.912 3.912 0 0 0-.028.49c-.112.176-.224.344-.343.512v.56c.063.23-.02.392-.23.483l-.26-.05-.258-.104c-.105.49-.364.826-.86.938l-.231-.098s-.07-.007-.126-.028v.014c.154.896-.336 1.435-.881 1.946.181.105.384.217.608.238.168.042.35.098.518.161-.224.68-.441 1.351-.665 2.03-.461-.02-.972-.679-1.413-.413a3.701 3.701 0 0 1-.133.77c-.874.855-1.706 1.75-2.714 2.444-2.23-.763-2.035 2.135-3.602 2.387-.51.63-.692 1.337-.56 2.142-.321.49-.839.315-1.287.357a1.41 1.41 0 0 1-.566.014c-.21.742-1.05 1.288-.812 2.17.007 0 .014-.006.021-.006.168 0 .308.056.455.126-.189-.763.322-1.107 1.098-1.275.161.266.315.54.476.799.049 1.477-.783 2.506-1.749 3.465-.853.637-2.392-.084-2.777 1.442l-.265-.049-.252-.09c-.315-.498-.203-1.009.02-1.513.49-.938 1.28-1.603 2.078-2.29-.811.288-1.525.673-1.867 1.54-.035.022-.07.043-.098.057-.063.16-.12.308-.19.462-.272.749-.783 1.19-1.615 1.197-.734.133-1.231.546-1.532 1.232-.154-.02-.3-.035-.455-.063-.342.434-.699.882-1.049 1.323-.636.21-1.028.967-1.811.834-.763.35-1.085 1.015-1.273 1.77.195.064.391.134.587.19-.378.658-.77 1.316-1.147 1.974l-.175-.105c-.035.483-.252.847-.692 1.064-.532.371-1.064.756-1.588 1.141a58.4 58.4 0 0 0-1.28.868c-.182.098-.371.203-.56.301 0 .014.007.028.007.035-.105.546-.455.89-.902 1.19a3.024 3.024 0 0 1-.798.288c0 .574-.42.924-.832 1.28a1.662 1.662 0 0 1-.44.197c.307.448.153.826-.77 1.12-.735-.161-1.917 1.323-2.231-.315a2.743 2.743 0 0 1-1.008-.14c-.112.245-.461.3-.776.378-.294.028-.58.049-.867.07a.665.665 0 0 1-.063.147c-.35.49-.847.798-1.26 1.204-.692.567-1.14 1.295-1.482 2.114.412.161.685.448.776.917-.126.904-.608 1.688-.846 2.556-.182.504-.406.973-.749 1.393a2.943 2.943 0 0 1-1.713.924h-.021c.07.455-.238.707-.581.945.154.161.259.35.322.567.056 1.575-1 1.435-2.029 1.33-.545.154-.972.519-1.455.806-.286.147-.587.182-.881.063-.44.37-.874.742-1.315 1.106-.014.133-.021.266-.028.385a2.616 2.616 0 0 1-.245.714 4.512 4.512 0 0 1-1.755 1.351c-.364 0-.553-.168-.679-.399a1.639 1.639 0 0 1-.189.385c-.727.287-.259.98-.482 1.442-.245.42-.581.693-1.036.791.168.455-.105.777-.468 1.092-.665.35-1.266.813-1.994 1.086a1.13 1.13 0 0 1-.713-.168c-.399.707-.714 1.463-1.064 2.198-.041.084-.104.147-.16.23l.58.064c.315.105.476.315.567.602.28-.133.566-.098.867.028.077-.497.385-.875.665-1.267.398-.462.888-.68 1.496-.574.112.042.217.084.308.14.483.448.21.875.028 1.295.007 0 .014 0 .014.007.28-.21.58-.4.784-.623.433-.434.888-.84 1.35-1.24-.357-.097-.686-.076-.987.246-.272.098-.49.035-.657-.203-.161-.735.245-1.247.664-1.765.588-.574 1.078-1.302 1.959-1.4.007-.035 0-.063.007-.098.056-.238.16-.448.294-.65.391-.456.811-.862 1.217-1.31.363-.343.783-.546 1.3-.476.176.035.35.112.49.196.056-.238.12-.462.168-.693a.84.84 0 0 1 .19-.476c.174.007.349.028.517.063.07-.168.168-.287.294-.315-.014-.105-.021-.224-.014-.343.084-.427.28-.805.573-1.12.951-.483 1.798-1.758 2.938-.735.02-.028.056-.05.077-.07-.007-.029-.021-.05-.028-.078-.042-1.344.846-2.289 1.476-3.339.182-.224.406-.385.685-.504a1.626 1.626 0 0 1 1.52.404c-.19-.368-.155-.736-.002-1.118.392-.68 1.063-1.106 1.546-1.708.196-.182.427-.301.672-.385.384.056.643.28.839.595.168-.154.336-.315.497-.47a.686.686 0 0 0-.301-.132c-.154-.413-.098-.82.105-1.212.307-.469.7-.847 1.245-1.022.196-.966.755-1.477 1.685-1.526 0-.02.007-.042.007-.056.238-.714.637-1.232 1.483-1.232.33.049.805-.343 1.154-.266a27.764 27.764 0 0 1 1.826-1.554c-.413.133-.832.182-1.266-.035.021-1.603.7-1.967 2.036-1.085.153.07.321.14.482.189-.056.056-.112.098-.154.147.294-.196.58-.392.882-.581a.494.494 0 0 1 .126-.084c-.182.049-.385.035-.637-.056.119-.308.245-.623.357-.939.084-.469.336-.826.811-1 .35.37.308.811.217 1.26a2.586 2.586 0 0 1-.287.448c1.553-1.093 2.875-2.59 4.323-3.865 1.147-2.87 4.225-3.843 6.009-6.126.818-1.057 2.049-1.785 3.091-2.667.427-.35.854-.707 1.28-1.057 1.54-1.603 2.75-3.564 4.869-4.537 1.916-1.708 3.833-3.423 5.742-5.138.93-.868 1.86-1.723 2.798-2.59.007.013.014.013.021.013 1.693-2.436 4.141-3.948 6.701-5.313.203-.182.42-.364.623-.553 3.371-4.096 7.386-7.512 11.702-10.558.476-.756.553-1.925 1.875-1.792.692-.315 1.119-1.148 2-1.092.993-.784 1.987-1.568 2.973-2.352.322-.736.902-1.205 1.595-1.548 3.203-4.361 7.05-8.023 11.765-10.711 2.79-3.381 5.77-6.497 9.352-9.087 2.462-1.785 4.54-4.096 6.792-6.168 3.078-3.584 7.31-5.629 11.15-8.163 2.35-1.554 3.952-4.081 6.75-4.999 1.23-1.099 2.476-2.19 3.707-3.283.273-.259.552-.497.832-.742.679-.623 1.357-1.24 2.036-1.862.818-.735 1.643-1.47 2.476-2.213 3.602-4.102 8.722-6.321 12.625-10.116 1.07-1.036 1.378-2.59 2.735-3.27 1.924-2.534 4.225-4.69 6.778-6.601 1.819-1.246 3.435-2.758 4.967-4.362.363-.93 1.21-1.407 1.986-1.939 2.994-2.45 6.002-4.893 9.002-7.337 2.477-1.834 4.834-3.843 7.205-5.818-.434-.105-.86-.21-1.294-.322-.168.098-.336.182-.504.273.014.126.035.252.056.379-.154 1.113-1.09 1.624-1.804 2.317-.714.518-1.371 1.169-2.337 1.239-.049-.014-.105-.021-.16-.035a1 1 0 0 1-.056.154c-.273.56-.79.672-1.35.714-.322.168-.644.336-.973.497-.014.091-.035.161-.049.252-.077.245-.21.448-.398.602-.26.133-.518.26-.77.4a.74.74 0 0 1-.706-.155c-.224.224-.448.441-.672.665-.259.301-.608.441-1.007.47h-.021c-.119.994-.888 1.42-1.938 1.596a47.876 47.876 0 0 0-.93-.112h-.007c-.531.952-1.05 1.918-1.588 2.877-.783.917-1.671 1.715-2.889 2.03-.132.308-.265.623-.398.931-.378.322-.707.19-1.05-.063-.216-.357-.23-.735-.14-1.12.07-.238.176-.462.301-.672.42-.462.693-.987.777-1.596a1.36 1.36 0 0 1-.238.329c-.413.385-.923.644-1.392.938-.196.133-.434.168-.664.26.384.405.363.811-.161 1.231-.175.532-.33 1.05-.497 1.575l-.259-.028-.252-.09a1.097 1.097 0 0 0-.195.307c-.35-.035-.7-.063-1.043-.098-.517-.308-1.084-.56-1.378-1.099-.014.042-.035.077-.042.126l-.007-.063c-.111.35-.216.7-.321 1.057.328.287.664.589 1.014.883-.322.343-.644.672-.951 1.022-.308-.364-.616-.714-.917-1.078-.175 0-.342-.014-.524-.021l-.021-.091c-.014-.007-.021-.007-.028-.007.014.035.035.07.049.098-.588.714-1.714 1.379-.19 2.26-.195.169-.398.344-.594.526-.79-.112-1.58-.21-2.364-.322-.399-.721-.154-1.393.105-2.065.084-.182.203-.343.329-.497-.182-.161-.35-.309-.525-.47.056-.252.112-.518.154-.777-.343.14-.713.217-1.098.203-.014 0-.021-.014-.035-.014.09.735-.406 1.212-.86 1.716a.917.917 0 0 1-.714.14c-.44-.203-.65-.553-.755-.96a7.08 7.08 0 0 1-.854.862 1.303 1.303 0 0 1-.741.259c.014.077.042.147.042.238-.343 1.4-1.315 1.827-2.651 1.736a1.797 1.797 0 0 0-.469-.133c-.238.728.588 1.337.413 2.058l.224-.063c.251.68 1.007.882 1.37 1.463.266.427.413.861.14 1.358-.384.477-.874.344-1.35.183-.538-.855-1.3-1.639-.937-2.745-.063.007-.133.028-.21.035-.552-.028-1.042-.182-1.455-.525-.237.357-.51.637-1.084.322.434-1.12.14-1.568-.671-1.547-.133.091-.266.189-.406.28-.3.196-.63.336-.986.371a1.562 1.562 0 0 1-.469-.133c.126.336.014.63-.21.903-.042.035-.077.056-.105.084.028.063.07.133.112.19.084 1.077-.475 1.721-1.343 2.162.497.147.994.287 1.49.427.084 1.219-.196 2.08-1.588 1.807.028.063.05.14.05.224 0 .259-.05.504-.162.742-.272.287-.538.58-.818.854.518-.322 1.063-.616 1.539-.987.203-.161.427-.301.63-.462.81-.546 1.384-1.54 2.427-1.617a.332.332 0 0 1 0-.26c.084-.111.14-.167.188-.153.47.679 2.931-2.003 1.917 1.14-1.056.498-1.028 1.59-1.336 2.493l-.266-.07-.252-.126-.007.028c.4.777.847 1.554-.23 2.205a.558.558 0 0 0-.413.042c-.357.056-.714.112-1.056.168h-.007c-.26.476-.518.96-.777 1.428 0 .659-.468 1.03-.874 1.436a2.082 2.082 0 0 1-.504-.105c-.405.112-.804.217-1.21.322-.308 1.463-1.7 1.785-2.686 2.548l.238.07c-.84.714-1.665 1.421-2.49 2.128-.37.05-.728.091-1.084.14-.518-1.456.79-1.974 1.448-2.814.412-.33.881-.518 1.42-.434a.879.879 0 0 1 .21.126c-.008-.021-.015-.035-.022-.05.091-1.77 1.294-2.596 2.742-3.199.21.014.385.091.532.238-.189-.483-.091-.854.119-1.19-.273.154-.567.26-.93.19-.126.202-.245.426-.371.636-1.126-.294-1.434 1.19-2.462 1.114-.91-.287-.812-.722-.161-1.226.3-.273.615-.539.93-.812.37-.245.742-.483 1.12-.728a.751.751 0 0 1-.043-.119c.105-.434.287-.777.51-1.064-.615.4-1.314.68-2.195.68-.525-.463-.483-.904.056-1.317.846-.378.81-1.302 1.21-1.946.503-.392.993-.791 1.49-1.183.195.07.384.133.573.203.714-.224.832-.833.923-1.443-.664.091-1.028-.196-1.23-.679-.183.147-.357.28-.532.434-.707.623-1.553 1.072-2.246 1.723-.958.77-1.706 1.77-2.798 2.38-.391.273-.79.539-1.182.791-.14.084-.258.175-.398.266-.26.427-.79.686-.987 1.155-.14.168-.28.245-.412.266-.042.063-.091.126-.133.19-.336.636-.714 1.238-1.224 1.75-.994.875-2.148 1.533-3.14 2.408-.575.427-1.057.938-1.56 1.442-.532.511-1.162.903-1.763 1.323-.665.434-1.322.89-2.127.791a.92.92 0 0 1-.189.91c-1.287.47-1.951 2.045-3.504 2.052-.05-.021-.077-.05-.119-.07.147.37.035.679-.28.938a1.011 1.011 0 0 1-.35.42c-.965 1.092-2.126 1.932-3.462 2.555-.86.924-1.399 2.29-3.008 2.163-.16.392-.308.784-.461 1.177-.826.182-1.532.945-2.484.518.742-.974 1.651-1.653 2.924-1.737.245-1.547 1.574-2.114 2.644-2.933.609-.875 1.238-1.75 2.239-2.247.608-.574 1.217-1.155 1.818-1.723 1.098-1.218 2.288-2.324 3.742-3.108 2.302-2.205 4.274-4.774 7.191-6.273.546-1.015 1.294-1.834 2.4-2.247 2.825-3.031 6.113-5.53 9.428-8.002.539-.742 1.175-1.38 2.029-1.778 2-1.267 3.602-3.13 5.917-3.935.336-.812.903-1.42 1.61-1.932.503-.861 1.405-.798 2.217-.931.237-.784.398-1.68 1.587-1.232.413-2.135 2.553-2.388 3.854-3.55.266-.574.77-.777 1.364-.833.79-.72 1.588-1.428 2.393-2.149.608-.707 1.23-1.414 2.238-1.582.539-.644 1.273-.924 2.077-1.078-.531-.952.476-1.317.763-1.96.329.49.21 1.344 1.098 1.386.042-.182.077-.357.119-.547.098-.413.315-.546.685-.294a1.743 1.743 0 0 0-.097-.287c.216-.749.741-1.218 1.42-1.575.405-.049.81-.105 1.217-.154-.056-.049-.12-.09-.175-.154-.056-.44.014-.798.517-.93.693-.288.574-2.031 1.945-1.1.329-.14.671-.28 1-.427.79-1.582 1.413-3.354 3.637-3.41a.465.465 0 0 1 .455-.07c.308-.462.79-.63 1.322-.693.16-.308.336-.609.497-.903-.315-1.407.657-1.701 1.678-1.953a165.14 165.14 0 0 0 1.525-1.113l.889-.826c1.958.952-.497 1.379-.252 2.135.133.224.266.448.406.672 1.07-.798 2.14-1.61 3.224-2.415.986-.7 1.98-1.4 2.973-2.093.154-.302.357-.596.65-.876.665-.434.847-1.253 1.392-1.77.728-.56 1.56-.988 2.092-1.779a5.048 5.048 0 0 1 1.168-1.988c-.832.469-1.595 1.148-2.658 1.057-.168.189-.336.37-.504.546-1.28.945-2.623 1.792-4.162 2.261-1.189 1.19-2.602 2.01-4.161 2.584-2.707 1.918-5.303 4.025-8.415 5.264l.028-.252c-.07.063-.147.12-.224.182.063.028.126.05.196.07v.98c-.623.378-1.147.96-1.966.931.077-.105.147-.196.217-.3a.5.5 0 0 0-.217.3c-1.378.883-2.518 2.157-4.183 2.57a.733.733 0 0 1-.112.399c-1.79 1.589-3.588 3.185-5.987 3.83h-.105c.147.384.294.783.44 1.168-.986 1.107-1.937 2.276-3.44 2.745-1.302.245-.952-1.015-1.4-1.568-.503.378-1.014.763-1.518 1.14-.07.225-.167.4-.286.568a7.146 7.146 0 0 1 1.049-.371c.622.007 1.23.007 1.154.903-.37.385-.734.756-1.098 1.134-.525.238-1.05.476-1.574.721-.672.77-1.623.7-2.511.826-.777 2.332-2.357 3.774-4.743 4.334l-1.566 2.156a5.819 5.819 0 0 1-1.931 1.897c-.16.035-.308.05-.462.042-.237.238-.475.476-.706.714-1.798.96-3.113 2.66-5.057 3.389a.789.789 0 0 0-.05.399c-3.189 3.178-6.693 5.93-10.813 7.84-2.665 1.646-4.876 3.963-7.757 5.286-4.484 3.585-8.954 7.162-13.423 10.733-1.14 1.316-2.512 2.352-4.036 3.185h-.007v.004l-.014.003c-3.659 3.43-7.967 5.958-12.045 8.814-3.987 3.683-8.968 5.84-13.458 8.751-.14.161-.294.322-.434.498-1.364 1.246-2.742 2.492-4.113 3.745-.504.826-1.147 1.505-2.063 1.883 0 .14-.042.26-.12.364-.503.12-.993.224-1.496.343-.378.511-.93.56-1.49.63.098.525-.196.855-.623 1.107a370.63 370.63 0 0 1-3.07 2.548c-.56 1.12-1.644 1.701-2.567 2.45-1.043.47-2.372.385-3.127 1.491-.154.196-.322.392-.483.602-.468.33-.951.54-1.546.42a1.344 1.344 0 0 1-.272-.119l-1.308 1.142c-.364.644-.833 1.148-1.63 1.218-.19.343-.392.686-.58 1.036-1.12.02-1.777.812-2.498 1.491-.539 1.218-1.37 1.96-2.784 1.862.329-.44.756-.833.951-1.337.4-1.036.063-1.414-1-.854-1.014-.448-.203-1.008-.098-1.54.182-.413.539-.49.938-.455-.133-.462.244-.714.545-.987-.266-.05-.51-.147-.713-.35-.014-.007-.021-.028-.021-.042-.301.217-.609.427-.917.637-.007.16 0 .322.021.483-.664.469-1.329.952-1.986 1.42h-.007c-.504.834-.993 1.681-2.085 1.87-.035-.364-.07-.742-.112-1.113.378-.483.756-.98 1.483-.75a1.15 1.15 0 0 1-.126-.63c.133-.258.287-.503.455-.727-.224.182-.44.37-.636.588-.441.406-.784.896-1.148 1.365-.657.791-1.503 1.148-2.51 1.197.013.042.02.091 0 .133-.05.112-.106.168-.155.168-.503.294-1 .581-1.503.875-.756.861-1.266 1.989-2.49 2.353-.553.588-1.12 1.162-1.672 1.75a29.19 29.19 0 0 1-.987.252c-1.105 1.519-2.804 2.352-4.147 3.591-.455.035-.91.07-1.364.112.014.105.014.217.007.33-1.05 1.4-2.672 2.114-3.91 3.29-.266.21-.54.42-.798.644.497.721 1.021 1.442.098 2.373-.888.581-1.77 1.19-2.651 1.778-.525.441-1.042.868-1.567 1.31-.65.826-1.44 1.526-2.378 2.009-1.21 1.05-2.973 1.421-3.784 2.982-.343.07-.693.154-1.036.217-1.587 1.141-3.05 2.416-4.126 4.082-.847.518-1.7 1.036-2.54 1.56-.671.638-1.343 1.29-2.014 1.933-.853.168-1.126 1.33-2.133 1.197-.294.287-.588.567-.868.854h-.007c.168 1.093-.615 1.87-.958 2.78-.853.385-1.455 1.659-2.686.784-.63.973-1.266 1.96-1.91 2.947-.552 1.582-2.042 2.38-3.091 3.543l-.26.056-.272-.014-.035.028c-.7.833-1.469 1.547-2.539 1.869-.672.777-1.35 1.561-2.022 2.331-.468.714-1.084 1.281-1.706 1.855-.868.673-1.7 1.359-2.525 2.073-.882.826-1.826 1.582-2.75 2.345-.153.196-.314.371-.475.56-.595.623-1.308 1.085-2.035 1.554-.014.007-.035.014-.05.021.134.56.203 1.148.686 1.561-.532.61-1.05 1.205-1.58 1.8-.567-.147-.924-1.148-1.693-.4.02.197.035.4.048.596-.72.238-1.44.469-2.168.707a310.72 310.72 0 0 1-2.637 1.904c-.147.21-.287.42-.434.63-.342.245-.678.483-1.014.728-.461 1.526-1.777 2.29-2.854 3.27-.986.854-2.105 1.554-2.952 2.569-.461.497-.944.966-1.468 1.407.51-.252.93-.994 1.524-.553.161-.469.273-.952.525-1.38.434-.496.958-.79 1.623-.77.09.036.147.078.224.12.307-.224.615-.434.923-.658 0-.154.014-.301.035-.455.595-.42 1.19-.861 1.784-1.288a5.5 5.5 0 0 0-.007-.589c.307-.819.734-1.498 1.72-1.575 1.791.553 1.036 1.848.868 2.976-.455.637-.336 1.694-1.371 1.932-.357.364-.714.728-1.077 1.085-.882.637-1.75 1.281-2.624 1.918-.678.616-1.363 1.232-2.056 1.841-.853.358-1.05-.35-1.357-.86v-.015c-.497.343-1 .7-1.49 1.05-.133.218-.266.435-.406.659-.258.21-.51.427-.769.644a.485.485 0 0 1 .049.16c-.672 2.584-3.309 3.424-4.7 5.377-1.82 1.373-3.036 3.403-5.093 4.488-.16 1.876-2.028 1.967-3.05 2.947.015 1.45-1.853 1.148-2.154 2.304-1.497.427-2.056 2.05-3.385 2.688a1464.99 1464.99 0 0 0-3.225 3.486c-1.133.714-1.469 2.346-2.98 2.626-.182.21-.363.413-.538.609-.098.532-.19 1.05-.287 1.575.147-.049.3-.084.462-.077.035.007.056.028.084.035.657-2.037 2.273-3.13 4.036-4.096.49-.406.979-.812 1.468-1.197.301-.294.609-.588.91-.875.482-.567.846-1.708 1.727-1.211.93.54-.398 1.134-.37 1.792-.203.007-.406.007-.609.014-.51.441-.993.903-1.497 1.351-.133.995-1.56 1.128-1.483 2.255-.37 1.512-1.797 1.82-2.86 2.548a.616.616 0 0 1-.567.098c.007.014.028.028.028.049.3 2.1-1.028 3.423-2.26 4.81-1.517.65-2.09 2.59-3.867 2.884-1.246.658-1.546 2.1-2.484 3.003-.188.616-.412 1.219-1.049 1.52-.322.112-.636.112-.937-.028v.007c.147.847-.392 1.379-.916 1.904-.504.406-.98.86-1.42 1.337.433-.154.86-.259 1.014.63-.273.728-.707 1.246-1.546 1.24.196 2.001-1.168 3.122-2.47 4.29-.405.477-1.076.596-1.489 1.086-.818.651-1.644 1.302-2.462 1.953-.308 1.68-1.014 3.116-2.497 4.075-.63 1.498-2.099 2.31-3.03 3.563-.608.756-1.14.364-1.678-.09-.343.643-.56 1.406-1.44 1.581-.295.658-1.316.476-1.477 1.295-.21.175-.405.365-.615.54-.539.994-1.79.812-2.483 1.547-.091-.056-.168-.126-.26-.182-.489.056-.992.112-1.489.175l-.084-.847c-1.014.574-1.553 1.687-2.56 2.268-.175.189-.35.385-.525.567-.105.686-.196 1.38-.902 1.743-.203-.728-.273-1.435.028-2.135-.028-.035-.042-.084-.07-.133.007-.54-.16-1.113.245-1.603.154-.203.294-.406.455-.61.748-.916 1.58-1.77 2.378-2.667.391-.273.671-.763 1.245-.72.049.013.07.034.112.048.657-.714.923-1.554.734-2.541.336-.252.679-.49 1.014-.742l-.077-.084c.714-1.1 1.427-2.198 2.547-2.955.49-.595.972-1.21 1.455-1.82.153-.378.307-.749.461-1.127.434-.518.504-1.59 1.546-1.197-.007-.028-.007-.056-.007-.091.3-.581.602-1.176.916-1.757.21-.378.406-.742.616-1.12.294-.232.587-.47.874-.7.889-.869 1.763-1.737 2.644-2.605a2.019 2.019 0 0 1 0-.616c.252-.553.427-1.218 1.175-1.022-.098-1.904 2.029-2.513 2.525-4.068.126-.217.273-.406.427-.602.84-1.07 1.882-1.932 2.896-2.814.189-.161.378-.308.567-.441.95-.7 1.91-1.386 2.434-2.506.433-.729 1.007-1.359 1.497-2.038.818-.924 1.063-2.296 2.3-2.863a.875.875 0 0 1 .484.105c-.343-.714.35-1.03.594-1.526.504-.686.916-1.477 1.707-1.904.084-.035.168-.084.259-.12a417.48 417.48 0 0 1 2.637-2.324c.147-.224.28-.462.398-.707.182-.329.406-.63.65-.91l.064-.063a1.634 1.634 0 0 0-.916-.616c-.091.084-.182.154-.26.238a5.09 5.09 0 0 1-1.237.875c-.042.014-.077.028-.112.042-.021 1.008-1.126 1.38-1.63 2.093-.126.112-.252.21-.378.322l.063.588c-.454-.112-.86.449-1.322.344-.028.014-.049.028-.077.042a2.397 2.397 0 0 1-1.021.3c.042.078.098.155.126.246.098.707-.014 1.4-.217 2.079-.168.189-.336.357-.518.546-2.217-.707-.517 1.582-1.426 1.883 0 .168.02.322.048.476-.363.217-.713.427-1.084.63-.503.448-1.007.903-1.518 1.358-.664.63-1.329 1.26-1.993 1.905l-.028-.091h-.007c.014.028.02.056.035.09 0 .155 0 .295.007.449-.336.049-.665.105-1 .168.056.09.105.175.133.273-.133 1.169-.86 1.911-1.763 2.527-1.182.26-2.078 1.638-3.47 1.071-.251.707-.867 1.092-1.412 1.54a1.09 1.09 0 0 1-.14.112c.188.512.573.533 1.238.197.566-.28 1.049-1.198 1.895-.477.021 1.254-1 1.849-1.643 2.696-.56.413-1.07.924-1.798 1.064-1.07-.728.427-2.198-.714-2.926-.517.854-1.16 1.617-1.818 2.373.594.7.566 1.61.594 2.5-.077.881-.426 1.644-1.09 2.246a1.623 1.623 0 0 1-.686.294c-.763-.308-1.553.07-2.323-.035-.042-.014-.084-.014-.119-.014.007.007.021.014.035.028.28 1.037-.531 1.45-1.126 1.996-.294.224-.594.399-.965.434-.637.714-1.126-.056-1.679-.252-.014.049-.028.098-.049.147-.175.434-.433.84-.741 1.21.154.274.16.575.028.911-.658 2.38-2.854 3.697-4.022 5.727-.336.266-.672.532-1.007.79-.343.064-.693.12-1.036.183-.049.09-.112.182-.16.287-.217.413-.476.805-.917 1.043-.035.007-.07.007-.098.014-.245.714-.832 1.134-1.399 1.582.154 1.59-1.797 2.045-1.895 3.5a.9.9 0 0 1-.483.12c-1.65 2.009-3.302 4.004-4.952 6.013-1.952 3.802-4.778 6.882-8.002 9.613-.147.217-.28.434-.427.65-.553 1.128-1.196 2.164-2.56 2.458-.686 1.757-2.33 2.317-4.148 2.835a939.385 939.385 0 0 0 3.35-4.522c2.085-2.969 3.61-6.343 6.254-8.912.28-.931.783-1.673 1.63-2.164.174-.245.35-.51.531-.763-.147-.392.07-.539.406-.609.65-.833 1.308-1.659 1.965-2.478.434-.427.875-.833 1.301-1.253.483-1.057 1.225-1.904 2.155-2.612.448-.546.902-1.099 1.343-1.645.504-1.015 1.091-1.946 2.126-2.485.084-.315.196-.588.602-.497.09-.14.203-.161.343-.084-.105-1.057.678-1.652 1.273-2.331 2.525-2.899 4.812-6.021 7.84-8.45.595-1.184 1.302-2.262 2.379-3.067.567-.784 1.12-1.596 2.056-1.988.35-.54.693-1.071 1.029-1.603.384-.672.937-1.197 1.504-1.688.007-.007.007-.007.014-.007-.12-.763.643-1.225.95-1.84 1.036-.673 2.057-1.338 3.1-2.003a1.21 1.21 0 0 1 .007-.476c.496-.798 1.154-1.47 1.748-2.198.056-.056.112-.098.175-.147a23.479 23.479 0 0 1-.119-.742l1.021-1.17c.336.154.679.301 1.008.455.426-.399.86-.798 1.273-1.183.468-.616.923-1.225 1.385-1.84.664-.631 1.343-1.261 2.014-1.884.812-1.582 2.162-2.646 3.505-3.725.16-.35.321-.707.49-1.07-.008-.337-.029-.68-.036-1.009.959-.588.84-2.01 1.91-2.5.664-.636 1.322-1.26 1.972-1.882.945-1.807 2.532-3.004 4.001-4.32.364-.371.72-.763 1.078-1.155.811-.833 1.63-1.666 2.427-2.506.552-1.163 1.727-1.709 2.546-2.605 2.903-3.157 5.806-6.329 9.149-9.052l.553-.994c.56-.742 1.189-1.428 1.902-2.03 1.483-1.162 2.623-2.794 4.554-3.34.014-1.526 1.532-1.827 2.238-2.78.476-1.063 1.679-1.273 2.4-2.043 2.399-2.066 4.798-4.145 7.204-6.217.602-.266 1 0 1.315.476.965-.847 1.945-1.701 2.924-2.548.168-.028.322-.084.475-.168.35-.518.7-1.037 1.043-1.555.748-1.183 1.874-1.939 3.077-2.583.72-.588 1.602-.987 1.994-1.918.238-.217.42-.511.601-.805a3.212 3.212 0 0 1-.63.287c-1.041.168-.936-.448-.748-1.106 1-.854 2.008-1.723 3.015-2.577.336-.378.679-.749 1.028-1.127 1.392-1.232 2.784-2.457 4.176-3.69 1.064-1.574 2.651-2.583 4.078-3.759.406-.924 1.21-1.393 2.057-1.82.51-.427 1.028-.833 1.546-1.26l1.93-1.911c.553-.406 1.105-.812 1.644-1.212.028-.133.035-.259.02-.392.931-1.008 1.624-2.324 3.156-2.506-.056-.056-.126-.119-.168-.182.874-.889 1.797-1.694 3.063-1.988.042.028.084.049.126.084 0-.035-.007-.063-.007-.098l-.119.014c.581-1.148 1.567-1.827 2.637-2.436.693-.61 1.392-1.233 2.085-1.842 1.147-1.35 2.469-2.499 4.036-3.332 1.028-.987 2.007-2.037 3.406-2.506h.007a7.341 7.341 0 0 1 2.791-2.402c1.532-1.267 3.07-2.548 4.603-3.822l4.54-3.85c.454-.239.713.013.937.363a1.44 1.44 0 0 1-.014.77c-.266.455-.693.75-1.112 1.037-1.301.469-1.994 1.967-3.442 2.184.05.245.05.49.028.728 1.028-1.176 2.378-2.002 3.61-2.968.552-.414 1.203-.722 1.622-1.324.574-.364 1.07-.854 1.756-1.057.154-.035.322-.077.49-.119.076-.105.153-.21.237-.315-.853-.175-1.91-.16-1.427-1.638.462-.273.93-.56 1.392-.847.56-.4 1.12-.812 1.68-1.211-.106.735-.21 1.484-.316 2.219-.056-.042-.112-.091-.168-.126a.382.382 0 0 0 .168.126l.007.112c1.182-.238 1.707-1.302 2.532-1.981a1570.09 1570.09 0 0 1 5.715-4.418c.826-.86 1.658-1.708 2.49-2.555.12-.343.343-.581.595-.77-.392.077-.79.056-1.224-.196l-.259-.014-.252.035c1.322-1.106 2.12-2.87 4.022-3.242 1.098-1.42 2.82-2.016 4.19-3.101.91-1.267 2.462-1.638 3.63-2.57.553-1.47 1.896-1.288 3.071-1.456.07.084.154.161.23.239l.127-.106a3.108 3.108 0 0 0-.357-.133c.755-.595.28-2.1 1.637-2.233.475-.469.958-.93 1.44-1.393 1.176-.896 2.071-2.618 3.876-1.75.23-.238.455-.47.678-.707.525-.68 1.35-1.036 1.777-1.814 1.973-1.673 4.008-3.276 6.218-4.648 4.043-3.094 8.065-6.203 12.122-9.29.86-.658 1.805-1.204 2.721-1.8 5.316-4.277 10.339-8.926 16.018-12.762.65-.448 1.175-1.197 2.113-1.106.468-.42.937-.84 1.399-1.26.713-.89 1.58-1.576 2.665-1.947.356-.644.874-1.078 1.616-1.19 1.16-1.225 2.595-2.058 4.126-2.751 6.646-5.636 13.738-10.683 20.908-15.598a1.123 1.123 0 0 1-.147-.343c.392-.77.867-1.995 1.784-1.428.21.119.314.266.356.392 9.849-6.735 19.614-13.603 29.26-20.646.587-.42 1.217-1.015 1.881-1.113 6.645-.896 11.737-5.475 17.914-7.477.343-.112.706-.196 1.063-.28 1.273-1.085 2.742-1.722 4.393-2.01.342-.223.951-.076 1-.713-.343-1.443.595-2.115 1.623-2.738 1.007-.616 1.154.343 1.567.812 4.4-2.758 9.19-4.886 13.08-8.408 1.67-1.959 4.151-2.149 6.367-2.903 0 0-.002.002-.002.005l.007-.007c.217-.35.539-.546.916-.637.231-.028.462-.084.679-.133.853-.707 2.063-.791 2.973-1.407a.559.559 0 0 1 .133-.54c3.35-1.26 6.03-3.829 9.505-4.837.756-.595 1.385-1.421 2.498-1.4.923-.455 1.846-.903 2.763-1.358l-.028.007c1.79-1.884 4.161-2.514 6.56-2.983.847-.16 1.973-.812 2.7.378v-.007c2.449.861 4.463-.133 6.373-1.533.664-.133 1.182-.476 1.532-1.057.02-.455.077-.952.566-1.092.63-.168.679.385.72.798.07.693.42.91 1.071.75.014.097.056.195.09.3.036-.014.064-.02.099-.035a3.11 3.11 0 0 1-.189-.266c2.819-1.372 5.4-3.248 8.457-4.151.314-.28.727-.68 1.07-.652.175-.91.259-1.946 1.937-.819a4.13 4.13 0 0 1-.272 1.373c.16-.063.3-.12.468-.126a.717.717 0 0 1-.007-.589l.05-.049c-.106-.315.146-.735-.148-.987.462-.805.938-1.575 1.924-.574l.007-.07c.014.021.014.028.028.042 1.833-1.624 2.805-1.806 3.602-.65-.706.923-.154 2.716-1.986 2.856l.028.077c-.427.245-.952.448-.455 1.078-.147.847-.308 1.68-.462 2.52.497 1.323-1.42.441-1.308 1.421-.007.434-.272.917.224 1.274-.503.581-1.084.091-1.623.133.483 2.227-1.434 2.997-2.574 4.243-.454.3-.909.609-1.343.91-.203.455-.391.903-.587 1.351-.259.49-.616.672-1.147.525-.147.581-.693.812-1.106 1.17-.056.398-.118.79-.174 1.183-.56.497-1.197.72-1.931.462v.105c-.119.37-.238.735-.35 1.113.329-.035.658-.07.945.14.286-.728.713-1.113 1.51-.644.175.056.357.119.539.182-.525.427-1.042.86-1.56 1.288l.007-.238c-1.497.392-1.525 2.002-2.399 2.912 2.567-.658 5.085-.959 7.743-.707.252.042.49.098.735.14 3.441-.952 6.449.714 9.597 1.61 1.28-.329 2.056.4 2.748 1.317 1.54-.288 2.812.455 4.064 1.169zm-65.212-5.285l-.005.002c.002-.002.005-.002.005-.002zm-113.238 89.422v-.003c.001 0 .002.001 0 .003zm-85.213 101.744l.037.035a1.148 1.148 0 0 1-.02.077c.034-.035.076-.07.111-.105a.773.773 0 0 0-.128-.007zm7.983-15.619c.21.056.406.161.574.301-.014-.51.28-.763.804-.805.05.014.091.021.14.035.098-.434.196-.882.3-1.316l-.699-.308c-.056.028-.105.063-.16.084a.93.93 0 0 1-.54-.12l.008.204-.182.07c.112.105.196.266.23.532.015.539-.118.994-.475 1.323zm11.926-16.44c.266 1.913-.958 3.104-2.217 4.281-.308.4-.672.75-1.07 1.044-.028.021-.056.035-.07.05.524.539 1.23.336 1.902.308.084-.077.154-.154.245-.225-.119-.154-.203-.308-.126-.42 1.47-2.375 3.134-4.568 5.848-5.64 1.944-1.906 3.875-3.79 5.813-5.703-.05-.463-.35-.582-.679-.666-.112.098-.217.203-.329.308a70.36 70.36 0 0 1-2.56 2.838c-.587.63-1.21 1.198-2.07.385-.007-.014-.007-.028-.014-.035-.05.063-.105.14-.154.21-1.084.61-1.847 1.542-2.602 2.509-.567.47-1.175.799-1.917.756zm-8.245 6.239c.206-.006.374.092.516.288-.02-.287 0-.553.077-.77-.202.16-.405.307-.593.482zm-.023 0h.023a.64.64 0 0 0-.023 0zm-53.691 63.856a4.49 4.49 0 0 1-1.295.616c-.062.035-.111.084-.174.119-.294 1.043-.938 1.876-1.644 2.66-.105.21-.217.406-.364.595.091.49.259.952.707 1.253v-.007l.02.014c.133-.406.238-.833.77-.875.147.084.245.21.308.336.217-.217.454-.308.776-.126 0-.007 0-.014.007-.014a3.28 3.28 0 0 0 .028-.448c.273-.112.546-.238.812-.343-.084.343-.19.7-.273 1.057.16.084.336.126.51.154.126-.294.315-.413.532-.455.014-.042.042-.077.056-.119.014-.09.035-.182.056-.273a.513.513 0 0 1-.357-.196c.203-.714.413-1.414.609-2.135.014-.798.713-.938 1.23-1.253.253-.105.497-.161.75-.147-.4-.7-.413-1.365.279-1.967.224-.217.455-.441.679-.644-.056-.105-.105-.196-.14-.301-.063-.344-.14-.68-.098-1.002-.056.056-.105.112-.161.161-.693.82-1.462 1.576-2.176 2.388a2.297 2.297 0 0 1-.573.434.631.631 0 0 1-.343 0 2.491 2.491 0 0 1-.531.518zm-35.292 45.33c0-.272.098-.483.329-.616-.042-.035-.084-.056-.126-.098a1.28 1.28 0 0 1-.217-.98c.07-.098.147-.182.217-.266.476.21.938.14 1.38-.014-.014-.063-.035-.119-.035-.175.028-.896.51-1.582.98-2.268a1.122 1.122 0 0 1-.315-.133c-.28 1.141-1.695 1.428-1.996 2.555-.161.133-.33.168-.512.091.014.028.028.056.042.077.12.651.042 1.218-.413 1.639.224-.007.448.063.666.189zm4.58-7.168c.561-.21 1.15-.231 1.731-.19a.696.696 0 0 1 .056-.328l.154-.238c-.007-.063-.014-.133-.028-.196.028-.21.063-.42.105-.624a.57.57 0 0 1 .26-.308c-.022-.056-.029-.105-.05-.16.014-.106.035-.204.063-.288a.942.942 0 0 1-.581-.07c-.028-.02-.049-.049-.084-.077a3.72 3.72 0 0 1-.245.224c-.315-.098-.63-.203-.946-.3.105.377.035.748-.133 1.098-.126.175-.245.364-.371.554l.063.903zm5.304-7.19c.378-.224.791-.343 1.26-.14-.175-.252-.3-.511-.266-.777-.343.287-.714.567-.994.917zm6.926-8.205c.595-.497 1.184-1.008 1.779-1.512-.07-.26-.147-.526-.21-.785-.589.26-1.177.47-1.828.287l-.112-.133v.028c-.007 0-.007.007-.007.007a.365.365 0 0 1 .02.035c.288.897-.21 1.485-.84 2.01-.182.119-.357.238-.54.364 0 .014-.006.028-.006.042-.253.63-.253 1.358-.645 1.939a.746.746 0 0 1 .455.168l.442-.126c-.021-.147-.042-.294-.07-.448.098-.903.273-1.743 1.387-1.925.056.02.112.035.175.049zm39.928-43.546c.3-.224.734-.294 1.133-.42.007 0 .02 0 .028.007-.021-.105-.035-.224-.056-.336.182-.336.454-.546.79-.637l-.02-.126c-.267.126-.553.21-.82.336-.272.14-.524.343-.832.392.007.126 0 .26-.014.385-.063.147-.14.266-.21.4zm13.344-10.543a1.334 1.334 0 0 1-.463-.098c-.119.294-.23.588-.357.882l.063.084a7.418 7.418 0 0 1-.042.182.751.751 0 0 1 .19-.168.824.824 0 0 1 .616.091.905.905 0 0 1 .112-.126c0-.308.098-.588.28-.847.035-.056.07-.105.098-.154a.754.754 0 0 1-.308-.273 1.026 1.026 0 0 1-.19.427zm-3.992 4.18c-.42.286-.833.56-.966 1.057.19-.084.357-.154.539-.19l.881-.798a.636.636 0 0 1-.454-.07zm.062 7.245c.014-.105.035-.203.056-.294-.077-.357-.224-.679-.581-.917-.315.12-.644.245-.967.378-.217.77-.546 1.372-1.204 1.52.406-.015.917.006 1.59.055.35.021.693-.308 1.106-.315a1.74 1.74 0 0 1 0-.427zm.698-4.151c.168-.231.336-.47.525-.7-.12.056-.245.105-.357.14-.161.133-.231.308-.168.56zm18.37 28.647a8.316 8.316 0 0 1 1.945-.51c-.637-.106-1.47-.043-1.945.51zm51.846-49.125c.063-.294.146-.623.251-1.008-.251.133-.391.33-.328.672.02.12.049.224.077.336zM1127.97 77.498c1.044.392.827-.42.827-.798v-.007c-.386.238-.778.462-1.184.679.119.035.238.07.357.126zm-22.794-2.464c-.482.763-1.322 1.155-2.014 1.7.182-.027.364-.062.56-.09.363-.658 1.357-.756 1.545-1.575-.028-.021-.063-.021-.09-.035zm.705 4.557c.168.75-.175 1.232-.638 1.666.28-.119.554-.23.834-.336v-.028c.07-.343.231-.616.504-.805-.014-.007-.02-.007-.035-.014a1.901 1.901 0 0 1-.518-.567.488.488 0 0 1-.322.056c-.007 0-.007 0-.014.014.063 0 .112.007.189.014zm4.028-4.894a.972.972 0 0 1-.301.26c.665.203 1.31.399 1.961.58a4.634 4.634 0 0 1 0-.44c-.336-.582-.07-1.107.091-1.66-.02.021-.035.042-.056.063-.49.392-1.002.476-1.52.203.07.343.021.672-.175.994zm4.67-.056c.106-.63.491-1.106.94-1.526.693-.448 1.246-1.253 2.248-.924.014.014.028.028.05.042l.083-.224c.098-.098.19-.196.301-.294.183-.294.358-.581.54-.875-.687-.35-1.471.707-2.137-.007a1.906 1.906 0 0 1-.175.112c-.154.896-1.008 1.421-1.31 2.233-.308-.049-.63-.119-.952-.182-.084.266-.161.54-.238.82.217.272.434.545.651.825zm4.921-3.661a2.7 2.7 0 0 1 .091-.784c-.217.168-.448.308-.742.329-.028.105-.063.203-.091.301.245.056.49.112.742.182zm45.265-38.367c-.37.126-.727.26-1.084.385.175.105.364.204.545.309.224-.14.448-.28.679-.42a1.449 1.449 0 0 1-.14-.274zm38.017-11.81c.028.315-.063.574-.301.735.3-.056.357-.385.448-.7-.056.006-.105 0-.147-.036zm1.79-11.55c.308-.203.637-.378.966-.553a13.037 13.037 0 0 1-.539-.035 2.623 2.623 0 0 0-.427.588zm-198.269 130.448c.19-.315.462-.581.743-.833-.21-.582.077-1.198.105-1.786a.352.352 0 0 0-.084.014c-.127.75-.54 1.218-1.29 1.373.35.329.47.77.526 1.232zM1217.367 1.657c-.056-.056-.112-.105-.168-.16a.7.7 0 0 1 .07.328c.273-.042.552-.042.825.007.014-.02.028-.035.042-.049a2.809 2.809 0 0 0-.77-.126zm-10.339 6.147c-.111.133-.223.266-.356.378 1.322-.553 2.665-1.043 3.777-1.953.182-.098.322-.084.42.042.202-.917 1.09-1.176 1.692-1.715.056-.021.12-.035.168-.056 0-.035.014-.063.014-.098a18.65 18.65 0 0 1-.531.119c-1.735 1.085-3.456 2.184-5.184 3.283zM965.77 162.272c-.378.336-.77.588-1.232.455.196.224.329.483.406.777.147-.434.49-.714.798-1.022.014-.021.035-.028.05-.042-.015-.056-.015-.112-.022-.168zm-24.426 20.526a1.89 1.89 0 0 1-.651-.126c.014.042.042.07.05.112-.029.385-.218.665-.435.917.343-.3.658-.658 1.036-.903zm-1.817 1.561c-.259.182-.518.35-.832.245 0 .014.007.021.014.035-.028.33-.21.602-.406.875.364-.427.818-.77 1.224-1.155zm-1.52 1.59c-.168.245-.3.518-.28.84.042-.322.14-.602.28-.84zm-66.896 68.118c.175.357.252.784.672.96.042.027.077.055.112.083.146-.182.293-.357.44-.525-.3-.294-.58-.595-.755-.959-.14.154-.294.308-.469.441zm7.893 2.086c.897-.924 1.78-1.876 2.683-2.8-.84.196-1.303 1.071-2.101 1.351.007.014.007.021.014.035a5.057 5.057 0 0 1-.596 1.414zm29.046-31.02c.21-.722 1.023-1.19.96-2.038-.953.763-1.45 2.275-3.117 1.904-.014.273-.035.553-.056.827-.525.28-1.016.616-1.338 1.12a.75.75 0 0 1 .4.224c.35-.336.679-.68 1.12-.91.224-.077.455-.091.694-.063.147-.645.679-.918 1.337-1.065zm86.79-77.738c.35-.33.707-.658 1.057-.98-.007-.014-.014-.042-.035-.056a8.247 8.247 0 0 1-.35-.35c-.35.272-.721.51-1.142.637a.68.68 0 0 1 0 .266 2.56 2.56 0 0 1-.434.637 2.27 2.27 0 0 1 .862-.273zm9.053-2.038c.385-2.198 2.651-2.485 3.868-3.85.14.028.287.028.434.028.133-.413.357-.763.63-1.078-.378.189-.826.28-1.379.196a2.522 2.522 0 0 0-.461-.021c-.44 1.26-1.581 1.771-2.623 2.38-.525.77-1.05 1.54-1.574 2.317.385.574.755.238 1.133.056-.014 0-.014-.014-.028-.028zm6.631-4.172c.44-.077.825-.364 1.266-.364-.07-.168-.084-.371-.112-.574-.28.44-.7.7-1.154.938zm123.983-85.173c-.413.4-.924.665-1.392.987-.49.308-.917.75-1.532.651.007.147-.028.301-.084.434.098.175.154.357.175.525.335-.392.664-.805 1.09-1.12.288-.175.595-.266.924-.16-.056-.435.294-.708.546-1.023l.273-.294zm-26.644 17.74c-.468.098-.93.154-1.322-.147.105.28.098.56 0 .847h1.232a.792.792 0 0 1-.098-.315.992.992 0 0 1 .188-.385zm35.16-2.744c.246.161.715-.056.701-.308v-.07c-.238.161-.47.28-.7.378zm47.851-11.152c.736.518 1.261.133 1.765-.315-.51.147-1.1.245-1.765.315z"/></g><g><path fill="#0c39f8" d="M.27 183.737A62 62 0 0 1 62.004 116h1058.127a62 62 0 0 1 61.851 66.294l-29.934 431.143c-2.308 33.253-30.495 58.73-63.811 57.675l-991.04-31.35c-31.255-.989-56.881-25.097-59.775-56.232z"/></g><g clip-path="url(#clip-572F8D8C-EFAA-4F32-94F7-499823B9D5FC)"><path fill="#ffe030" d="M178.642 135.333c.636-.725 1.363.21 2.014-.11.065.09.13.185.2.28-.145.5-.49.829-.942 1.064l-.02.12-.11.05c-.13.774-1.403 1.418-.17 2.367.325.25-.115.715-.411.994-.46.43-.917.86-1.378 1.29-.716 1.063-1.057 2.272-1.322 3.501.095.66-.306 1.14-.596 1.649-.236.08-.471.154-.712.234-.105.19-.215.38-.326.565-.105.53-.285.984-.911 1.059 0 .005-.005.01-.01.01.075.065.095.16.075.3-.566.544-1.132 1.094-1.689 1.648-1.047.665-1.553 1.943-2.77 2.413-.541.23-1.157.22-1.698.5-.406.35-.887.584-1.373.779-.185.13-.376.274-.521.45-.205.414-.516.739-.902.998a5.498 5.498 0 0 0-.42.345c-.717.405-1.438.8-2.3.754h-.01a1.413 1.413 0 0 1-.13-.174c-1.038.664-2.23 1.069-3.212 1.823-.4.28-.811.53-1.257.72-1.107.324-1.894 1.198-2.901 1.698-.561.26-1.147.484-1.663.834-.546.375-1.112.73-1.613 1.169-.146.415-.521.72-.822 1.064.095-.055.195-.105.306-.14.54-.36 1.032-.79 1.703-.89.04 0 .085.006.13.01.08-.209.286-.284.526-.324.892-.185 1.458-1.049 2.405-1.129.04.015.07.03.11.055 1.218-.974 2.8-1.169 4.153-1.868.025-.005.055-.015.086-.025.015-.864.61-1.01 1.307-1.024-.436.35-.867.68-1.292 1.019.576-.175 1.102-.545 1.748-.475 1.468-.71 2.775-1.718 4.374-2.168.1-.065.205-.125.305-.195.456-.314.922-.634 1.378-.954.937-.68 1.874-1.358 2.81-2.043.05.744-1.137.954-.801 1.824l-.14.09-.136.1c-.681-.066-1.102.489-1.663.699l-.12.115-.156.075a.308.308 0 0 0-.24.02c.075-.005.155-.015.24-.02-.37.27-.746.539-1.117.804-1.508 1.194-3.016 2.393-4.519 3.582-.466.09-.786.484-1.247.594-1.107.8-2.26 1.534-3.266 2.438.851.07 1.372-.185 1.838-.585.551-.25 1.092-.494 1.638-.744.18-.16.351-.32.526-.48.256-.035.511-.075.767-.12.48-.304.957-.609 1.433-.909h.496c.08.705-.667.75-.932 1.16-.977.794-1.829 1.758-3.116 2.102-.11-.03-.186-.09-.22-.17 0 .006-.016.01-.02.016-.928.844-1.884 1.643-3.072 2.108l-.145.035-.105.104c-.902.25-1.513.975-2.295 1.434-.3.2-.486.55-.841.705-.351.16-.717.25-1.078.354-.275.14-.546.285-.806.44-.296.255-.596.504-.897.75.175-.106.35-.19.541-.266.601-.165 1.132-.504 1.714-.739.145-.055.295-.11.44-.16a.856.856 0 0 1 .566-.185c.1-.06.196-.125.291-.19.155.025.316.05.476.07.376-.27.751-.54 1.132-.804.882.045 1.228-1.149 2.144-1.019l.03-.06.557-.404c.36-.06.721-.12 1.578-.27-1.198.844-2.03 1.433-2.866 2.018-.676.285-1.127 1.009-1.954 1.009-.456.285-.917.564-1.377.854-.557.395-1.113.775-1.664 1.17-.2.329-.691.464-.656.953.822-.2 1.733-.155 2.38-.844.576-.185.901-.86 1.593-.814.48-.275.972-.555 1.443-.83.16 0 .315.006.47.016.18-.125.371-.25.562-.375.486-.335.977-.66 1.452-.99.176.026.346.04.517.066.47-.305.796-.92 1.507-.725-.465.315-.926.62-1.397.935-.461.344-.932.694-1.403 1.054-.085.08-.175.16-.26.24a1.097 1.097 0 0 1-.096-.15c-.335.524-.922.714-1.403 1.029-.225.44-.67.25-1.017.35-.255.224-.516.439-.776.664-.366.48-.792.894-1.448.919l.02.01c-.987.265-1.608 1.004-2.244 1.723-1.393.69-2.676 1.509-3.798 2.598-.135.155-.28.285-.436.414-.275.2-.556.4-.826.6.831-.31 1.428-1.164 2.4-1.174.425-.315.871-.61 1.317-.904.326-.2.641-.4 1.007-.41.04-.045.075-.09.105-.135.236-.29.496-.53.792-.739a3.3 3.3 0 0 1 .942-.485c.335-.114.671-.194 1.012-.3.962-.309 1.668-1.043 2.505-1.568.4-.275.816-.55 1.272-.724.065-.025.125-.06.19-.08.271-.55.817-.844 1.303-1.154 1.593-1.014 2.916-2.458 4.8-3.007a.497.497 0 0 1 .17-.01c-.07-.02-.11-.06-.1-.11a.15.15 0 0 1 .05-.105c.977-.49 1.393-1.714 2.58-1.903-.486 1.054-1.388 1.728-2.25 2.447-.29 1.679-1.983 1.974-2.95 2.973 0-.005.005-.01.005-.015-1.493 1.563-3.257 2.752-5.21 3.666-1.484 1.02-2.982 2.038-4.47 3.053-.22.35-.51.35-.816.234-.256.165-.516.335-.772.495-.626.265-.345.989-.716 1.379-.27.06-.536.115-.797.174-.35.235-.68.475-1.027.72-.075.305-.155.614-.225.924-.641.195-1.283.4-1.919.6a.799.799 0 0 0-.14.2c-.11.11-.23.204-.366.289-.055.03-.115.07-.18.1-.842.959-1.909 1.653-2.976 2.348-.19.13-.386.254-.581.394-.24.05-.486.095-.727.145-.47.345-.931.7-1.402 1.044-5.246 2.933-9.524 7.274-14.744 10.26-.236.066-.471.136-.707.206h.005a881.963 881.963 0 0 0-4.594 3.551c-.601.09-.967.53-1.373.935-.265.274-.566.514-.916.424-.02.025-.035.05-.05.075-.516.65-1.027 1.299-1.629 1.868.13.02.26.04.391.055.1-.02.19-.055.28-.1.948-.679 1.89-1.353 2.836-2.033l.476.06c.145 0 .21.035.21.12-.004.075-.024.12-.06.15l-3.106 2.183c-.27.205-.536.41-.806.605-.04.164-.085.33-.13.5-.792.434-1.423 1.178-2.405 1.288-.917.544-1.628 1.444-2.78 1.588-2.731 2.778-5.952 4.746-9.74 5.74-.215.06-.44.155-.596.31-3.617 3.437-7.94 5.944-11.959 8.842-5.891 4.256-11.888 8.357-17.845 12.528-.26.25-.496.55-.901.565-2 2.433-4.394 4.46-7.03 6.14-.59.379-.826 1.513-1.883 1.118-.095.2-.005.495-.316.57-2.82 2.403-5.556 4.855-9.253 6.024-2.735.854-4.599 3.107-6.528 5.146a9.167 9.167 0 0 1-3.206 2.572 3.2 3.2 0 0 1-1.067.445c-2.024 1.279-4.103 2.468-5.832 4.141l-3.14 2.643c-5.306 5.764-11.173 10.915-17.375 15.695-.45.355-.857.77-1.283 1.154-.776 1.918-2.615 2.833-4.143 3.892-2.535 1.748-4.729 3.931-7.35 5.535l-.054-.025c-.005.005-.01.005-.01.01l.065.015c-.742 1.139-2.09 1.438-3.071 2.223a2263.322 2263.322 0 0 0-6.453 5.265c-2.775 2.188-5.536 4.386-8.321 6.564-1.032.8-2.14 1.463-3.387 1.878-.065.025-.13.05-.195.065-1.233.764-2.56 1.054-3.988.78-.947.184-1.824-.12-2.72-.335h-.006c-.345.154-.676.11-.957-.14-1.067-.27-2.144-.54-3.03-1.25-1.238-.379-2.365-.998-3.402-1.772-1.388-.76-2.435-1.884-3.417-3.093-.656-.145-.862-.774-1.272-1.179-.511-.4-.972-.829-1.408-1.288-.32.2-.546-.285-.777-.75-.506.415-.065 1.359-.891 1.599.035.394.225 1.029-.341.984-.772-.075-.737-.714-.421-1.309-.045-.76.155-1.424.731-1.958-.08-.15-.105-.31-.08-.47.05-.02.106-.04.146-.055-.692-.924-1.333-1.888-1.994-2.837-.551-.79-.992-1.654-1.478-2.483-.31-.46-.606-.929-.907-1.389-.01.075-.02.15-.025.23-.852-.32-1.022-.394-.681-1.239a.975.975 0 0 0-.086-.114c-.445-.575-.34-1.01.106-1.464.6-1.379 1.598-2.328 2.81-3.047.837-2.433 3.031-3.972 4.183-6.185.291-.24.521-.524.732-.824.125-.435.255-.864.39-1.299.512-.45.872-1.084 1.619-1.239.957-1.254 1.924-2.502 2.875-3.751 1.038-1.499 2.014-3.057 3.698-3.942 0-.105.01-.2.045-.3a78.751 78.751 0 0 0 5.23-5.344c2.164-2.413 4.845-4.371 7.294-6.53.426-.374.827-.784 1.238-1.183 1.007-.22 1.187-1.364 2.024-1.769.24-.16.48-.31.726-.464.005-.145.01-.29.03-.435.291-.2.577-.405.867-.614.436-.425.887-.835 1.258-1.32a34.185 34.185 0 0 1 4.278-3.646c.17-.185.36-.36.551-.524-.356.164-.746.214-1.242.045-.491-1.244.876-1.41 1.267-2.144 1.017-1.558 2.786-2.138 4.193-3.202.426-.224.862-.444 1.288-.669.28-.26.556-.52.827-.764.46-.96.987-.73 1.533-.1-.386.175-.772.344-1.153.52.03.084.055.17.07.264-.33 1.134-1.102 1.414-2.099 1.289.025.195.01.385-.055.574-.205.405-.506.75-.846 1.044-.647.48-1.293.955-2.065 1.22-.015 0-.025 0-.04.004-.01.28-.115.53-.285.765.29-.235.566-.47.836-.74.622-.64 1.488-.984 2.1-1.653.466-.295 1.107-.24 1.483-.735.997-1.563 3.166-1.648 4.118-3.267.265-.14.526-.28.786-.42.431-.03.782-.184.902-.644.711-.37 1.413-.724 2.124-1.089.17-.085.336-.174.501-.27a1.01 1.01 0 0 0-.5.27c.12-.23.25-.464.37-.699.756-.999 1.588-1.908 2.785-2.398.647-.32 1.423-.37 1.92-.989.395-.095.766-.205.756-.72.926-.429 1.959-.729 2.53-1.698.726-.15 1.337-.48 1.698-1.164.912-.849 1.969-1.523 2.976-2.253l.02.02c1.879-.834 3.722-1.738 5.275-3.107a.742.742 0 0 1 .266-.604c.325-.195.656-.24 1.007-.085.295-.115.586-.225.882-.34.596-1.039 1.778-1.074 2.685-1.583.315-.12.631-.245.942-.355 1.187-1.648 3.016-2.403 4.684-3.372.771-.455 1.503-.969 1.949-1.778.761-.37 1.523-.73 2.284-1.094.23-.285.466-.565.702-.845.2-1.613 1.568-2.437 2.434-3.596 1.649-.265 1.213-1.764 1.649-2.753.706-.47 1.142-1.319 2.084-1.448v-.005c-.01-.145-.01-.3.015-.45.721-.3 1.443-.604 2.159-.904.802-.31.987-1.484 2.034-1.444.897-1.109 2.08-1.813 3.357-2.363-.16-.224-.116-.394.14-.51.15.026.24-.03.27-.174 2.225-1.239 4.444-2.483 6.664-3.722 1.528-.46 2.36-1.908 3.712-2.622.035-.15.07-.29.1-.43.511-.26 1.012-.524 1.508-.774 1.117-1.234 2.745-1.669 4.033-2.633 1.242-.135 1.854-1.793 3.327-1.374.375-.294.756-.594 1.132-.904.26-1.348 1.578-1.443 2.47-2.048-.015-.15-.02-.3-.015-.45 1.377-.254 2.154-1.528 3.416-1.968.401-.36.797-.714 1.203-1.069.185-.02.36-.04.546-.065.806-.599 1.408-1.608 2.665-1.333.01-.45.356-.595.696-.745.02-.474.316-.694.727-.804.977-1.099 2.284-1.708 3.527-2.398a1.407 1.407 0 0 1-.015-.434c.416-.205.821-.4 1.232-.6.867-.13 1.553-.914 2.555-.734.095.919-.621 1.059-1.192 1.334-.536 1.039-2 .944-2.51 2.018.356.36.771.225 1.182.12.747-.445 1.488-.885 2.23-1.33.6-.274 1.192-.544 1.798-.813.787-1.27 2.11-1.804 3.367-2.423.09.045.17.065.26.07-.09-.025-.17-.055-.26-.07.11-.1.235-.17.38-.2-.01-.14-.004-.275.006-.415.085-1.104.966-1.533 1.738-2.068.907-.544 1.728-1.324 2.93-1.014.677-.829 1.724-1.049 2.576-1.598.436-.44.857-.485 1.272.025l-.015.174c.136.045.206.125.206.24 0 .135-.02.21-.07.23.065.17.135.34.2.51.26-.18.526-.35.817-.485.63-.245 1.222-.56 1.793-.904.21-.155.436-.29.661-.42.541-.344 1.068-.714 1.614-1.049.12-.1.24-.185.37-.275 0-.025-.005-.05 0-.08.436-.24.872-.479 1.303-.719.626-.44 1.207-.944 1.743-1.498 1.233-1.05 2.71-1.739 4.043-2.648.21-.16.421-.3.657-.42.07-.035.145-.07.22-.105.857-1.049 1.763-2.038 3.296-2.063.046-.045.1-.08.146-.125.285-.22.59-.41.917-.564.22-.115.445-.2.68-.26.181-.04.372-.07.557-.075.967-.914 2.355-1.329 3.206-2.398-.01-.005-.015-.005-.025-.005-.39-.824.08-.979.757-.969.466-.184.922-.37 1.388-.56.6-.659 1.232-1.243 2.229-.933a.761.761 0 0 1-.15-.405c.25-.604.746-.85 1.362-.914.451-.24.887-.48 1.338-.72.25-.32.586-.444.992-.429.821.674.466 1.284-.115 1.878-.29.415-.822.495-1.183.815-.42.19-.846.38-1.267.569.145-.355.165-.53.115-.614-.04.204-.075.404-.115.614-.16.055-.336.115-.496.175-.33.42-.521 1.004-1.192 1.034-.917.894-1.83 1.783-2.75 2.672-.236.54-.632.89-1.198 1.034-1.95.75-3.507 2.104-5.19 3.268a8.882 8.882 0 0 1-.226-.14c-.581.384-1.358.504-1.688 1.224-.27.14-.531.26-.797.39a.29.29 0 0 0-.165-.07c.055.024.11.044.165.07-.706.424-1.413.843-2.114 1.268a4.47 4.47 0 0 1-.41.664c-.251.265-.537.475-.847.66-.501.295-.992.6-1.478.909-1.173.88-2.35 1.758-3.522 2.638 0 .005-.005.005-.005.005-.216.184-.426.354-.637.544-.185.16-.39.305-.596.435-1.087.55-2.084 1.204-2.73 2.288-1.152 1.343-2.73 2.093-4.153 3.057.3.065.61.135.911.2-1.713 1.169-3.11 2.777-5.075 3.591-1.287.845-2.565 1.694-3.852 2.543-2.64 1.978-5.3 3.961-7.946 5.945-2.154 1.648-4.153 3.511-6.508 4.9-.115.065-.23.12-.34.18-.12.285-.35.465-.687.534-.16.03-.305.08-.45.145-.952.61-1.834 1.314-2.61 2.168-.236.31-.497.585-.777.845-1.052.814-2.074 1.683-3.482 1.828-.035-.005-.06-.015-.09-.02-.316.38-.621.764-.932 1.144-.47.225-.937.44-1.408.66-.105.214-.245.234-.42.084l-.04.015c.415 1.249-.892 1.579-1.373 2.343-1.679 1.289-3.322 2.623-5.045 3.857-2.285 1.463-4.063 3.616-6.513 4.855-1.603 2.213-3.938 3.567-6.087 5.135-.35 1.02-1.498 1.1-2.124 1.804-.857.534-1.714 1.084-2.575 1.618-.336.964-1.318 1.014-2.03 1.439-.44.35-.886.644-1.317-.015.611-1.429 1.703-2.298 3.201-2.673.09.035.166.07.226.11.16-.324.426-.46.791-.404.01 0 .015-.005.03-.005a.07.07 0 0 1-.02-.015c.086-1.2.637-1.963 1.824-2.168a.866.866 0 0 1 .18-.45c.797-.754 1.839-1.219 2.54-2.093.797-.674 1.608-1.339 2.425-1.998.19-.135.406-.235.631-.3.24-.025.451.02.652.155.486-1.918 2.149-2.872 3.486-4.091.772-.44 1.508-.894 2.12-1.499a8.94 8.94 0 0 1-1.533.714c-.216.04-.431.055-.632.04-.13.125-.255.255-.385.38-1.208.944-2.32 2.053-3.878 2.438-.24.305-.476.604-.711.899-.326.11-.652.225-.977.335-.571.4-1.148.804-1.714 1.204-.295.25-.781.364-.706.904-.28.095-.571.19-.842.29 0 .06.005.114.005.18-1.202.414-2.22 1.078-2.93 2.142l-1.458.555c-.311.43-.536.949-1.153 1.034-.661.954-1.683 1.254-2.73 1.489-.882.909-1.809 1.748-3.236 1.448.085-.25.17-.494.26-.734a3.35 3.35 0 0 1 .747-.774c-.557.33-1.143.604-1.559 1.134-.145.18-.305.334-.465.49.25.02.546.139.876.399-.26 1.109-1.423 1.254-2.099 1.923-.25.295-.5.584-.761.874-1.223-.095-1.103 2.213-2.676 1.504-1.518.85-2.5 2.652-4.554 2.533-.115.224-.225.444-.34.659-.226.664-.827.834-1.378 1.074-.822 1.024-1.979 1.594-3.056 2.263l-.22.03-.206.09c-.49 1.124-1.974.989-2.555 1.993-1.102.03-1.373 2.078-2.86 1.164h.18c-.286-.12-.571-.225-.867-.345.07-.05.14-.1.21-.155a.915.915 0 0 0-.21.155c-.576.38-1.157.755-1.743 1.134.54-.145 1.072-.25 1.628 0-.07.21-.155.42-.236.635-1.107 1.099-2.555 1.708-3.787 2.617-.536.435-1.067.86-1.608 1.294-.145.94-1.443.644-1.638 1.529-.26.729-.887.794-1.498.894.005.08.02.155.02.235-.246.889-1.448.58-1.759 1.388-.28.12-.56.245-.831.375-.286.245-.582.47-.897.68-1.258.964-2.52 1.918-3.783 2.887-.035.01-.07.015-.1.025-.055.065-.11.135-.16.21-.596 1.538-1.804 2.232-3.367 2.447-.095-.05-.175-.1-.255-.15-.857 1.894-3.026 2.208-4.344 3.552-.611.62-1.528.92-1.733 1.888-.075.44-.356.73-.747.935-.165.085-.335.184-.51.284-.462.395-1.013.58-1.584.71a4.324 4.324 0 0 1-.917.185c-.095.02-.18.035-.27.06-1.668 1.608-3.337 3.217-5.005 4.835-.296.11-.601.22-.912.33-.005.055-.025.1-.04.15a1.884 1.884 0 0 1-.556.534c.386.105.736.28 1.072.495-.06-1.1.707-1.114 1.553-1.03a.668.668 0 0 1-.14-.21c-.01-.254.035-.494.16-.714 1.007-1.079 1.869-2.422 3.657-2.168-.02-.035-.05-.06-.07-.1.276-1.833 2.094-2.098 3.192-3.092.64-.684 1.783-.184 2.37-.994.135-.08.28-.165.42-.235.155-.18.37-.32.546-.114.326.354.13.689-.155.974-1.117.844-2.22 1.678-3.332 2.512-.42.895-1.177 1.324-2.099 1.549-.07-.01-.13-.025-.19-.04-.496.51-.972 1.024-1.458 1.534-.717.46-1.423.914-2.134 1.368-.481.77-1.233 1.18-2.034 1.519-.06.495-.411.674-.842.75-2.21 1.498-3.667 3.886-6.122 5.09l-2.5 2.088c-.42 1.633-2.039 1.948-3.131 2.837-.436.515-.807 1.1-1.523 1.264-.426.495-.852.99-1.278 1.479 1.318-.865 2.666-1.689 4.068-2.413.28-.215.567-.405.937-.47 1.99-1.284 3.983-2.562 5.972-3.846 1.698-1.664 3.717-2.863 5.751-4.051.376-.255.747-.515 1.118-.775 1.543-1.399 3.266-2.552 5.004-3.671.19-.255.406-.49.782-.505.04-.025.08-.055.125-.085.34-1.039 1.338-1.104 2.164-1.429.14-.095.281-.184.416-.284 2.014-1.414 3.748-3.187 5.882-4.406.38-.215.646-.71 1.202-.485.26-.59.817-.82 1.328-1.099a1.39 1.39 0 0 1-.19-.355c.105-.104.225-.184.36-.24.155.03.356-.044.546-.12 1.082-1.153 2.565-1.798 3.828-2.732l.01-.005c.115-.42.496-.754.621-1.169 1.212-.574 1.588-.754 1.839-.494 1.017-.65 2.044-1.274 3.046-1.923.43-.72 1.012-1.21 1.863-1.33 0-.004-.005-.004-.005-.01.812-1.168 2.12-1.728 3.182-2.582a1.464 1.464 0 0 0-.116-.215c.196-.604.596-.904 1.052-1.104.09-.564.837-.749 1.303-1.069.666-.24 1.338-.47 2.004-.699.04.135.065.25.08.365 1.197-.85 2.435-1.644 3.677-2.438-.23.045-.47.04-.716-.06.741-.33 1.272-1.144 2.23-1.004a.72.72 0 0 0-.056.13c.326-.215.651-.425.982-.645-.16.09-.326.175-.506.245-.1-.27-.205-.54-.305-.804.125-.395.395-.55.801-.445.476-.17.952-.344 1.428-.504a3.19 3.19 0 0 1-.937 1.174 36.913 36.913 0 0 0 3.111-2.318c.2-.165.526-.18.797-.27.892-1.094 2.119-1.439 3.457-1.514.275-.164.55-.33.816-.494.17.76-.681 1.573.115 2.303l.727-.15c.581-.385 1.162-.764 1.743-1.134.216-.714.707-.844 1.313-.86 1.027-.684 2.044-1.378 3.02-2.137a2.419 2.419 0 0 1-.104-.225c.225-.07.45-.155.66-.215.056-.045.111-.08.166-.125 1.223-1.314 2.806-2.148 4.234-3.182 2.885-2.083 5.811-4.091 8.702-6.16.265-.19.5-.424.866-.394a.462.462 0 0 1-.015-.12c.146-.514.556-.81.952-1.114-.175.02-.34.02-.49-.03l-1.383 1.11v-.06c-.256.164-.511.639-.807.234-.26-.36.145-.594.456-.754l-.065-.02c.285-.475.721-.75 1.207-.944a.904.904 0 0 1-.045-.445c.306-.53.817-.904 1.142-1.409.276-.374.546-.75.827-1.119-.03-.63.165-1.119.822-1.324.956-1.278 2.219-2.203 3.557-3.037 3.056-2.467 5.951-5.145 9.749-6.509.37-.13.681-.414 1.022-.634a.29.29 0 0 1 .195.08c.25-.165.531-.24.827-.285.486-.27.952-.575 1.418-.88.05-.08.12-.15.21-.204.14-.105.29-.195.45-.245 1.524-1.064 2.997-2.213 4.635-3.092v.055c.195-.125.39-.25.581-.38.396-.03.787-.06 1.182-.08-.741.52-1.487 1.05-2.229 1.569.035-.08.065-.16.095-.24-.06.065-.11.14-.095.24-1.753 1.129-2.99 2.897-4.87 3.871-.085.22-.17.445-.26.67-.05.909-1.268.924-1.363 1.788.075.06.126.15.146.255l-.657.504a.644.644 0 0 0-.085.08c1.498-.025 2.39-1.383 3.727-1.773.266-.085.536-.165.807-.25 2.45-2.263 5.295-3.996 8.07-5.81 1.63-1.064 3.042-2.447 4.84-3.252a14.735 14.735 0 0 1 3.127-2.153c1.493-.959 2.785-2.237 4.463-2.902.04-.02.066-.04.106-.06h.045c.035-.01.075-.02.1-.03.03-.07.095-.095.22-.075.416-.045.396-.694.882-.65.842-.569 1.683-1.143 2.525-1.718.11.035.22.065.33.095l.05-.105.121.005c1.478-.959 2.87-2.053 4.439-2.857.21-.105.42-.2.626-.3.035-.105.105-.15.21-.13 5.416-3.926 10.982-7.618 16.643-11.17 1.293-.814 2.34-2.003 3.798-2.552.11-.05.225-.095.35-.115.356-.225.722-.46 1.082-.69.401-.324.812-.614 1.358-.619.641-.44 1.288-.874 1.929-1.314a.258.258 0 0 0 .26-.114c.351-.04.617-.29.952-.375.967-.754 1.984-1.399 3.041-1.998.531-.365 1.062-.72 1.593-1.09 1.153-.359 2.034-1.158 2.981-1.863.06-.14.126-.274.186-.42-.25.11-.526.17-.827.106-1.142.844-2.52 1.204-3.782 1.813-.286.19-.567.39-.857.585-.782.38-1.568.769-2.36 1.153.18-1.009 1.138-1.004 1.694-1.503 1.407-1 2.82-2.003 4.233-3.017.105 0 .175.05.2.14.762-.51 1.403-1.14 1.849-1.964.877.05 1.242-.64 1.718-1.169.321-.015.627.08.937.12.827-.444 1.643-.889 2.47-1.334.847-.41 1.338-1.558 2.54-1.238.35-.33.15.06.06.32.025-.046.05-.086.075-.13.481-.485.967-.98 1.453-1.46.19-.11.386-.21.576-.314-.24-1.639 1.383-1.579 2.13-2.333.465.36-.036.754.05 1.13.375-.22.756-.44 1.137-.66.115.15.23.31.346.46-.23.18-.466.369-.702.544.481.37 1.092.065 1.633.13.807-.43 1.624-.86 2.435-1.29 2.255-1.193 4.229-2.757 6.077-4.49a.803.803 0 0 0 .28-.305c-.74-.155-1.051 1.014-1.748.99.005.064.015.134.025.194-1.097.305-.29-.704-.636-.914h-.005c-.586.23-.962.904-1.839.84.15-.74.747-.92 1.233-1.195.556-.4 1.122-.794 1.673-1.194.596-.709 1.683-.779 2.17-1.638a.426.426 0 0 1-.16-.19l-.01-.015c-.647.46-1.293.914-2.11 1.489-.025-1.18.641-1.674 1.267-2.193.466-.33.937-.66 1.403-.994 1.769-1.704 4.033-2.688 6.002-4.117.741-.534 1.498-1.024 2.084-1.728.145-1.099.927-1.459 1.739-1.768.2-.135.43-.235.686-.27zM34.106 262.195a1.085 1.085 0 0 1-.098-.023c.002.001.004.003.004.01zM9.328 239.877c.066-.075.126-.154.176-.234.195-.135.38-.29.57-.435-.3.155-.655.215-1.111.105a.84.84 0 0 1 .12.145c.05.12.04.235.015.344l.23.075zm2.39-1.26c.155-.528.39-1.017.621-1.515-.445.249-.886.508-1.337.753.025.05.045.104.07.17-.185.353-.4.667-.656.916.38-.249.786-.403 1.312-.279 0-.015-.01-.025-.01-.045zm11.378-8.576c0-.175.035-.33.105-.464-.22.125-.446.24-.652.37.176.004.361.04.547.094zm5.866-4.266c.36-.404.747-.754 1.162-1.074-.355.235-.726.465-1.127.635-.16.05-.33.09-.5.13.175.064.325.164.465.31zm1.724-1.463a6.617 6.617 0 0 1 2.029-.865h.065a.651.651 0 0 1 .04-.384c.145-.29.325-.535.53-.74-.245.08-.525.09-.836.005-.085.645-.601 1-1.027 1.41-.27.179-.53.379-.801.574zm3.807-2.648c.135-.045.276-.075.41-.105.106-.005.201-.015.296-.03.06-.125.14-.23.226-.33-.336.075-.631.26-.932.465zm31.397-19.677l.125-.095c.456-.35.902-.704 1.378-1.039.04-.44.245-.86.366-1.284-.862.65-1.809 1.17-2.67 1.819.135.12.28.244.42.374.125.075.25.15.38.225zm1.793-10.026c-.115.11-.255.2-.395.275.075-.005.16-.005.235-.01.236-.065.461-.15.676-.25a.985.985 0 0 1-.48-.05c-.016.01-.026.025-.036.035zm-16.823 12.37c-.01.05-.015.095-.035.144-.25.27-.54.39-.892.255.13.164.12.389.03.638.411-.32.757-.718 1.158-1.037a3.778 3.778 0 0 1-.226-.02c-.01.01-.02.02-.035.02zm1.037 1.617c-1.743.69-2.885 2.248-4.373 3.297.546-.194 1.097-.334 1.688-.11.04-.06.075-.12.115-.18.887-.874 1.974-1.513 2.88-2.357.592-.45 1.238-.84 1.814-1.314.411-.3.857-.54 1.318-.74.21-.639.867-.983 1.318-1.463l.345-.285c-.235.07-.49.065-.756-.03-.13.31-.37.52-.661.69-1.153.274-1.924 1.139-2.831 1.808-.366.12-.777.195-.857.684zm24.894-19.577a.77.77 0 0 1 .08-.44c-.28.09-.556.215-.841.315.265-.005.52.025.761.125zm-36.13 31.146c.42-.225.906-.31 1.452-.235 0-.005 0-.01-.005-.015-.04-.24 0-.463.11-.678.125-.114.246-.234.356-.364a28.35 28.35 0 0 0-1.663 1.112c-.076.065-.16.12-.25.18zM44 215.36c.066 0 .121-.01.191 0 .095.1.175.214.266.329.01-.04.01-.065.02-.105.09-.34.245-.598.45-.793-.31.19-.616.38-.926.569zm1.388-.85c.16-.065.336-.105.532-.124.01-.09.035-.18.065-.26-.196.13-.396.255-.597.384zm18.572-11.33c.376-.179.742-.389 1.097-.624-.416.13-.826.26-1.237.38 0 0-.015.01-.03.025.005.005.01.005.015.01.085.07.13.14.155.21zm8.241-6.514c.27-.17.546-.245.847-.17.17-.628.51-1.072.937-1.44-.957.657-1.954 1.266-2.82 2.048.175-.04.365-.06.56-.034l.146-.015c.105-.13.22-.255.33-.39zm3.823-2.998c.681-.334 1.247-.838 1.894-1.212.636-.324 1.207-.743 1.753-1.196a.843.843 0 0 1-.28-.27c-.642.42-1.288.843-1.934 1.262-.09.025-.186.055-.28.085-.176.17-.347.339-.497.533-.44.404-.902.788-1.368 1.167-.175.16-.37.314-.56.468.425-.279.876-.533 1.272-.837zm6.112-11.753c-.566 1.784-2.285 2.008-3.657 2.723-.126.015-.25.02-.376.02-.01.165-.06.32-.135.47 1.262.32 2.104-.905 3.211-1.14.065-.14.14-.28.21-.424.246-.41.597-.67 1.032-.83.11-.02.21-.04.311-.06.38-.614.942-1.028 1.623-1.313a1.086 1.086 0 0 1-.17-.74c-.36.345-.792.5-1.353.325.04.06.07.12.095.21-.12.53-.39.814-.961.604.055.04.11.09.17.155zm-19.273 13.278c-.33.105-.666.11-.987-.06-.015.005-.03.01-.04.015.05.03.095.08.135.145-.01.51-.235.84-.54 1.104.305-.075.615-.09.95.04l.016.015c.175-.405.346-.814.516-1.219.025-.035.055-.06.075-.095-.04.02-.08.04-.125.055zM43.65 209.525c-.24.105-.466.25-.746.175.23.29.596-.05.871.075.06-.155.15-.29.256-.42-.125.055-.25.115-.38.17zm-17.555 17.51a.84.84 0 0 1-.49.703c.105.01.205.025.31.05h.02c.27-.26.556-.494.877-.658-.23.05-.456.064-.681-.04a.335.335 0 0 1-.036-.055zm-59.11 49.328c.164-.165.33-.32.55-.374.04 0 .07.01.105.01-.035-.304.055-.588.266-.848.045-.045.09-.074.13-.114-.325.18-.686.314-1.112.364-.01.005-.02.015-.03.02.1.094.175.224.22.368-.005.22-.055.404-.13.574zm1.527-1.647c.296-.145.611-.21.952-.15-.025-.445.09-.8.3-1.1-.405.435-.791.895-1.252 1.25zm2.555-2.388c.125-.06.25-.115.38-.145.056-.01.111-.015.161-.025 0-.125.015-.24.05-.345-.195.17-.39.345-.59.515zm2.746-2.393c.295-.08.62-.085.976.02a.332.332 0 0 1-.06-.1 1.55 1.55 0 0 1 .176-.794c-.371.29-.732.574-1.092.874zm48.335-28.959c.085-.095.195-.204.35-.329-.185.04-.35.11-.506.18.05.044.096.094.156.15zm63.87-36.896a.75.75 0 0 1 .17-.325c-.12.03-.245.045-.39.06-.125-.045-.255-.09-.376-.13-.13.185-.32.265-.56.265-.552-.08-1.053-.025-1.404.49-.08.12-.18.24-.27.354-.06.08-.115.15-.17.22.23.38.01.775-.22 1.164-.291.32-.752.395-1.063.685-.42.284-.827.594-1.232.849.36-.165.66-.48 1.037-.7.195-.14.385-.28.6-.4.176-.03.311.03.412.176 0 .015.005.025.005.04.57-.535 1.127-1.084 1.933-1.27 0-.13.036-.24.176-.334.47-.345.972-.654 1.413-1.034-.025-.04-.035-.075-.055-.11zm3.036-3.475c.276-.26.577-.513.872-.758-.03-.005-.065 0-.1-.005-1.378 1.117-3.096 1.815-4.203 3.276 0 .005 0 .01-.005.015.21-.165.41-.33.62-.494.186-.01.372-.015.552-.025.075.22.1.394.08.544.125-.165.19-.354.105-.649.496-.329.992-.653 1.493-.987.196-.304.391-.603.586-.917zm14.64-10.257c.09-.07.18-.135.27-.2-.175.06-.355.115-.55.145-.015 0-.025-.01-.04-.01-.065.035-.12.065-.18.105-.13.564-.63.844-1.056 1.178-.81.435-1.59.94-2.445 1.27-.005.29-.255.429-.505.524-.15.06-.345.15-.505.14-.03.344-.215.634-.415.914.3-.14.605-.28.905-.425 1.11-.794 2.22-1.588 3.34-2.383.356-.454.786-.844 1.18-1.258zm1.998-1.45c.561-.399 1.132-.798 1.704-1.193a2.165 2.165 0 0 0-.772.145c-.175.115-.35.245-.531.365-.14.16-.26.36-.34.619-.02.025-.04.04-.06.065zm6.062.695c.456-.314.917-.623 1.373-.918-.696.25-1.298.654-1.739 1.287-.015.015-.035.025-.045.04.146-.12.28-.255.411-.41zm15.616-8.832l-.065-.045a.66.66 0 0 1 0-.49c-.11-.034-.22-.07-.32-.11-.211.11-.422.23-.632.34-.742.41-1.368 1.02-2.2 1.29a3.835 3.835 0 0 0-.52-.04c-.12.12-.246.23-.366.344-.226-.125-.426-.18-.591-.18-.617.235-1.102.725-1.463 1.444-.366.38-.862.535-1.293.8-.6.339-1.127.819-1.783 1.078a.912.912 0 0 1-.516.03l-.166.08c.076.05.16.1.236.17-.01.13-.035.245-.08.355.285-.18.58-.36.871-.53.291-.11.582-.13.867-.01.06.04.115.09.16.135 1.248-.86 2.49-1.718 3.733-2.578.215-.224.41-.46.606-.714 1.057-.744 2.084-1.583 3.522-1.364zm4.865-6.024c.836-.7 1.773-1.264 2.65-1.903.62-.39 1.262-.75 1.718-1.274-.646.524-1.433.934-2.26 1.269a5.123 5.123 0 0 0-.505.214c-.055.125-.11.25-.17.375-.216.145-.442.195-.672.185-.13.1-.26.19-.386.28a6.313 6.313 0 0 1-1.217.679.687.687 0 0 1-.256.375c-.57.34-1.117.714-1.648 1.119-.852.22-1.237 1.698-2.39 1.104-.09.035-.19.065-.28.1-.216.424-.722.619-.967 1.049.436-.11.776-.415 1.217-.41.06.015.116.04.166.065.085-.035.18-.065.27-.1.1-.025.19-.055.28-.08.727-1.259 2.1-1.753 3.187-2.583.35-.14.691-.344 1.092-.29.055-.06.105-.12.17-.174zm5.42 3.838c-.691.378-1.383.757-2.059 1.146.446-.2.902-.399 1.363-.583.115-.04.225-.095.34-.15.096-.16.216-.289.356-.414zm3.973 2.867c.266-.374.641-.648 1.032-.902-.105.01-.205.01-.32-.01-.04.065-.096.12-.14.19-.467.333-1.003.543-1.529.762-.997.394-1.924.907-2.815 1.47-.01 0-.015 0-.02.006a.12.12 0 0 0-.04.03c-.406.264-.812.523-1.208.802-.074.051-.074.053-.061.046l-.054.034c.03.015.04-.02.08-.035.481-.2.832-.568 1.242-.847.02-.015.04-.025.06-.035.281-.095.547-.24.837-.304.541-.14.962-.489 1.433-.758a2.61 2.61 0 0 1 .691-.28c.246-.064.511-.104.767-.154.015 0 .03-.01.045-.015zm9.283-23.148c.07-.065.13-.12.2-.17-.044.015-.084.04-.13.06-1.332.589-2.43 1.52-3.597 2.348.12-.054.236-.114.351-.174.28-.185.566-.374.842-.573.42-.285.816-.644 1.312-.768.146-.11.286-.22.421-.34.2-.129.4-.258.601-.383zm1.994-1.416c.13-.13.145-.25.025-.37-.11.235-.28.345-.546.29.015.04.035.08.05.125-.095.34-.315.58-.586.784.12-.06.25-.115.376-.17.09.01.175.016.265.026.01 0 .02-.005.03-.01l-.01.01c0 .015.005.024.015.034.015-.3.18-.514.381-.719z"/></g><g><path fill="#fca08b" d="M831.727 669.224l-2.504 10.638c-1.84 1.86-4.14 1.695-5.513-.913-1.194-2.271-2.053-4.712-3.114-7.055-.973-2.148-2.016-4.264-3.175-6.705-1.693 1.618-2.64 2.89-2.813 4.81-.2 2.183-.845 4.323-1.178 6.5-.358 2.32-1.39 3.985-4.434 4.646-.922-.842-2.463-1.736-3.26-3.072-1.715-2.88-3.059-5.982-4.53-9.006-.533-1.096-.997-2.23-1.541-3.457-1.6.75-1.89 1.977-2.072 3.324-.405 2.982-.722 5.984-1.343 8.923-.512 2.41-1.885 4.312-4.373 5.143-4.097-1.445-6.225-4.435-7.23-8.33-.952-3.68-1.706-7.413-2.703-11.08-.456-1.678-1.285-3.254-1.944-4.875 1.85-1.131 3.103-.993 4.012.94.894 1.898 1.45 3.987 1.907 6.048.589 2.683.9 5.425 1.397 8.13.434 2.358 1.634 4.226 3.937 5.701.563-.95 1.264-1.698 1.477-2.566.8-3.245 1.336-6.554 2.192-9.783.376-1.421 1.274-2.704 1.898-3.971 3.96-1.922 6.519-.605 7.348 3.69.552 2.845 2.605 7.21 4.252 8.989 1.762-3.985 3.511-7.946 5.354-12.112 1.16-.517 2.436-1.084 3.545-1.576 3.285.948 4.471 3.42 5.533 5.997.882 2.148 1.748 4.305 2.836 6.98 1.664-3.383 2.837-6.248 4.437-8.848 1.037-1.685 2.564-3.15 4.119-4.406 1.247-1.009 3.855-.405 4.953 1.326 1.397 2.204 2.405 4.68 3.386 7.115.55 1.371.706 2.896 1.197 5.036L851.498 661c3.834-.825 5.588.088 6.753 3.33.387 1.076.56 2.225.848 3.336.283 1.088.59 2.169 1.048 3.846 1.482-2.422 2.64-4.342 3.828-6.242.8-1.275 1.65-2.516 2.461-3.78 1.315-2.05 3.14-2.766 5.538-2.14 4.401 2.5 3.681 7.44 5.22 11.39 2.175-2.686 4.233-5.34 6.412-7.89 1.842-2.156 4.25-2.694 6.977-2.055 2.135.5 3.434 2.236 3.41 3.684l3.164 6.338c3.557-3.056 5.89-7.248 9.96-9.665l-.055-.064c1.463 1.278 2.114-.535 3.401-.884 5.666.772 7.292 5.707 9.644 10.302 1.962-2.074 3.796-4.006 5.937-6.266l4.33-1.853c3.116.833 5.308 2.633 7.049 5.124 1.54 2.202 2.69 2.715 5.577 2.731-.259 2.164-1.405 3.589-3.02 4.645-2.333-.615-3.832-1.922-5.058-3.625-.933-1.3-1.808-2.66-2.89-3.823-1.813-1.948-3.962-1.703-5.21.647-.62 1.171-.725 2.609-1.162 3.89-.936 2.736-1.645 5.637-4.57 7.072-3.223-1.395-3.964-4.36-5.02-7.251-1.109-3.035-2.269-6.226-6.214-7.432-1.827 1.046-3.77 2.156-5.711 3.266-1.85 4.216-.87 9.719-5.86 12.777-2.117-.974-3.57-2.515-4.276-4.882a100.382 100.382 0 0 0-2.672-7.802c-.464-1.187-1.306-2.23-1.895-3.205-2.637.205-3.949 1.802-4.751 3.495-1.312 2.76-2.317 5.694-3.178 8.636-.667 2.284-1.37 4.376-4.085 5.547-1.09-1.222-2.226-2.491-3.07-3.44-1.611-5.467-1.849-10.85-4.075-15.91-2.428 1.345-3.263 3.53-4.137 5.57-1.107 2.576-1.795 5.334-2.91 7.908-.548 1.27-1.647 2.3-2.604 3.575l-3.49-3.07c-.935-4.08-1.898-8.283-2.983-13.006-4.562 4.584-4.71 10.475-7.06 15.472-.85.487-1.765 1.006-2.652 1.512-2.323-.81-3.41-2.58-4.008-4.712-.647-2.308-1.117-4.666-1.828-6.953-.563-1.797-.915-3.815-3.333-5.023-1.237 1.765-2.423 3.463-3.612 5.161.034-.21.066-.42.026-.17-.074-.258-.021-.072.035.114"/></g><g><path fill="#fca08b" d="M872.734 693.219l.043-.048.031.058zm-.427-.944c-.242.059-.485.12-.728.181-.365 1.308-.727 2.615-1.09 3.923-1.864 4.297-3.015 9.269-8.025 11.618-1.812-1.079-3.388-2.434-3.956-4.648-.53-2.054-.984-4.124-1.525-6.176-.416-1.581-.912-3.141-1.482-5.084-3.314 1.762-3.949 4.465-4.396 7.404-.278-.34-.507-.62-1.075-1.307v6.51c-1.266 1.664-1.322 4.34-3.415 5.703-3.607-1.206-4.487-4.193-5.42-7.023-.914-2.772-1.453-5.669-2.343-8.448-.461-1.44-1.325-2.75-2.005-4.114-3.4 1.671-6.484 7.587-6.614 11.477-.339 1.178-.675 2.358-1.013 3.535l.33.127L826.16 711c-2.725-.983-3.828-2.623-4.316-5.15-.917-4.752-1.328-9.69-3.954-13.957-.565-.917-1.424-1.653-2.071-2.387-2.861.928-3.885 2.801-4.143 5.13-.254 2.263-.115 4.583-.49 6.821-.377 2.238-1.07 4.443-1.854 6.577-.256.694-1.24 1.12-1.829 1.613-4.041-1.113-5.108-4.49-6.443-7.5-.995-2.247-1.496-4.708-2.312-7.041-.482-1.377-1.149-2.692-1.914-4.454-2.183 2.65-2.909 5.378-3.676 8.02-.486 1.669-.446 3.495-.587 5.254-.205 2.559-1.36 4.387-2.927 4.539-1.57.151-3.36-1.332-3.938-3.747-.925-3.87-1.586-7.805-2.389-11.704-.338-1.65-.594-3.343-1.189-4.9-.413-1.09-1.34-1.985-2.127-3.09.786-1.361 2.077-1.061 3.367-.8 2.517 2.314 2.885 5.418 3.215 8.509.294 2.723.432 5.466.707 8.193.096.948.394 1.878.733 3.425 2.397-5.998 2.642-12.336 7.329-16.864l4.29 1.076c3.185 4.576 2.65 10.635 6.19 15.41 1.575-4.036 3.036-7.794 4.51-11.543.289-.734.534-1.51.963-2.156 2.773-4.156 6.86-4.042 9.094.428 1.735 3.47 3.044 7.151 4.54 10.742.197.473.381.951.794 1.993 1.253-2.53 2.224-4.643 3.333-6.678 1.184-2.169 2.535-4.247 3.748-6.397 1.043-1.85 2.677-2.447 4.676-2.45 2.981 1.422 4.538 3.866 5.148 6.992.451 2.298.806 4.616 1.317 6.901.18.797.702 1.52 1.312 2.788 1.624-3.74 3.053-6.976 4.439-10.231.91-2.137 1.866-4.213 4.43-5.347 2.987-.391 5.17.792 6.242 3.925.71 2.07 1.045 4.268 1.562 6.404.163.665.37 1.316.747 2.64l9.701-13.692c.75-.516 1.882-1.292 3.055-2.094 3.757.398 5.562 1.212 6.705 6.42.432 1.977.91 3.944 1.39 6.011 2.745-1.206 3.439-3.818 4.51-6.152 1.296-2.814 1.664-3.157 4.391-4.11 2.14.14 3.458 1.357 4.164 3.239.92 2.455 1.747 4.948 2.605 7.427.192.556.357 1.12.701 2.217 3.162-4.94 5.481-9.945 10.086-13.221 4.468-.234 5.915 1.565 6.926 5.222 1.986-.577 3.967-1.151 5.945-1.728l.096-.635c1.317.768 2.637 1.534 4.039 2.352-.72 2.312.03 4.898-2.282 6.902l-1.41-4.428c-2.308 1.306-1.842 3.645-2.665 5.366l.028.016c-.685 1.477-1.533 2.798-3.394 3.356-2.703-1.076-4.697-2.63-4.503-6.102.088-1.557-.384-3.162-.738-4.711-.179-.779-.67-1.483-1.112-2.413-2.21 1.318-3.554 2.82-4.252 4.9-1.099 3.263-2.224 6.516-3.33 9.761l-2.647 2.06c-.768-.226-1.605-.468-2.408-.702-1.565-2.668-3.164-5.068-3.356-8.32-.13-2.188-1.56-4.298-2.525-6.737a29989.18 29989.18 0 0 1-2.911 3.795c-.699 4.047-1.448 8.376-2.17 12.572-2.92 1.48-4.213-.646-5.727-2.107-2.13-5.39-2.202-11.382-5.201-17.234a4524.438 4524.438 0 0 1-3.62 3.957c-.157-.297-.315-.596-.47-.896zm-20.93 3.226l.373-.002c-.059-.12-.12-.239-.182-.358l-.191.36z"/></g><g clip-path="url(#clip-9D3CC649-A2E0-4CC6-A1F0-D7F4BCE16A82)"><path fill="#fca08b" d="M860.63 651.038c2.532-4.99 5.066-9.98 7.714-15.201 1.133-.369 2.354-1.076 3.596-1.114 3.252-.102 4.56 2.456 5.501 4.969.939 2.496 1.383 5.178 2.117 7.758.516 1.81 1.263 3.502 3.377 4.454 3.491-5.732 6.927-11.376 10.197-16.753l3.281-.861c2.862.637 4.25 2.738 5.06 5.326.772 2.47 1.293 5.023 2.157 7.457.481 1.356 1.439 2.54 2.37 4.127.699-.928 1.092-1.372 1.395-1.87 2.13-3.484 3.93-7.239 6.47-10.38 1.63-2.018 3.31-4.585 6.541-4.74 1.91-.092 3.611.486 4.4 2.264 1.304 2.93 2.423 5.94 3.617 8.918.825 2.055 1.64 4.113 2.55 6.391l-.805.918c-2.59-.439-3.87-2.26-4.776-4.342-1.14-2.618-2.042-5.343-3.135-7.984-.426-1.022-1.096-1.942-1.686-2.967-2.244.936-3.69 2.109-4.435 4.258-.782 2.265-2.276 4.331-2.768 6.634-.694 3.25-2.237 5.517-5.308 6.892-3.427.296-5.672-1.391-6.839-4.719-.947-2.692-1.872-5.393-2.864-8.07-.569-1.533-1.255-3.026-1.888-4.535-.274-.03-.547-.06-.821-.092-1.037 1.485-2.276 2.868-3.064 4.476-1.523 3.116-2.57 6.484-4.246 9.502-.981 1.773-2.792 3.075-3.957 4.301-4.023-.153-5.906-2.354-7.028-5.219-1.108-2.821-1.802-5.807-2.794-8.68-.51-1.477-1.269-2.865-1.987-4.452-2.31 1.253-3.095 3.16-3.887 5.003-1.298 3.021-2.383 6.139-3.755 9.125-.633 1.38-1.73 2.542-2.396 3.489-2.693.274-4.113-.686-5.211-2.44-1.742-2.776-2.702-5.8-3.33-9.004-.438-2.235-1.223-4.4-1.855-6.596a72.774 72.774 0 0 0-.742-.156c-.593.775-1.343 1.474-1.745 2.34a64.59 64.59 0 0 0-2.417 5.946c-1.06 3.026-2.201 5.926-4.204 8.538-1.824 2.383-4.329 3.064-6.068.602-1.396-1.974-2.138-4.457-2.967-6.79-.596-1.675-.822-3.486-1.285-5.213-.223-.834-.614-1.619-.928-2.423a48.429 48.429 0 0 0-.62-.068c-.664 1.945-1.342 3.885-1.988 5.835-.864 2.62-1.654 5.267-2.569 7.869-1.074 3.05-5.265 3.2-6.227.045-1.04-3.405-2.122-6.8-3.143-10.214-.407-1.353-.702-2.741-1.154-4.538-1.867 1.993-2.444 4.084-2.861 6.206-.766 3.898-2.792 7.118-5.151 10.171-.207.266-.57.412-.819.587-2.622.118-4.04-1.515-4.816-3.594-.965-2.583-1.614-5.29-2.305-7.968-.399-1.536-.612-3.12-1.008-5.214-.577.872-.96 1.23-1.077 1.663-.906 3.373-1.69 6.781-2.653 10.136-.79 2.746-2.176 5.055-5.178 5.808-2.67-.926-3.696-3.14-4.398-5.464-.672-2.222-1.015-4.543-1.529-6.816-.385-1.722-.81-3.436-1.276-5.397l1.824-.785c1.654 1.42 2.239 3.182 2.532 5.054.303 1.948.42 3.925.765 5.865.258 1.442.753 2.84 1.141 4.258l.816.113c.673-1.372 1.505-2.69 1.99-4.13 1.345-3.978 2.467-8.032 3.828-12.005.838-2.45 1.965-3.005 5.212-2.76.415 1.593.952 3.344 1.32 5.13.595 2.895 1.007 5.827 1.645 8.71.277 1.238.92 2.395 1.399 3.586.231.011.462.022.694.035.97-1.861 1.989-3.698 2.903-5.587 1.362-2.808 2.564-5.695 3.992-8.466 1.297-2.52 1.856-2.663 4.985-1.872 3.032 4.482 2.654 10.26 5.077 15.425.797-1.816 1.643-3.613 2.38-5.453.794-1.985 1.355-4.078 2.276-5.996.595-1.245 1.489-2.475 2.55-3.33 1.518-1.221 3.8-.172 4.778 2.316.944 2.405 1.518 4.958 2.223 7.454.244.858.298 1.78.6 2.615.352.974.884 1.88 1.564 3.29.867-1.195 1.593-1.953 2.042-2.852 1.702-3.416 3.226-6.921 4.992-10.3 1.183-2.265 2.345-4.697 5.461-5.25 2.598.19 3.41 2.356 4.047 4.505.71 2.4 1.059 4.907 1.771 7.306.519 1.751 1.367 3.403 2.072 5.098.247-.038.494-.073.742-.108z"/></g></g></svg>